%TF.GenerationSoftware,KiCad,Pcbnew,10.0.1-1.fc44*%
%TF.CreationDate,2026-06-04T14:13:26-04:00*%
%TF.ProjectId,pcb_card,7063625f-6361-4726-942e-6b696361645f,rev?*%
%TF.SameCoordinates,Original*%
%TF.FileFunction,Paste,Top*%
%TF.FilePolarity,Positive*%
%FSLAX46Y46*%
G04 Gerber Fmt 4.6, Leading zero omitted, Abs format (unit mm)*
G04 Created by KiCad (PCBNEW 10.0.1-1.fc44) date 2026-06-04 14:13:26*
%MOMM*%
%LPD*%
G01*
G04 APERTURE LIST*
G04 Aperture macros list*
%AMRoundRect*
0 Rectangle with rounded corners*
0 $1 Rounding radius*
0 $2 $3 $4 $5 $6 $7 $8 $9 X,Y pos of 4 corners*
0 Add a 4 corners polygon primitive as box body*
4,1,4,$2,$3,$4,$5,$6,$7,$8,$9,$2,$3,0*
0 Add four circle primitives for the rounded corners*
1,1,$1+$1,$2,$3*
1,1,$1+$1,$4,$5*
1,1,$1+$1,$6,$7*
1,1,$1+$1,$8,$9*
0 Add four rect primitives between the rounded corners*
20,1,$1+$1,$2,$3,$4,$5,0*
20,1,$1+$1,$4,$5,$6,$7,0*
20,1,$1+$1,$6,$7,$8,$9,0*
20,1,$1+$1,$8,$9,$2,$3,0*%
G04 Aperture macros list end*
%ADD10RoundRect,0.250000X0.350000X0.450000X-0.350000X0.450000X-0.350000X-0.450000X0.350000X-0.450000X0*%
%ADD11RoundRect,0.218750X0.026517X-0.335876X0.335876X-0.026517X-0.026517X0.335876X-0.335876X0.026517X0*%
%ADD12RoundRect,0.200000X0.200000X0.275000X-0.200000X0.275000X-0.200000X-0.275000X0.200000X-0.275000X0*%
%ADD13RoundRect,0.225000X-0.225000X-0.250000X0.225000X-0.250000X0.225000X0.250000X-0.225000X0.250000X0*%
%ADD14RoundRect,0.087500X-0.087500X0.187500X-0.087500X-0.187500X0.087500X-0.187500X0.087500X0.187500X0*%
%ADD15RoundRect,0.087500X-0.187500X0.087500X-0.187500X-0.087500X0.187500X-0.087500X0.187500X0.087500X0*%
%ADD16RoundRect,0.167500X0.167500X-0.167500X0.167500X0.167500X-0.167500X0.167500X-0.167500X-0.167500X0*%
%ADD17RoundRect,0.050000X0.050000X-0.375000X0.050000X0.375000X-0.050000X0.375000X-0.050000X-0.375000X0*%
%ADD18RoundRect,0.050000X0.375000X-0.050000X0.375000X0.050000X-0.375000X0.050000X-0.375000X-0.050000X0*%
%ADD19RoundRect,0.200000X-0.275000X0.200000X-0.275000X-0.200000X0.275000X-0.200000X0.275000X0.200000X0*%
%ADD20RoundRect,0.167500X0.167500X0.167500X-0.167500X0.167500X-0.167500X-0.167500X0.167500X-0.167500X0*%
%ADD21RoundRect,0.050000X0.375000X0.050000X-0.375000X0.050000X-0.375000X-0.050000X0.375000X-0.050000X0*%
%ADD22RoundRect,0.050000X0.050000X0.375000X-0.050000X0.375000X-0.050000X-0.375000X0.050000X-0.375000X0*%
%ADD23RoundRect,0.225000X-0.250000X0.225000X-0.250000X-0.225000X0.250000X-0.225000X0.250000X0.225000X0*%
%ADD24R,0.750000X1.000000*%
%ADD25RoundRect,0.200000X0.275000X-0.200000X0.275000X0.200000X-0.275000X0.200000X-0.275000X-0.200000X0*%
%ADD26RoundRect,0.250000X-0.350000X-0.450000X0.350000X-0.450000X0.350000X0.450000X-0.350000X0.450000X0*%
G04 APERTURE END LIST*
D10*
%TO.C,R12*%
X149000000Y-126700000D03*
X147000000Y-126700000D03*
%TD*%
D11*
%TO.C,D68*%
X114143153Y-119256847D03*
X115256847Y-118143153D03*
%TD*%
%TO.C,D85*%
X126143153Y-111256847D03*
X127256847Y-110143153D03*
%TD*%
%TO.C,D82*%
X138143153Y-111256847D03*
X139256847Y-110143153D03*
%TD*%
%TO.C,D92*%
X138143153Y-107256847D03*
X139256847Y-106143153D03*
%TD*%
%TO.C,D40*%
X106143153Y-131256847D03*
X107256847Y-130143153D03*
%TD*%
%TO.C,D78*%
X114143153Y-115256847D03*
X115256847Y-114143153D03*
%TD*%
D10*
%TO.C,R5*%
X172200000Y-125800000D03*
X170200000Y-125800000D03*
%TD*%
D11*
%TO.C,D2*%
X138143153Y-143256847D03*
X139256847Y-142143153D03*
%TD*%
%TO.C,D56*%
X122143153Y-123256847D03*
X123256847Y-122143153D03*
%TD*%
%TO.C,D26*%
X122143153Y-135256847D03*
X123256847Y-134143153D03*
%TD*%
%TO.C,D21*%
X142143153Y-135256847D03*
X143256847Y-134143153D03*
%TD*%
%TO.C,D36*%
X122143153Y-131256847D03*
X123256847Y-130143153D03*
%TD*%
D12*
%TO.C,R3*%
X171025000Y-116800000D03*
X169375000Y-116800000D03*
%TD*%
D11*
%TO.C,D60*%
X106143153Y-123256847D03*
X107256847Y-122143153D03*
%TD*%
%TO.C,D14*%
X130143153Y-139256847D03*
X131256847Y-138143153D03*
%TD*%
D13*
%TO.C,C5*%
X169400000Y-113400000D03*
X170950000Y-113400000D03*
%TD*%
D14*
%TO.C,U2*%
X171175000Y-119075000D03*
X170675000Y-119075000D03*
X170175000Y-119075000D03*
X169675000Y-119075000D03*
X169175000Y-119075000D03*
D15*
X168950000Y-119800000D03*
X168950000Y-120300000D03*
X168950000Y-120800000D03*
D14*
X169175000Y-121525000D03*
X169675000Y-121525000D03*
X170175000Y-121525000D03*
X170675000Y-121525000D03*
X171175000Y-121525000D03*
D15*
X171400000Y-120800000D03*
X171400000Y-120300000D03*
X171400000Y-119800000D03*
%TD*%
D11*
%TO.C,D9*%
X110143153Y-143256847D03*
X111256847Y-142143153D03*
%TD*%
%TO.C,D35*%
X126143153Y-131256847D03*
X127256847Y-130143153D03*
%TD*%
D13*
%TO.C,C4*%
X169400000Y-111890000D03*
X170950000Y-111890000D03*
%TD*%
D11*
%TO.C,D24*%
X130143153Y-135256847D03*
X131256847Y-134143153D03*
%TD*%
%TO.C,D65*%
X126143153Y-119256847D03*
X127256847Y-118143153D03*
%TD*%
%TO.C,D54*%
X130143153Y-123256847D03*
X131256847Y-122143153D03*
%TD*%
D10*
%TO.C,R16*%
X149000000Y-110700000D03*
X147000000Y-110700000D03*
%TD*%
D11*
%TO.C,D69*%
X110143153Y-119256847D03*
X111256847Y-118143153D03*
%TD*%
%TO.C,D94*%
X130143153Y-107256847D03*
X131256847Y-106143153D03*
%TD*%
%TO.C,D16*%
X122143153Y-139256847D03*
X123256847Y-138143153D03*
%TD*%
%TO.C,D39*%
X110143153Y-131256847D03*
X111256847Y-130143153D03*
%TD*%
%TO.C,D96*%
X122143153Y-107256847D03*
X123256847Y-106143153D03*
%TD*%
%TO.C,D41*%
X142143153Y-127256847D03*
X143256847Y-126143153D03*
%TD*%
D13*
%TO.C,C1*%
X162610000Y-118510000D03*
X164160000Y-118510000D03*
%TD*%
D16*
%TO.C,U1*%
X158930000Y-116000000D03*
X159750000Y-116000000D03*
X158930000Y-115180000D03*
X159750000Y-115180000D03*
D17*
X158540000Y-117040000D03*
X158940000Y-117040000D03*
X159340000Y-117040000D03*
X159740000Y-117040000D03*
X160140000Y-117040000D03*
D18*
X160790000Y-116390000D03*
X160790000Y-115990000D03*
X160790000Y-115590000D03*
X160790000Y-115190000D03*
X160790000Y-114790000D03*
D17*
X160140000Y-114140000D03*
X159740000Y-114140000D03*
X159340000Y-114140000D03*
X158940000Y-114140000D03*
X158540000Y-114140000D03*
D18*
X157890000Y-114790000D03*
X157890000Y-115190000D03*
X157890000Y-115590000D03*
X157890000Y-115990000D03*
X157890000Y-116390000D03*
%TD*%
D11*
%TO.C,D58*%
X114143153Y-123256847D03*
X115256847Y-122143153D03*
%TD*%
%TO.C,D59*%
X110143153Y-123256847D03*
X111256847Y-122143153D03*
%TD*%
%TO.C,D37*%
X118143153Y-131256847D03*
X119256847Y-130143153D03*
%TD*%
%TO.C,D31*%
X142143153Y-131256847D03*
X143256847Y-130143153D03*
%TD*%
%TO.C,D32*%
X138143153Y-131256847D03*
X139256847Y-130143153D03*
%TD*%
%TO.C,D3*%
X134143153Y-143256847D03*
X135256847Y-142143153D03*
%TD*%
%TO.C,D66*%
X122143153Y-119256847D03*
X123256847Y-118143153D03*
%TD*%
%TO.C,D23*%
X134143153Y-135256847D03*
X135256847Y-134143153D03*
%TD*%
D10*
%TO.C,R15*%
X149000000Y-114700000D03*
X147000000Y-114700000D03*
%TD*%
D19*
%TO.C,R7*%
X156600000Y-135800000D03*
X156600000Y-137450000D03*
%TD*%
D11*
%TO.C,D15*%
X126143153Y-139256847D03*
X127256847Y-138143153D03*
%TD*%
D20*
%TO.C,U3*%
X165360000Y-111400000D03*
X165360000Y-110580000D03*
X164540000Y-111400000D03*
X164540000Y-110580000D03*
D21*
X166400000Y-111790000D03*
X166400000Y-111390000D03*
X166400000Y-110990000D03*
X166400000Y-110590000D03*
X166400000Y-110190000D03*
D22*
X165750000Y-109540000D03*
X165350000Y-109540000D03*
X164950000Y-109540000D03*
X164550000Y-109540000D03*
X164150000Y-109540000D03*
D21*
X163500000Y-110190000D03*
X163500000Y-110590000D03*
X163500000Y-110990000D03*
X163500000Y-111390000D03*
X163500000Y-111790000D03*
D22*
X164150000Y-112440000D03*
X164550000Y-112440000D03*
X164950000Y-112440000D03*
X165350000Y-112440000D03*
X165750000Y-112440000D03*
%TD*%
D11*
%TO.C,D45*%
X126143153Y-127256847D03*
X127256847Y-126143153D03*
%TD*%
D23*
%TO.C,C3*%
X173600000Y-119225000D03*
X173600000Y-120775000D03*
%TD*%
D11*
%TO.C,D61*%
X142143153Y-119256847D03*
X143256847Y-118143153D03*
%TD*%
%TO.C,D100*%
X106143153Y-107256847D03*
X107256847Y-106143153D03*
%TD*%
%TO.C,D46*%
X122143153Y-127256847D03*
X123256847Y-126143153D03*
%TD*%
%TO.C,D84*%
X130143153Y-111256847D03*
X131256847Y-110143153D03*
%TD*%
%TO.C,D43*%
X134143153Y-127256847D03*
X135256847Y-126143153D03*
%TD*%
%TO.C,D89*%
X110143153Y-111256847D03*
X111256847Y-110143153D03*
%TD*%
%TO.C,D25*%
X126143153Y-135256847D03*
X127256847Y-134143153D03*
%TD*%
D10*
%TO.C,R4*%
X172200000Y-127800000D03*
X170200000Y-127800000D03*
%TD*%
D11*
%TO.C,D88*%
X114143153Y-111256847D03*
X115256847Y-110143153D03*
%TD*%
%TO.C,D51*%
X142143153Y-123256847D03*
X143256847Y-122143153D03*
%TD*%
%TO.C,D91*%
X142143153Y-107256847D03*
X143256847Y-106143153D03*
%TD*%
%TO.C,D62*%
X138143153Y-119256847D03*
X139256847Y-118143153D03*
%TD*%
%TO.C,D22*%
X138143153Y-135256847D03*
X139256847Y-134143153D03*
%TD*%
%TO.C,D30*%
X106143153Y-135256847D03*
X107256847Y-134143153D03*
%TD*%
%TO.C,D4*%
X130143153Y-143256847D03*
X131256847Y-142143153D03*
%TD*%
%TO.C,D49*%
X110143153Y-127256847D03*
X111256847Y-126143153D03*
%TD*%
D13*
%TO.C,C2*%
X162610000Y-117010000D03*
X164160000Y-117010000D03*
%TD*%
D11*
%TO.C,D64*%
X130143153Y-119256847D03*
X131256847Y-118143153D03*
%TD*%
%TO.C,D18*%
X114143153Y-139256847D03*
X115256847Y-138143153D03*
%TD*%
%TO.C,D28*%
X114143153Y-135256847D03*
X115256847Y-134143153D03*
%TD*%
%TO.C,D12*%
X138143153Y-139256847D03*
X139256847Y-138143153D03*
%TD*%
D10*
%TO.C,R14*%
X149000000Y-118700000D03*
X147000000Y-118700000D03*
%TD*%
D11*
%TO.C,D50*%
X106143153Y-127256847D03*
X107256847Y-126143153D03*
%TD*%
%TO.C,D67*%
X118143153Y-119256847D03*
X119256847Y-118143153D03*
%TD*%
%TO.C,D27*%
X118143153Y-135256847D03*
X119256847Y-134143153D03*
%TD*%
%TO.C,D1*%
X142143153Y-143256847D03*
X143256847Y-142143153D03*
%TD*%
%TO.C,D74*%
X130143153Y-115256847D03*
X131256847Y-114143153D03*
%TD*%
%TO.C,D34*%
X130143153Y-131256847D03*
X131256847Y-130143153D03*
%TD*%
%TO.C,D10*%
X106143153Y-143256847D03*
X107256847Y-142143153D03*
%TD*%
%TO.C,D52*%
X138143153Y-123256847D03*
X139256847Y-122143153D03*
%TD*%
%TO.C,D6*%
X122143153Y-143256847D03*
X123256847Y-142143153D03*
%TD*%
D10*
%TO.C,R13*%
X149000000Y-122700000D03*
X147000000Y-122700000D03*
%TD*%
D11*
%TO.C,D80*%
X106143153Y-115256847D03*
X107256847Y-114143153D03*
%TD*%
D12*
%TO.C,R2*%
X171025000Y-115200000D03*
X169375000Y-115200000D03*
%TD*%
D10*
%TO.C,R9*%
X149000000Y-138700000D03*
X147000000Y-138700000D03*
%TD*%
D11*
%TO.C,D7*%
X118143153Y-143256847D03*
X119256847Y-142143153D03*
%TD*%
%TO.C,D33*%
X134143153Y-131256847D03*
X135256847Y-130143153D03*
%TD*%
%TO.C,D81*%
X142143153Y-111256847D03*
X143256847Y-110143153D03*
%TD*%
%TO.C,D95*%
X126143153Y-107256847D03*
X127256847Y-106143153D03*
%TD*%
D24*
%TO.C,SW2*%
X162250000Y-133800000D03*
X162250000Y-139800000D03*
X158550000Y-133800000D03*
X158550000Y-139800000D03*
%TD*%
D11*
%TO.C,D83*%
X134143153Y-111256847D03*
X135256847Y-110143153D03*
%TD*%
%TO.C,D93*%
X134143153Y-107256847D03*
X135256847Y-106143153D03*
%TD*%
D25*
%TO.C,R6*%
X156600000Y-133250000D03*
X156600000Y-131600000D03*
%TD*%
D10*
%TO.C,R17*%
X149000000Y-106700000D03*
X147000000Y-106700000D03*
%TD*%
D11*
%TO.C,D17*%
X118143153Y-139256847D03*
X119256847Y-138143153D03*
%TD*%
%TO.C,D13*%
X134143153Y-139256847D03*
X135256847Y-138143153D03*
%TD*%
%TO.C,D48*%
X114143153Y-127256847D03*
X115256847Y-126143153D03*
%TD*%
%TO.C,D79*%
X110143153Y-115256847D03*
X111256847Y-114143153D03*
%TD*%
D26*
%TO.C,R1*%
X163000000Y-121200000D03*
X165000000Y-121200000D03*
%TD*%
D11*
%TO.C,D5*%
X126143153Y-143256847D03*
X127256847Y-142143153D03*
%TD*%
%TO.C,D72*%
X138143153Y-115256847D03*
X139256847Y-114143153D03*
%TD*%
%TO.C,D57*%
X118143153Y-123256847D03*
X119256847Y-122143153D03*
%TD*%
%TO.C,D19*%
X110143153Y-139256847D03*
X111256847Y-138143153D03*
%TD*%
%TO.C,D86*%
X122143153Y-111256847D03*
X123256847Y-110143153D03*
%TD*%
%TO.C,D29*%
X110143153Y-135256847D03*
X111256847Y-134143153D03*
%TD*%
D24*
%TO.C,SW1*%
X158550000Y-130800000D03*
X158550000Y-124800000D03*
X162250000Y-130800000D03*
X162250000Y-124800000D03*
%TD*%
D11*
%TO.C,D77*%
X118143153Y-115256847D03*
X119256847Y-114143153D03*
%TD*%
%TO.C,D76*%
X122143153Y-115256847D03*
X123256847Y-114143153D03*
%TD*%
D10*
%TO.C,R10*%
X149000000Y-134700000D03*
X147000000Y-134700000D03*
%TD*%
D11*
%TO.C,D70*%
X106143153Y-119256847D03*
X107256847Y-118143153D03*
%TD*%
%TO.C,D11*%
X142143153Y-139256847D03*
X143256847Y-138143153D03*
%TD*%
%TO.C,D71*%
X142143153Y-115256847D03*
X143256847Y-114143153D03*
%TD*%
%TO.C,D75*%
X126143153Y-115256847D03*
X127256847Y-114143153D03*
%TD*%
D10*
%TO.C,R18*%
X156400000Y-106800000D03*
X154400000Y-106800000D03*
%TD*%
D11*
%TO.C,D97*%
X118143153Y-107256847D03*
X119256847Y-106143153D03*
%TD*%
%TO.C,D8*%
X114143153Y-143256847D03*
X115256847Y-142143153D03*
%TD*%
%TO.C,D53*%
X134143153Y-123256847D03*
X135256847Y-122143153D03*
%TD*%
%TO.C,D87*%
X118143153Y-111256847D03*
X119256847Y-110143153D03*
%TD*%
D10*
%TO.C,R8*%
X149000000Y-142700000D03*
X147000000Y-142700000D03*
%TD*%
D11*
%TO.C,D20*%
X106143153Y-139256847D03*
X107256847Y-138143153D03*
%TD*%
%TO.C,D44*%
X130143153Y-127256847D03*
X131256847Y-126143153D03*
%TD*%
D10*
%TO.C,R11*%
X149000000Y-130700000D03*
X147000000Y-130700000D03*
%TD*%
D11*
%TO.C,D55*%
X126143153Y-123256847D03*
X127256847Y-122143153D03*
%TD*%
%TO.C,D47*%
X118143153Y-127256847D03*
X119256847Y-126143153D03*
%TD*%
%TO.C,D63*%
X134143153Y-119256847D03*
X135256847Y-118143153D03*
%TD*%
%TO.C,D98*%
X114143153Y-107256847D03*
X115256847Y-106143153D03*
%TD*%
%TO.C,D99*%
X110143153Y-107256847D03*
X111256847Y-106143153D03*
%TD*%
%TO.C,D38*%
X114143153Y-131256847D03*
X115256847Y-130143153D03*
%TD*%
%TO.C,D73*%
X134143153Y-115256847D03*
X135256847Y-114143153D03*
%TD*%
%TO.C,D90*%
X106143153Y-111256847D03*
X107256847Y-110143153D03*
%TD*%
%TO.C,D42*%
X138143153Y-127256847D03*
X139256847Y-126143153D03*
%TD*%
M02*
