%TF.GenerationSoftware,KiCad,Pcbnew,10.0.3-2.fc44*%
%TF.CreationDate,2026-06-15T15:25:36-04:00*%
%TF.ProjectId,pcb_card,7063625f-6361-4726-942e-6b696361645f,rev?*%
%TF.SameCoordinates,Original*%
%TF.FileFunction,Copper,L1,Top*%
%TF.FilePolarity,Positive*%
%FSLAX46Y46*%
G04 Gerber Fmt 4.6, Leading zero omitted, Abs format (unit mm)*
G04 Created by KiCad (PCBNEW 10.0.3-2.fc44) date 2026-06-15 15:25:36*
%MOMM*%
%LPD*%
G01*
G04 APERTURE LIST*
G04 Aperture macros list*
%AMRoundRect*
0 Rectangle with rounded corners*
0 $1 Rounding radius*
0 $2 $3 $4 $5 $6 $7 $8 $9 X,Y pos of 4 corners*
0 Add a 4 corners polygon primitive as box body*
4,1,4,$2,$3,$4,$5,$6,$7,$8,$9,$2,$3,0*
0 Add four circle primitives for the rounded corners*
1,1,$1+$1,$2,$3*
1,1,$1+$1,$4,$5*
1,1,$1+$1,$6,$7*
1,1,$1+$1,$8,$9*
0 Add four rect primitives between the rounded corners*
20,1,$1+$1,$2,$3,$4,$5,0*
20,1,$1+$1,$4,$5,$6,$7,0*
20,1,$1+$1,$6,$7,$8,$9,0*
20,1,$1+$1,$8,$9,$2,$3,0*%
%AMFreePoly0*
4,1,6,1.000000,0.000000,0.500000,-0.750000,-0.500000,-0.750000,-0.500000,0.750000,0.500000,0.750000,1.000000,0.000000,1.000000,0.000000,$1*%
%AMFreePoly1*
4,1,6,0.500000,-0.750000,-0.650000,-0.750000,-0.150000,0.000000,-0.650000,0.750000,0.500000,0.750000,0.500000,-0.750000,0.500000,-0.750000,$1*%
G04 Aperture macros list end*
%TA.AperFunction,SMDPad,CuDef*%
%ADD10RoundRect,0.250000X0.350000X0.450000X-0.350000X0.450000X-0.350000X-0.450000X0.350000X-0.450000X0*%
%TD*%
%TA.AperFunction,SMDPad,CuDef*%
%ADD11RoundRect,0.218750X0.026517X-0.335876X0.335876X-0.026517X-0.026517X0.335876X-0.335876X0.026517X0*%
%TD*%
%TA.AperFunction,SMDPad,CuDef*%
%ADD12FreePoly0,90.000000*%
%TD*%
%TA.AperFunction,SMDPad,CuDef*%
%ADD13FreePoly1,90.000000*%
%TD*%
%TA.AperFunction,SMDPad,CuDef*%
%ADD14RoundRect,0.200000X0.200000X0.275000X-0.200000X0.275000X-0.200000X-0.275000X0.200000X-0.275000X0*%
%TD*%
%TA.AperFunction,SMDPad,CuDef*%
%ADD15RoundRect,0.225000X-0.225000X-0.250000X0.225000X-0.250000X0.225000X0.250000X-0.225000X0.250000X0*%
%TD*%
%TA.AperFunction,SMDPad,CuDef*%
%ADD16RoundRect,0.087500X-0.087500X0.187500X-0.087500X-0.187500X0.087500X-0.187500X0.087500X0.187500X0*%
%TD*%
%TA.AperFunction,SMDPad,CuDef*%
%ADD17RoundRect,0.087500X-0.187500X0.087500X-0.187500X-0.087500X0.187500X-0.087500X0.187500X0.087500X0*%
%TD*%
%TA.AperFunction,SMDPad,CuDef*%
%ADD18RoundRect,0.050000X0.050000X-0.375000X0.050000X0.375000X-0.050000X0.375000X-0.050000X-0.375000X0*%
%TD*%
%TA.AperFunction,SMDPad,CuDef*%
%ADD19RoundRect,0.050000X0.375000X-0.050000X0.375000X0.050000X-0.375000X0.050000X-0.375000X-0.050000X0*%
%TD*%
%TA.AperFunction,HeatsinkPad*%
%ADD20R,1.650000X1.650000*%
%TD*%
%TA.AperFunction,SMDPad,CuDef*%
%ADD21O,1.500000X0.800000*%
%TD*%
%TA.AperFunction,SMDPad,CuDef*%
%ADD22RoundRect,0.200000X-0.275000X0.200000X-0.275000X-0.200000X0.275000X-0.200000X0.275000X0.200000X0*%
%TD*%
%TA.AperFunction,SMDPad,CuDef*%
%ADD23RoundRect,0.050000X0.375000X0.050000X-0.375000X0.050000X-0.375000X-0.050000X0.375000X-0.050000X0*%
%TD*%
%TA.AperFunction,SMDPad,CuDef*%
%ADD24RoundRect,0.050000X0.050000X0.375000X-0.050000X0.375000X-0.050000X-0.375000X0.050000X-0.375000X0*%
%TD*%
%TA.AperFunction,SMDPad,CuDef*%
%ADD25RoundRect,0.225000X-0.250000X0.225000X-0.250000X-0.225000X0.250000X-0.225000X0.250000X0.225000X0*%
%TD*%
%TA.AperFunction,ComponentPad*%
%ADD26C,3.600000*%
%TD*%
%TA.AperFunction,ConnectorPad*%
%ADD27C,6.400000*%
%TD*%
%TA.AperFunction,SMDPad,CuDef*%
%ADD28R,0.750000X1.000000*%
%TD*%
%TA.AperFunction,SMDPad,CuDef*%
%ADD29RoundRect,0.200000X0.275000X-0.200000X0.275000X0.200000X-0.275000X0.200000X-0.275000X-0.200000X0*%
%TD*%
%TA.AperFunction,SMDPad,CuDef*%
%ADD30RoundRect,0.250000X-0.350000X-0.450000X0.350000X-0.450000X0.350000X0.450000X-0.350000X0.450000X0*%
%TD*%
%TA.AperFunction,ComponentPad*%
%ADD31RoundRect,0.250000X0.625000X-0.350000X0.625000X0.350000X-0.625000X0.350000X-0.625000X-0.350000X0*%
%TD*%
%TA.AperFunction,ComponentPad*%
%ADD32O,1.750000X1.200000*%
%TD*%
%TA.AperFunction,ViaPad*%
%ADD33C,0.600000*%
%TD*%
%TA.AperFunction,Conductor*%
%ADD34C,0.200000*%
%TD*%
%TA.AperFunction,Conductor*%
%ADD35C,0.300000*%
%TD*%
G04 APERTURE END LIST*
D10*
%TO.P,R12,1*%
%TO.N,CH_5*%
X149000000Y-126700000D03*
%TO.P,R12,2*%
%TO.N,/Led Matrix/CATH_5*%
X147000000Y-126700000D03*
%TD*%
D11*
%TO.P,D68,1,K_1*%
%TO.N,/Led Matrix/CATH_9*%
X114143153Y-119256847D03*
%TO.P,D68,2,A_2*%
%TO.N,/Led Matrix/CATH_7*%
X115256847Y-118143153D03*
%TD*%
%TO.P,D85,1,K_1*%
%TO.N,/Led Matrix/CATH_5*%
X126143153Y-111256847D03*
%TO.P,D85,2,A_2*%
%TO.N,/Led Matrix/CATH_9*%
X127256847Y-110143153D03*
%TD*%
%TO.P,D82,1,K_1*%
%TO.N,/Led Matrix/CATH_2*%
X138143153Y-111256847D03*
%TO.P,D82,2,A_2*%
%TO.N,/Led Matrix/CATH_9*%
X139256847Y-110143153D03*
%TD*%
%TO.P,D92,1,K_1*%
%TO.N,/Led Matrix/CATH_2*%
X138143153Y-107256847D03*
%TO.P,D92,2,A_2*%
%TO.N,/Led Matrix/CATH_10*%
X139256847Y-106143153D03*
%TD*%
%TO.P,D40,1,K_1*%
%TO.N,/Led Matrix/CATH_11*%
X106143153Y-131256847D03*
%TO.P,D40,2,A_2*%
%TO.N,/Led Matrix/CATH_4*%
X107256847Y-130143153D03*
%TD*%
D12*
%TO.P,JP1,1,A_1*%
%TO.N,VBAT*%
X165800000Y-133400000D03*
D13*
%TO.P,JP1,2,B_2*%
%TO.N,+3V3*%
X165800000Y-131950000D03*
%TD*%
D11*
%TO.P,D78,1,K_1*%
%TO.N,/Led Matrix/CATH_9*%
X114143153Y-115256847D03*
%TO.P,D78,2,A_2*%
%TO.N,/Led Matrix/CATH_8*%
X115256847Y-114143153D03*
%TD*%
D10*
%TO.P,R5,1*%
%TO.N,RX_EXT*%
X172200000Y-125800000D03*
%TO.P,R5,2*%
%TO.N,RX*%
X170200000Y-125800000D03*
%TD*%
D11*
%TO.P,D2,1,K_1*%
%TO.N,/Led Matrix/CATH_3*%
X138143153Y-143256847D03*
%TO.P,D2,2,A_2*%
%TO.N,/Led Matrix/CATH_1*%
X139256847Y-142143153D03*
%TD*%
%TO.P,D56,1,K_1*%
%TO.N,/Led Matrix/CATH_7*%
X122143153Y-123256847D03*
%TO.P,D56,2,A_2*%
%TO.N,/Led Matrix/CATH_6*%
X123256847Y-122143153D03*
%TD*%
%TO.P,D26,1,K_1*%
%TO.N,/Led Matrix/CATH_7*%
X122143153Y-135256847D03*
%TO.P,D26,2,A_2*%
%TO.N,/Led Matrix/CATH_3*%
X123256847Y-134143153D03*
%TD*%
%TO.P,D21,1,K_1*%
%TO.N,/Led Matrix/CATH_1*%
X142143153Y-135256847D03*
%TO.P,D21,2,A_2*%
%TO.N,/Led Matrix/CATH_3*%
X143256847Y-134143153D03*
%TD*%
%TO.P,D36,1,K_1*%
%TO.N,/Led Matrix/CATH_7*%
X122143153Y-131256847D03*
%TO.P,D36,2,A_2*%
%TO.N,/Led Matrix/CATH_4*%
X123256847Y-130143153D03*
%TD*%
D14*
%TO.P,R3,1*%
%TO.N,+3V3*%
X171025000Y-116800000D03*
%TO.P,R3,2*%
%TO.N,SCL*%
X169375000Y-116800000D03*
%TD*%
D11*
%TO.P,D60,1,K_1*%
%TO.N,/Led Matrix/CATH_11*%
X106143153Y-123256847D03*
%TO.P,D60,2,A_2*%
%TO.N,/Led Matrix/CATH_6*%
X107256847Y-122143153D03*
%TD*%
%TO.P,D14,1,K_1*%
%TO.N,/Led Matrix/CATH_5*%
X130143153Y-139256847D03*
%TO.P,D14,2,A_2*%
%TO.N,/Led Matrix/CATH_2*%
X131256847Y-138143153D03*
%TD*%
D15*
%TO.P,C5,1*%
%TO.N,+3V3*%
X169400000Y-113400000D03*
%TO.P,C5,2*%
%TO.N,GND*%
X170950000Y-113400000D03*
%TD*%
D16*
%TO.P,U2,1,VDD_IO_1*%
%TO.N,+3V3*%
X171175000Y-119075000D03*
%TO.P,U2,2,NC_2*%
%TO.N,unconnected-(U2-NC-Pad2)*%
X170675000Y-119075000D03*
%TO.P,U2,3,NC_3*%
%TO.N,unconnected-(U2-NC-Pad3)*%
X170175000Y-119075000D03*
%TO.P,U2,4,SPC_4*%
%TO.N,SCL*%
X169675000Y-119075000D03*
%TO.P,U2,5,GND_5*%
%TO.N,GND*%
X169175000Y-119075000D03*
D17*
%TO.P,U2,6,SDI_6*%
%TO.N,SDA*%
X168950000Y-119800000D03*
%TO.P,U2,7,SDO_7*%
%TO.N,+3V3*%
X168950000Y-120300000D03*
%TO.P,U2,8,CS_8*%
X168950000Y-120800000D03*
D16*
%TO.P,U2,9,INT2_9*%
%TO.N,unconnected-(U2-INT2-Pad9)*%
X169175000Y-121525000D03*
%TO.P,U2,10,GND_10*%
%TO.N,GND*%
X169675000Y-121525000D03*
%TO.P,U2,11,INT1_11*%
%TO.N,Net-(U2-INT1)*%
X170175000Y-121525000D03*
%TO.P,U2,12,GND_12*%
%TO.N,GND*%
X170675000Y-121525000D03*
%TO.P,U2,13,ADC3_13*%
%TO.N,unconnected-(U2-ADC3-Pad13)*%
X171175000Y-121525000D03*
D17*
%TO.P,U2,14,VDD_14*%
%TO.N,+3V3*%
X171400000Y-120800000D03*
%TO.P,U2,15,ADC2_15*%
%TO.N,unconnected-(U2-ADC2-Pad15)*%
X171400000Y-120300000D03*
%TO.P,U2,16,ADC1_16*%
%TO.N,VBAT*%
X171400000Y-119800000D03*
%TD*%
D11*
%TO.P,D9,1,K_1*%
%TO.N,/Led Matrix/CATH_10*%
X110143153Y-143256847D03*
%TO.P,D9,2,A_2*%
%TO.N,/Led Matrix/CATH_1*%
X111256847Y-142143153D03*
%TD*%
%TO.P,D35,1,K_1*%
%TO.N,/Led Matrix/CATH_6*%
X126143153Y-131256847D03*
%TO.P,D35,2,A_2*%
%TO.N,/Led Matrix/CATH_4*%
X127256847Y-130143153D03*
%TD*%
D15*
%TO.P,C4,1*%
%TO.N,+3V3*%
X169400000Y-111890000D03*
%TO.P,C4,2*%
%TO.N,GND*%
X170950000Y-111890000D03*
%TD*%
D11*
%TO.P,D24,1,K_1*%
%TO.N,/Led Matrix/CATH_5*%
X130143153Y-135256847D03*
%TO.P,D24,2,A_2*%
%TO.N,/Led Matrix/CATH_3*%
X131256847Y-134143153D03*
%TD*%
%TO.P,D65,1,K_1*%
%TO.N,/Led Matrix/CATH_5*%
X126143153Y-119256847D03*
%TO.P,D65,2,A_2*%
%TO.N,/Led Matrix/CATH_7*%
X127256847Y-118143153D03*
%TD*%
%TO.P,D54,1,K_1*%
%TO.N,/Led Matrix/CATH_4*%
X130143153Y-123256847D03*
%TO.P,D54,2,A_2*%
%TO.N,/Led Matrix/CATH_6*%
X131256847Y-122143153D03*
%TD*%
D10*
%TO.P,R16,1*%
%TO.N,CH_9*%
X149000000Y-110700000D03*
%TO.P,R16,2*%
%TO.N,/Led Matrix/CATH_9*%
X147000000Y-110700000D03*
%TD*%
D11*
%TO.P,D69,1,K_1*%
%TO.N,/Led Matrix/CATH_10*%
X110143153Y-119256847D03*
%TO.P,D69,2,A_2*%
%TO.N,/Led Matrix/CATH_7*%
X111256847Y-118143153D03*
%TD*%
%TO.P,D94,1,K_1*%
%TO.N,/Led Matrix/CATH_4*%
X130143153Y-107256847D03*
%TO.P,D94,2,A_2*%
%TO.N,/Led Matrix/CATH_10*%
X131256847Y-106143153D03*
%TD*%
%TO.P,D16,1,K_1*%
%TO.N,/Led Matrix/CATH_7*%
X122143153Y-139256847D03*
%TO.P,D16,2,A_2*%
%TO.N,/Led Matrix/CATH_2*%
X123256847Y-138143153D03*
%TD*%
%TO.P,D39,1,K_1*%
%TO.N,/Led Matrix/CATH_10*%
X110143153Y-131256847D03*
%TO.P,D39,2,A_2*%
%TO.N,/Led Matrix/CATH_4*%
X111256847Y-130143153D03*
%TD*%
%TO.P,D96,1,K_1*%
%TO.N,/Led Matrix/CATH_6*%
X122143153Y-107256847D03*
%TO.P,D96,2,A_2*%
%TO.N,/Led Matrix/CATH_10*%
X123256847Y-106143153D03*
%TD*%
%TO.P,D41,1,K_1*%
%TO.N,/Led Matrix/CATH_1*%
X142143153Y-127256847D03*
%TO.P,D41,2,A_2*%
%TO.N,/Led Matrix/CATH_5*%
X143256847Y-126143153D03*
%TD*%
D15*
%TO.P,C1,1*%
%TO.N,+3V3*%
X162610000Y-118510000D03*
%TO.P,C1,2*%
%TO.N,GND*%
X164160000Y-118510000D03*
%TD*%
D18*
%TO.P,U1,1,PD7_1*%
%TO.N,NRST*%
X158540000Y-117040000D03*
%TO.P,U1,2,PA1_2*%
%TO.N,CH_2*%
X158940000Y-117040000D03*
%TO.P,U1,3,PA2_3*%
%TO.N,CH_1*%
X159340000Y-117040000D03*
%TO.P,U1,4,VSS_4*%
%TO.N,GND*%
X159740000Y-117040000D03*
%TO.P,U1,5,PD0_5*%
%TO.N,BTN1*%
X160140000Y-117040000D03*
D19*
%TO.P,U1,6,VDD_6*%
%TO.N,+3V3*%
X160790000Y-116390000D03*
%TO.P,U1,7,PC0_7*%
%TO.N,EN*%
X160790000Y-115990000D03*
%TO.P,U1,8,PC1_8*%
%TO.N,SDA*%
X160790000Y-115590000D03*
%TO.P,U1,9,PC2_9*%
%TO.N,SCL*%
X160790000Y-115190000D03*
%TO.P,U1,10,PC3_10*%
%TO.N,CH_11*%
X160790000Y-114790000D03*
D18*
%TO.P,U1,11,PC4_11*%
%TO.N,CH_10*%
X160140000Y-114140000D03*
%TO.P,U1,12,PC5_12*%
%TO.N,CH_9*%
X159740000Y-114140000D03*
%TO.P,U1,13,PC6_13*%
%TO.N,CH_8*%
X159340000Y-114140000D03*
%TO.P,U1,14,PC7_14*%
%TO.N,CH_7*%
X158940000Y-114140000D03*
%TO.P,U1,15,PD1_15*%
%TO.N,CH_6*%
X158540000Y-114140000D03*
D19*
%TO.P,U1,16,PD2_16*%
%TO.N,CH_5*%
X157890000Y-114790000D03*
%TO.P,U1,17,PD3_17*%
%TO.N,CH_4*%
X157890000Y-115190000D03*
%TO.P,U1,18,PD4_18*%
%TO.N,CH_3*%
X157890000Y-115590000D03*
%TO.P,U1,19,PD5_19*%
%TO.N,TX*%
X157890000Y-115990000D03*
%TO.P,U1,20,PD6_20*%
%TO.N,RX*%
X157890000Y-116390000D03*
D20*
%TO.P,U1,21,VSS_21*%
%TO.N,GND*%
X159340000Y-115590000D03*
%TD*%
D11*
%TO.P,D58,1,K_1*%
%TO.N,/Led Matrix/CATH_9*%
X114143153Y-123256847D03*
%TO.P,D58,2,A_2*%
%TO.N,/Led Matrix/CATH_6*%
X115256847Y-122143153D03*
%TD*%
%TO.P,D59,1,K_1*%
%TO.N,/Led Matrix/CATH_10*%
X110143153Y-123256847D03*
%TO.P,D59,2,A_2*%
%TO.N,/Led Matrix/CATH_6*%
X111256847Y-122143153D03*
%TD*%
%TO.P,D37,1,K_1*%
%TO.N,/Led Matrix/CATH_8*%
X118143153Y-131256847D03*
%TO.P,D37,2,A_2*%
%TO.N,/Led Matrix/CATH_4*%
X119256847Y-130143153D03*
%TD*%
%TO.P,D31,1,K_1*%
%TO.N,/Led Matrix/CATH_1*%
X142143153Y-131256847D03*
%TO.P,D31,2,A_2*%
%TO.N,/Led Matrix/CATH_4*%
X143256847Y-130143153D03*
%TD*%
D21*
%TO.P,J2,1,Pin_1_1*%
%TO.N,+3V3*%
X174729500Y-107895000D03*
%TO.P,J2,2,Pin_2_2*%
%TO.N,RX_EXT*%
X174729500Y-109165000D03*
%TO.P,J2,3,Pin_3_3*%
%TO.N,TX_EXT*%
X174729500Y-110435000D03*
%TO.P,J2,4,Pin_4_4*%
%TO.N,GND*%
X174729500Y-111705000D03*
%TD*%
D11*
%TO.P,D32,1,K_1*%
%TO.N,/Led Matrix/CATH_2*%
X138143153Y-131256847D03*
%TO.P,D32,2,A_2*%
%TO.N,/Led Matrix/CATH_4*%
X139256847Y-130143153D03*
%TD*%
%TO.P,D3,1,K_1*%
%TO.N,/Led Matrix/CATH_4*%
X134143153Y-143256847D03*
%TO.P,D3,2,A_2*%
%TO.N,/Led Matrix/CATH_1*%
X135256847Y-142143153D03*
%TD*%
%TO.P,D66,1,K_1*%
%TO.N,/Led Matrix/CATH_6*%
X122143153Y-119256847D03*
%TO.P,D66,2,A_2*%
%TO.N,/Led Matrix/CATH_7*%
X123256847Y-118143153D03*
%TD*%
%TO.P,D23,1,K_1*%
%TO.N,/Led Matrix/CATH_4*%
X134143153Y-135256847D03*
%TO.P,D23,2,A_2*%
%TO.N,/Led Matrix/CATH_3*%
X135256847Y-134143153D03*
%TD*%
D10*
%TO.P,R15,1*%
%TO.N,CH_8*%
X149000000Y-114700000D03*
%TO.P,R15,2*%
%TO.N,/Led Matrix/CATH_8*%
X147000000Y-114700000D03*
%TD*%
D22*
%TO.P,R7,1*%
%TO.N,EN*%
X156600000Y-135800000D03*
%TO.P,R7,2*%
%TO.N,GND*%
X156600000Y-137450000D03*
%TD*%
D11*
%TO.P,D15,1,K_1*%
%TO.N,/Led Matrix/CATH_6*%
X126143153Y-139256847D03*
%TO.P,D15,2,A_2*%
%TO.N,/Led Matrix/CATH_2*%
X127256847Y-138143153D03*
%TD*%
D23*
%TO.P,U3,1,VDD_1*%
%TO.N,+3V3*%
X166400000Y-111790000D03*
%TO.P,U3,2,PA0/T2C1/CTS2/A0_2*%
%TO.N,CH_3*%
X166400000Y-111390000D03*
%TO.P,U3,3,PA1/RTS2/T2C2/O1N2/O2N2/A1_3*%
%TO.N,CH_4*%
X166400000Y-110990000D03*
%TO.P,U3,4,PA2/TX2/T2C3/O2O1/T2ET_/A2_4*%
%TO.N,CH_5*%
X166400000Y-110590000D03*
%TO.P,U3,5,PA3/T2C4/O1O0/T3C1_/RX2/A3_5*%
%TO.N,CH_6*%
X166400000Y-110190000D03*
D24*
%TO.P,U3,6,PA4/CS/O2O0/T3C2_/A4_6*%
%TO.N,CH_11*%
X165750000Y-109540000D03*
%TO.P,U3,7,PA5/SCK/TX4_/O2N0/A5_7*%
%TO.N,CH_10*%
X165350000Y-109540000D03*
%TO.P,U3,8,PA6/MISO/T3C1/T1BK_/O1N0/A6_8*%
%TO.N,CH_9*%
X164950000Y-109540000D03*
%TO.P,U3,9,PA7/MOSI/T3C2/T1C1N_/O2P0/A7_9*%
%TO.N,CH_8*%
X164550000Y-109540000D03*
%TO.P,U3,10,PB0/TX4/T1C2N_/O1P0/A8_10*%
%TO.N,CH_7*%
X164150000Y-109540000D03*
D23*
%TO.P,U3,11,PB1/T1C3N_/RX4/O2N1/A9_11*%
%TO.N,RX*%
X163500000Y-110190000D03*
%TO.P,U3,12,PB3/TX3/T2C3_/T2C3N_/O2P1_12*%
%TO.N,EN*%
X163500000Y-110590000D03*
%TO.P,U3,13,PB11/T1C3/T2C1N_/RX1_13*%
%TO.N,BTN1*%
X163500000Y-110990000D03*
%TO.P,U3,14,PC18/DIO/TX3_/T2C1N_/T3C2_/I2C__14*%
%TO.N,SWDIO*%
X163500000Y-111390000D03*
%TO.P,U3,15,PB12/T1C4_/T2C2N__15*%
%TO.N,unconnected-(U3-PB12{slash}T1C4_{slash}T2C2N_-Pad15)*%
X163500000Y-111790000D03*
D24*
%TO.P,U3,16,PC19/DCK/T2C1_/T3C1_/I2C_/RX3__16*%
%TO.N,SWCLK*%
X164150000Y-112440000D03*
%TO.P,U3,17,PC16/UDM/T1C4/TX4_/I2C_/RX4_/PC11_17*%
%TO.N,SCL*%
X164550000Y-112440000D03*
%TO.P,U3,18,PC17/UDP/TX4_/I2C_/RX4_/T1ET/PC10_18*%
%TO.N,SDA*%
X164950000Y-112440000D03*
%TO.P,U3,19,PC14/CC1/T1C3_/T2C2__19*%
%TO.N,CH_2*%
X165350000Y-112440000D03*
%TO.P,U3,20,PC15/CC2/T2C3_/T1ET__20*%
%TO.N,CH_1*%
X165750000Y-112440000D03*
D20*
%TO.P,U3,21,GND_21*%
%TO.N,GND*%
X164950000Y-110990000D03*
%TD*%
D11*
%TO.P,D45,1,K_1*%
%TO.N,/Led Matrix/CATH_6*%
X126143153Y-127256847D03*
%TO.P,D45,2,A_2*%
%TO.N,/Led Matrix/CATH_5*%
X127256847Y-126143153D03*
%TD*%
D25*
%TO.P,C3,1*%
%TO.N,+3V3*%
X173600000Y-119225000D03*
%TO.P,C3,2*%
%TO.N,GND*%
X173600000Y-120775000D03*
%TD*%
D11*
%TO.P,D61,1,K_1*%
%TO.N,/Led Matrix/CATH_1*%
X142143153Y-119256847D03*
%TO.P,D61,2,A_2*%
%TO.N,/Led Matrix/CATH_7*%
X143256847Y-118143153D03*
%TD*%
%TO.P,D100,1,K_1*%
%TO.N,/Led Matrix/CATH_11*%
X106143153Y-107256847D03*
%TO.P,D100,2,A_2*%
%TO.N,/Led Matrix/CATH_10*%
X107256847Y-106143153D03*
%TD*%
%TO.P,D46,1,K_1*%
%TO.N,/Led Matrix/CATH_7*%
X122143153Y-127256847D03*
%TO.P,D46,2,A_2*%
%TO.N,/Led Matrix/CATH_5*%
X123256847Y-126143153D03*
%TD*%
%TO.P,D84,1,K_1*%
%TO.N,/Led Matrix/CATH_4*%
X130143153Y-111256847D03*
%TO.P,D84,2,A_2*%
%TO.N,/Led Matrix/CATH_9*%
X131256847Y-110143153D03*
%TD*%
%TO.P,D43,1,K_1*%
%TO.N,/Led Matrix/CATH_3*%
X134143153Y-127256847D03*
%TO.P,D43,2,A_2*%
%TO.N,/Led Matrix/CATH_5*%
X135256847Y-126143153D03*
%TD*%
%TO.P,D89,1,K_1*%
%TO.N,/Led Matrix/CATH_10*%
X110143153Y-111256847D03*
%TO.P,D89,2,A_2*%
%TO.N,/Led Matrix/CATH_9*%
X111256847Y-110143153D03*
%TD*%
%TO.P,D25,1,K_1*%
%TO.N,/Led Matrix/CATH_6*%
X126143153Y-135256847D03*
%TO.P,D25,2,A_2*%
%TO.N,/Led Matrix/CATH_3*%
X127256847Y-134143153D03*
%TD*%
D10*
%TO.P,R4,1*%
%TO.N,TX_EXT*%
X172200000Y-127800000D03*
%TO.P,R4,2*%
%TO.N,TX*%
X170200000Y-127800000D03*
%TD*%
D11*
%TO.P,D88,1,K_1*%
%TO.N,/Led Matrix/CATH_8*%
X114143153Y-111256847D03*
%TO.P,D88,2,A_2*%
%TO.N,/Led Matrix/CATH_9*%
X115256847Y-110143153D03*
%TD*%
%TO.P,D51,1,K_1*%
%TO.N,/Led Matrix/CATH_1*%
X142143153Y-123256847D03*
%TO.P,D51,2,A_2*%
%TO.N,/Led Matrix/CATH_6*%
X143256847Y-122143153D03*
%TD*%
%TO.P,D91,1,K_1*%
%TO.N,/Led Matrix/CATH_1*%
X142143153Y-107256847D03*
%TO.P,D91,2,A_2*%
%TO.N,/Led Matrix/CATH_10*%
X143256847Y-106143153D03*
%TD*%
D26*
%TO.P,REF\u002A\u002A,1*%
%TO.N,N/C*%
X171400000Y-140200000D03*
D27*
%TO.N,GND*%
X171400000Y-140200000D03*
%TD*%
D11*
%TO.P,D62,1,K_1*%
%TO.N,/Led Matrix/CATH_2*%
X138143153Y-119256847D03*
%TO.P,D62,2,A_2*%
%TO.N,/Led Matrix/CATH_7*%
X139256847Y-118143153D03*
%TD*%
%TO.P,D22,1,K_1*%
%TO.N,/Led Matrix/CATH_2*%
X138143153Y-135256847D03*
%TO.P,D22,2,A_2*%
%TO.N,/Led Matrix/CATH_3*%
X139256847Y-134143153D03*
%TD*%
%TO.P,D30,1,K_1*%
%TO.N,/Led Matrix/CATH_11*%
X106143153Y-135256847D03*
%TO.P,D30,2,A_2*%
%TO.N,/Led Matrix/CATH_3*%
X107256847Y-134143153D03*
%TD*%
%TO.P,D4,1,K_1*%
%TO.N,/Led Matrix/CATH_5*%
X130143153Y-143256847D03*
%TO.P,D4,2,A_2*%
%TO.N,/Led Matrix/CATH_1*%
X131256847Y-142143153D03*
%TD*%
%TO.P,D49,1,K_1*%
%TO.N,/Led Matrix/CATH_10*%
X110143153Y-127256847D03*
%TO.P,D49,2,A_2*%
%TO.N,/Led Matrix/CATH_5*%
X111256847Y-126143153D03*
%TD*%
D15*
%TO.P,C2,1*%
%TO.N,+3V3*%
X162610000Y-117010000D03*
%TO.P,C2,2*%
%TO.N,GND*%
X164160000Y-117010000D03*
%TD*%
D11*
%TO.P,D64,1,K_1*%
%TO.N,/Led Matrix/CATH_4*%
X130143153Y-119256847D03*
%TO.P,D64,2,A_2*%
%TO.N,/Led Matrix/CATH_7*%
X131256847Y-118143153D03*
%TD*%
%TO.P,D18,1,K_1*%
%TO.N,/Led Matrix/CATH_9*%
X114143153Y-139256847D03*
%TO.P,D18,2,A_2*%
%TO.N,/Led Matrix/CATH_2*%
X115256847Y-138143153D03*
%TD*%
%TO.P,D28,1,K_1*%
%TO.N,/Led Matrix/CATH_9*%
X114143153Y-135256847D03*
%TO.P,D28,2,A_2*%
%TO.N,/Led Matrix/CATH_3*%
X115256847Y-134143153D03*
%TD*%
%TO.P,D12,1,K_1*%
%TO.N,/Led Matrix/CATH_3*%
X138143153Y-139256847D03*
%TO.P,D12,2,A_2*%
%TO.N,/Led Matrix/CATH_2*%
X139256847Y-138143153D03*
%TD*%
D10*
%TO.P,R14,1*%
%TO.N,CH_7*%
X149000000Y-118700000D03*
%TO.P,R14,2*%
%TO.N,/Led Matrix/CATH_7*%
X147000000Y-118700000D03*
%TD*%
D11*
%TO.P,D50,1,K_1*%
%TO.N,/Led Matrix/CATH_11*%
X106143153Y-127256847D03*
%TO.P,D50,2,A_2*%
%TO.N,/Led Matrix/CATH_5*%
X107256847Y-126143153D03*
%TD*%
%TO.P,D67,1,K_1*%
%TO.N,/Led Matrix/CATH_8*%
X118143153Y-119256847D03*
%TO.P,D67,2,A_2*%
%TO.N,/Led Matrix/CATH_7*%
X119256847Y-118143153D03*
%TD*%
%TO.P,D27,1,K_1*%
%TO.N,/Led Matrix/CATH_8*%
X118143153Y-135256847D03*
%TO.P,D27,2,A_2*%
%TO.N,/Led Matrix/CATH_3*%
X119256847Y-134143153D03*
%TD*%
%TO.P,D1,1,K_1*%
%TO.N,/Led Matrix/CATH_2*%
X142143153Y-143256847D03*
%TO.P,D1,2,A_2*%
%TO.N,/Led Matrix/CATH_1*%
X143256847Y-142143153D03*
%TD*%
%TO.P,D74,1,K_1*%
%TO.N,/Led Matrix/CATH_4*%
X130143153Y-115256847D03*
%TO.P,D74,2,A_2*%
%TO.N,/Led Matrix/CATH_8*%
X131256847Y-114143153D03*
%TD*%
%TO.P,D34,1,K_1*%
%TO.N,/Led Matrix/CATH_5*%
X130143153Y-131256847D03*
%TO.P,D34,2,A_2*%
%TO.N,/Led Matrix/CATH_4*%
X131256847Y-130143153D03*
%TD*%
%TO.P,D10,1,K_1*%
%TO.N,/Led Matrix/CATH_11*%
X106143153Y-143256847D03*
%TO.P,D10,2,A_2*%
%TO.N,/Led Matrix/CATH_1*%
X107256847Y-142143153D03*
%TD*%
%TO.P,D52,1,K_1*%
%TO.N,/Led Matrix/CATH_2*%
X138143153Y-123256847D03*
%TO.P,D52,2,A_2*%
%TO.N,/Led Matrix/CATH_6*%
X139256847Y-122143153D03*
%TD*%
%TO.P,D6,1,K_1*%
%TO.N,/Led Matrix/CATH_7*%
X122143153Y-143256847D03*
%TO.P,D6,2,A_2*%
%TO.N,/Led Matrix/CATH_1*%
X123256847Y-142143153D03*
%TD*%
D10*
%TO.P,R13,1*%
%TO.N,CH_6*%
X149000000Y-122700000D03*
%TO.P,R13,2*%
%TO.N,/Led Matrix/CATH_6*%
X147000000Y-122700000D03*
%TD*%
D11*
%TO.P,D80,1,K_1*%
%TO.N,/Led Matrix/CATH_11*%
X106143153Y-115256847D03*
%TO.P,D80,2,A_2*%
%TO.N,/Led Matrix/CATH_8*%
X107256847Y-114143153D03*
%TD*%
D14*
%TO.P,R2,1*%
%TO.N,+3V3*%
X171025000Y-115200000D03*
%TO.P,R2,2*%
%TO.N,SDA*%
X169375000Y-115200000D03*
%TD*%
D10*
%TO.P,R9,1*%
%TO.N,CH_2*%
X149000000Y-138700000D03*
%TO.P,R9,2*%
%TO.N,/Led Matrix/CATH_2*%
X147000000Y-138700000D03*
%TD*%
D11*
%TO.P,D7,1,K_1*%
%TO.N,/Led Matrix/CATH_8*%
X118143153Y-143256847D03*
%TO.P,D7,2,A_2*%
%TO.N,/Led Matrix/CATH_1*%
X119256847Y-142143153D03*
%TD*%
%TO.P,D33,1,K_1*%
%TO.N,/Led Matrix/CATH_3*%
X134143153Y-131256847D03*
%TO.P,D33,2,A_2*%
%TO.N,/Led Matrix/CATH_4*%
X135256847Y-130143153D03*
%TD*%
%TO.P,D81,1,K_1*%
%TO.N,/Led Matrix/CATH_1*%
X142143153Y-111256847D03*
%TO.P,D81,2,A_2*%
%TO.N,/Led Matrix/CATH_9*%
X143256847Y-110143153D03*
%TD*%
%TO.P,D95,1,K_1*%
%TO.N,/Led Matrix/CATH_5*%
X126143153Y-107256847D03*
%TO.P,D95,2,A_2*%
%TO.N,/Led Matrix/CATH_10*%
X127256847Y-106143153D03*
%TD*%
D28*
%TO.P,SW2,1,A_1*%
%TO.N,EN*%
X162250000Y-133800000D03*
%TO.P,SW2,2,B_2*%
%TO.N,unconnected-(SW2-B-Pad2)*%
X162250000Y-139800000D03*
%TO.P,SW2,3,C_3*%
%TO.N,VBAT*%
X158550000Y-133800000D03*
%TO.P,SW2,4,D_4*%
%TO.N,unconnected-(SW2-D-Pad4)*%
X158550000Y-139800000D03*
%TD*%
D11*
%TO.P,D83,1,K_1*%
%TO.N,/Led Matrix/CATH_3*%
X134143153Y-111256847D03*
%TO.P,D83,2,A_2*%
%TO.N,/Led Matrix/CATH_9*%
X135256847Y-110143153D03*
%TD*%
%TO.P,D93,1,K_1*%
%TO.N,/Led Matrix/CATH_3*%
X134143153Y-107256847D03*
%TO.P,D93,2,A_2*%
%TO.N,/Led Matrix/CATH_10*%
X135256847Y-106143153D03*
%TD*%
D29*
%TO.P,R6,1*%
%TO.N,BTN1*%
X156600000Y-133250000D03*
%TO.P,R6,2*%
%TO.N,GND*%
X156600000Y-131600000D03*
%TD*%
D10*
%TO.P,R17,1*%
%TO.N,CH_10*%
X149000000Y-106700000D03*
%TO.P,R17,2*%
%TO.N,/Led Matrix/CATH_10*%
X147000000Y-106700000D03*
%TD*%
D11*
%TO.P,D17,1,K_1*%
%TO.N,/Led Matrix/CATH_8*%
X118143153Y-139256847D03*
%TO.P,D17,2,A_2*%
%TO.N,/Led Matrix/CATH_2*%
X119256847Y-138143153D03*
%TD*%
%TO.P,D13,1,K_1*%
%TO.N,/Led Matrix/CATH_4*%
X134143153Y-139256847D03*
%TO.P,D13,2,A_2*%
%TO.N,/Led Matrix/CATH_2*%
X135256847Y-138143153D03*
%TD*%
%TO.P,D48,1,K_1*%
%TO.N,/Led Matrix/CATH_9*%
X114143153Y-127256847D03*
%TO.P,D48,2,A_2*%
%TO.N,/Led Matrix/CATH_5*%
X115256847Y-126143153D03*
%TD*%
%TO.P,D79,1,K_1*%
%TO.N,/Led Matrix/CATH_10*%
X110143153Y-115256847D03*
%TO.P,D79,2,A_2*%
%TO.N,/Led Matrix/CATH_8*%
X111256847Y-114143153D03*
%TD*%
D30*
%TO.P,R1,1*%
%TO.N,EN*%
X163000000Y-121200000D03*
%TO.P,R1,2*%
%TO.N,Net-(U2-INT1)*%
X165000000Y-121200000D03*
%TD*%
D11*
%TO.P,D5,1,K_1*%
%TO.N,/Led Matrix/CATH_6*%
X126143153Y-143256847D03*
%TO.P,D5,2,A_2*%
%TO.N,/Led Matrix/CATH_1*%
X127256847Y-142143153D03*
%TD*%
%TO.P,D72,1,K_1*%
%TO.N,/Led Matrix/CATH_2*%
X138143153Y-115256847D03*
%TO.P,D72,2,A_2*%
%TO.N,/Led Matrix/CATH_8*%
X139256847Y-114143153D03*
%TD*%
%TO.P,D57,1,K_1*%
%TO.N,/Led Matrix/CATH_8*%
X118143153Y-123256847D03*
%TO.P,D57,2,A_2*%
%TO.N,/Led Matrix/CATH_6*%
X119256847Y-122143153D03*
%TD*%
%TO.P,D19,1,K_1*%
%TO.N,/Led Matrix/CATH_10*%
X110143153Y-139256847D03*
%TO.P,D19,2,A_2*%
%TO.N,/Led Matrix/CATH_2*%
X111256847Y-138143153D03*
%TD*%
%TO.P,D86,1,K_1*%
%TO.N,/Led Matrix/CATH_6*%
X122143153Y-111256847D03*
%TO.P,D86,2,A_2*%
%TO.N,/Led Matrix/CATH_9*%
X123256847Y-110143153D03*
%TD*%
%TO.P,D29,1,K_1*%
%TO.N,/Led Matrix/CATH_10*%
X110143153Y-135256847D03*
%TO.P,D29,2,A_2*%
%TO.N,/Led Matrix/CATH_3*%
X111256847Y-134143153D03*
%TD*%
D28*
%TO.P,SW1,1,A_1*%
%TO.N,BTN1*%
X158550000Y-130800000D03*
%TO.P,SW1,2,B_2*%
%TO.N,unconnected-(SW1-B-Pad2)*%
X158550000Y-124800000D03*
%TO.P,SW1,3,C_3*%
%TO.N,VBAT*%
X162250000Y-130800000D03*
%TO.P,SW1,4,D_4*%
%TO.N,unconnected-(SW1-D-Pad4)*%
X162250000Y-124800000D03*
%TD*%
D11*
%TO.P,D77,1,K_1*%
%TO.N,/Led Matrix/CATH_7*%
X118143153Y-115256847D03*
%TO.P,D77,2,A_2*%
%TO.N,/Led Matrix/CATH_8*%
X119256847Y-114143153D03*
%TD*%
%TO.P,D76,1,K_1*%
%TO.N,/Led Matrix/CATH_6*%
X122143153Y-115256847D03*
%TO.P,D76,2,A_2*%
%TO.N,/Led Matrix/CATH_8*%
X123256847Y-114143153D03*
%TD*%
D31*
%TO.P,J1,1,Pin_1_1*%
%TO.N,RX_EXT*%
X170800000Y-133800000D03*
D32*
%TO.P,J1,2,Pin_2_2*%
%TO.N,TX_EXT*%
X170800000Y-131800000D03*
%TD*%
D10*
%TO.P,R10,1*%
%TO.N,CH_3*%
X149000000Y-134700000D03*
%TO.P,R10,2*%
%TO.N,/Led Matrix/CATH_3*%
X147000000Y-134700000D03*
%TD*%
D11*
%TO.P,D70,1,K_1*%
%TO.N,/Led Matrix/CATH_11*%
X106143153Y-119256847D03*
%TO.P,D70,2,A_2*%
%TO.N,/Led Matrix/CATH_7*%
X107256847Y-118143153D03*
%TD*%
%TO.P,D11,1,K_1*%
%TO.N,/Led Matrix/CATH_1*%
X142143153Y-139256847D03*
%TO.P,D11,2,A_2*%
%TO.N,/Led Matrix/CATH_2*%
X143256847Y-138143153D03*
%TD*%
%TO.P,D71,1,K_1*%
%TO.N,/Led Matrix/CATH_1*%
X142143153Y-115256847D03*
%TO.P,D71,2,A_2*%
%TO.N,/Led Matrix/CATH_8*%
X143256847Y-114143153D03*
%TD*%
%TO.P,D75,1,K_1*%
%TO.N,/Led Matrix/CATH_5*%
X126143153Y-115256847D03*
%TO.P,D75,2,A_2*%
%TO.N,/Led Matrix/CATH_8*%
X127256847Y-114143153D03*
%TD*%
D10*
%TO.P,R18,1*%
%TO.N,CH_11*%
X156400000Y-106800000D03*
%TO.P,R18,2*%
%TO.N,/Led Matrix/CATH_11*%
X154400000Y-106800000D03*
%TD*%
D11*
%TO.P,D97,1,K_1*%
%TO.N,/Led Matrix/CATH_7*%
X118143153Y-107256847D03*
%TO.P,D97,2,A_2*%
%TO.N,/Led Matrix/CATH_10*%
X119256847Y-106143153D03*
%TD*%
%TO.P,D8,1,K_1*%
%TO.N,/Led Matrix/CATH_9*%
X114143153Y-143256847D03*
%TO.P,D8,2,A_2*%
%TO.N,/Led Matrix/CATH_1*%
X115256847Y-142143153D03*
%TD*%
%TO.P,D53,1,K_1*%
%TO.N,/Led Matrix/CATH_3*%
X134143153Y-123256847D03*
%TO.P,D53,2,A_2*%
%TO.N,/Led Matrix/CATH_6*%
X135256847Y-122143153D03*
%TD*%
%TO.P,D87,1,K_1*%
%TO.N,/Led Matrix/CATH_7*%
X118143153Y-111256847D03*
%TO.P,D87,2,A_2*%
%TO.N,/Led Matrix/CATH_9*%
X119256847Y-110143153D03*
%TD*%
D10*
%TO.P,R8,1*%
%TO.N,CH_1*%
X149000000Y-142700000D03*
%TO.P,R8,2*%
%TO.N,/Led Matrix/CATH_1*%
X147000000Y-142700000D03*
%TD*%
D11*
%TO.P,D20,1,K_1*%
%TO.N,/Led Matrix/CATH_11*%
X106143153Y-139256847D03*
%TO.P,D20,2,A_2*%
%TO.N,/Led Matrix/CATH_2*%
X107256847Y-138143153D03*
%TD*%
%TO.P,D44,1,K_1*%
%TO.N,/Led Matrix/CATH_4*%
X130143153Y-127256847D03*
%TO.P,D44,2,A_2*%
%TO.N,/Led Matrix/CATH_5*%
X131256847Y-126143153D03*
%TD*%
D10*
%TO.P,R11,1*%
%TO.N,CH_4*%
X149000000Y-130700000D03*
%TO.P,R11,2*%
%TO.N,/Led Matrix/CATH_4*%
X147000000Y-130700000D03*
%TD*%
D11*
%TO.P,D55,1,K_1*%
%TO.N,/Led Matrix/CATH_5*%
X126143153Y-123256847D03*
%TO.P,D55,2,A_2*%
%TO.N,/Led Matrix/CATH_6*%
X127256847Y-122143153D03*
%TD*%
%TO.P,D47,1,K_1*%
%TO.N,/Led Matrix/CATH_8*%
X118143153Y-127256847D03*
%TO.P,D47,2,A_2*%
%TO.N,/Led Matrix/CATH_5*%
X119256847Y-126143153D03*
%TD*%
%TO.P,D63,1,K_1*%
%TO.N,/Led Matrix/CATH_3*%
X134143153Y-119256847D03*
%TO.P,D63,2,A_2*%
%TO.N,/Led Matrix/CATH_7*%
X135256847Y-118143153D03*
%TD*%
%TO.P,D98,1,K_1*%
%TO.N,/Led Matrix/CATH_8*%
X114143153Y-107256847D03*
%TO.P,D98,2,A_2*%
%TO.N,/Led Matrix/CATH_10*%
X115256847Y-106143153D03*
%TD*%
%TO.P,D99,1,K_1*%
%TO.N,/Led Matrix/CATH_9*%
X110143153Y-107256847D03*
%TO.P,D99,2,A_2*%
%TO.N,/Led Matrix/CATH_10*%
X111256847Y-106143153D03*
%TD*%
%TO.P,D38,1,K_1*%
%TO.N,/Led Matrix/CATH_9*%
X114143153Y-131256847D03*
%TO.P,D38,2,A_2*%
%TO.N,/Led Matrix/CATH_4*%
X115256847Y-130143153D03*
%TD*%
%TO.P,D73,1,K_1*%
%TO.N,/Led Matrix/CATH_3*%
X134143153Y-115256847D03*
%TO.P,D73,2,A_2*%
%TO.N,/Led Matrix/CATH_8*%
X135256847Y-114143153D03*
%TD*%
%TO.P,D90,1,K_1*%
%TO.N,/Led Matrix/CATH_11*%
X106143153Y-111256847D03*
%TO.P,D90,2,A_2*%
%TO.N,/Led Matrix/CATH_9*%
X107256847Y-110143153D03*
%TD*%
%TO.P,D42,1,K_1*%
%TO.N,/Led Matrix/CATH_2*%
X138143153Y-127256847D03*
%TO.P,D42,2,A_2*%
%TO.N,/Led Matrix/CATH_5*%
X139256847Y-126143153D03*
%TD*%
D33*
%TO.N,CH_5*%
X155210000Y-114790000D03*
X167243761Y-109465642D03*
%TO.N,/Led Matrix/CATH_5*%
X131256847Y-126143153D03*
X124700000Y-108700000D03*
X128700000Y-144200000D03*
X128700000Y-140700000D03*
X124700000Y-120700000D03*
X124700000Y-124700000D03*
X124700000Y-112700000D03*
X128700000Y-132700000D03*
X124700000Y-116700000D03*
X128700000Y-136700000D03*
%TO.N,/Led Matrix/CATH_9*%
X112700000Y-128700000D03*
X115256847Y-110143153D03*
X112700000Y-136700000D03*
X112700000Y-132700000D03*
X112700000Y-140700000D03*
X112700000Y-120700000D03*
X112700000Y-144200000D03*
X112700000Y-124700000D03*
X112700000Y-116700000D03*
%TO.N,/Led Matrix/CATH_7*%
X116700000Y-108700000D03*
X116700000Y-112700000D03*
X120700000Y-132700000D03*
X116700000Y-116700000D03*
X120700000Y-128700000D03*
X120700000Y-144200000D03*
X120700000Y-140700000D03*
X120700000Y-124700000D03*
X123256847Y-118143153D03*
X120700000Y-136700000D03*
%TO.N,/Led Matrix/CATH_2*%
X136700000Y-132700000D03*
X136700000Y-108700000D03*
X136700000Y-136700000D03*
X136700000Y-124700000D03*
X136700000Y-112700000D03*
X143256847Y-138143153D03*
X136700000Y-128700000D03*
X136700000Y-116700000D03*
X140700000Y-144200000D03*
X136700000Y-120700000D03*
%TO.N,/Led Matrix/CATH_10*%
X108700000Y-108700000D03*
X108700000Y-120700000D03*
X108700000Y-128700000D03*
X108700000Y-140700000D03*
X108700000Y-112700000D03*
X108700000Y-136700000D03*
X108700000Y-144200000D03*
X108700000Y-132700000D03*
X108700000Y-124700000D03*
X108700000Y-116700000D03*
%TO.N,/Led Matrix/CATH_4*%
X132700000Y-144200000D03*
X128700000Y-108700000D03*
X128700000Y-128700000D03*
X128700000Y-124700000D03*
X132700000Y-136700000D03*
X128700000Y-112700000D03*
X128700000Y-116700000D03*
X135256847Y-130143153D03*
X128700000Y-120700000D03*
X132700000Y-140700000D03*
%TO.N,VBAT*%
X172300000Y-119100000D03*
X166000000Y-136900000D03*
%TO.N,+3V3*%
X169800000Y-120200000D03*
X171175000Y-118000000D03*
%TO.N,/Led Matrix/CATH_8*%
X116700000Y-124700000D03*
X112700000Y-108700000D03*
X116700000Y-128700000D03*
X116700000Y-136700000D03*
X119256847Y-114143153D03*
X116700000Y-132700000D03*
X112700000Y-112700000D03*
X116700000Y-120700000D03*
X116700000Y-144200000D03*
X116700000Y-140700000D03*
%TO.N,RX_EXT*%
X170400000Y-107351473D03*
X171600000Y-109800000D03*
%TO.N,RX*%
X156500000Y-117700000D03*
X157900000Y-106651470D03*
X168000000Y-124600000D03*
%TO.N,/Led Matrix/CATH_3*%
X132700000Y-124700000D03*
X139256847Y-134143153D03*
X136700000Y-140700000D03*
X132700000Y-112700000D03*
X136700000Y-144200000D03*
X132700000Y-128700000D03*
X132700000Y-108700000D03*
X132700000Y-116700000D03*
X132700000Y-132700000D03*
X132700000Y-120700000D03*
%TO.N,/Led Matrix/CATH_1*%
X140700000Y-108700000D03*
X140700000Y-120700000D03*
X140700000Y-116700000D03*
X140700000Y-132700000D03*
X140700000Y-112700000D03*
X140700000Y-140700000D03*
X140700000Y-124700000D03*
X140700000Y-128700000D03*
X140700000Y-136700000D03*
%TO.N,/Led Matrix/CATH_6*%
X127256847Y-122143153D03*
X120700000Y-112700000D03*
X124700000Y-128700000D03*
X120700000Y-108700000D03*
X124700000Y-140700000D03*
X120700000Y-120700000D03*
X124700000Y-136700000D03*
X124700000Y-144200000D03*
X120700000Y-116700000D03*
X124700000Y-132700000D03*
%TO.N,SCL*%
X167424265Y-117224265D03*
X168800000Y-117599997D03*
%TO.N,GND*%
X168800000Y-118400000D03*
X171300000Y-123900000D03*
X164300000Y-135100000D03*
X164950000Y-110990000D03*
X167875735Y-112675735D03*
X173600000Y-121400000D03*
X171417595Y-114249904D03*
X156000000Y-142800000D03*
X164800000Y-118600000D03*
X158800000Y-137500000D03*
X156600000Y-138000000D03*
X159000000Y-142800000D03*
X172500000Y-122500000D03*
X168100000Y-128000000D03*
X164700000Y-142800000D03*
X161700000Y-142800000D03*
X159940000Y-119000000D03*
X173000000Y-115900000D03*
X168263235Y-115463235D03*
X168100000Y-133900000D03*
X168100000Y-130800000D03*
X156600000Y-131000000D03*
X170477456Y-120788915D03*
%TO.N,SDA*%
X164223532Y-115423532D03*
X165648527Y-115400000D03*
X169300000Y-114600000D03*
%TO.N,Net-(U2-INT1)*%
X167800000Y-121818522D03*
X170200000Y-122400000D03*
%TO.N,CH_9*%
X162200000Y-107400000D03*
X155724265Y-110724265D03*
%TO.N,NRST*%
X157200000Y-118400000D03*
%TO.N,CH_2*%
X165734358Y-113443761D03*
X158740000Y-119000000D03*
%TO.N,CH_1*%
X166724264Y-114875735D03*
X159340000Y-119800000D03*
%TO.N,BTN1*%
X160800000Y-117600000D03*
X162357108Y-114357108D03*
%TO.N,EN*%
X165800000Y-117200000D03*
X163384999Y-116282152D03*
X162500000Y-132800000D03*
X163800000Y-126600000D03*
X159200000Y-107600000D03*
%TO.N,CH_10*%
X160424265Y-107400000D03*
X157600000Y-109600000D03*
%TO.N,CH_8*%
X157600000Y-111750000D03*
X161624265Y-108224265D03*
%TO.N,CH_7*%
X162151473Y-109000000D03*
X158200000Y-112500000D03*
%TO.N,CH_6*%
X157600000Y-113250000D03*
X166800000Y-108800000D03*
%TO.N,CH_4*%
X155025000Y-116225000D03*
X167843761Y-110000000D03*
%TO.N,CH_3*%
X154700000Y-117500000D03*
X167965665Y-109120883D03*
%TO.N,TX*%
X154700000Y-120200000D03*
X167300000Y-125600000D03*
%TO.N,TX_EXT*%
X172200000Y-127800000D03*
X173824265Y-126575735D03*
%TO.N,SWDIO*%
X169600000Y-110800000D03*
X163156434Y-114390000D03*
X171600000Y-110915000D03*
%TO.N,SWCLK*%
X169175735Y-108624265D03*
X163875735Y-113800000D03*
X170200000Y-105600000D03*
%TD*%
%TO.N,CH_5*%
D34*
X167010000Y-110590000D02*
X167243761Y-110356239D01*
X150000000Y-126700000D02*
X151750000Y-124950000D01*
X149000000Y-126700000D02*
X150000000Y-126700000D01*
X155210000Y-114790000D02*
X157890000Y-114790000D01*
X151750000Y-118250000D02*
X155210000Y-114790000D01*
X166400000Y-110590000D02*
X167010000Y-110590000D01*
X167243761Y-110356239D02*
X167243761Y-109465642D01*
X151750000Y-124950000D02*
X151750000Y-118250000D01*
%TO.N,/Led Matrix/CATH_5*%
X128700000Y-132700000D02*
X130143153Y-131256847D01*
X115256847Y-126143153D02*
X107256847Y-126143153D01*
X130143153Y-143256847D02*
X129643153Y-143256847D01*
X129643153Y-143256847D02*
X128700000Y-144200000D01*
X126143153Y-107256847D02*
X124700000Y-108700000D01*
X124700000Y-124700000D02*
X123256847Y-126143153D01*
X128700000Y-136700000D02*
X130143153Y-135256847D01*
X124700000Y-124700000D02*
X126143153Y-123256847D01*
X126143153Y-115256847D02*
X124700000Y-116700000D01*
X124700000Y-112700000D02*
X126143153Y-111256847D01*
X147000000Y-126700000D02*
X143813694Y-126700000D01*
X143813694Y-126700000D02*
X143256847Y-126143153D01*
X128700000Y-140700000D02*
X130143153Y-139256847D01*
X115256847Y-126143153D02*
X143256847Y-126143153D01*
X124700000Y-120700000D02*
X126143153Y-119256847D01*
%TO.N,/Led Matrix/CATH_9*%
X143256847Y-110143153D02*
X107256847Y-110143153D01*
X113643153Y-143256847D02*
X112700000Y-144200000D01*
X110143153Y-107256847D02*
X108643153Y-107256847D01*
X112700000Y-136700000D02*
X114143153Y-135256847D01*
X112700000Y-140700000D02*
X114143153Y-139256847D01*
X107256847Y-108643153D02*
X107256847Y-110143153D01*
X112700000Y-132700000D02*
X114143153Y-131256847D01*
X112700000Y-128700000D02*
X114143153Y-127256847D01*
X108643153Y-107256847D02*
X107256847Y-108643153D01*
X112700000Y-116700000D02*
X114143153Y-115256847D01*
X114143153Y-143256847D02*
X113643153Y-143256847D01*
X112700000Y-120700000D02*
X114143153Y-119256847D01*
X147000000Y-110700000D02*
X143813694Y-110700000D01*
X143813694Y-110700000D02*
X143256847Y-110143153D01*
X112700000Y-124700000D02*
X114143153Y-123256847D01*
%TO.N,/Led Matrix/CATH_7*%
X122143153Y-143256847D02*
X121643153Y-143256847D01*
X147000000Y-118700000D02*
X143813694Y-118700000D01*
X121643153Y-143256847D02*
X120700000Y-144200000D01*
X120700000Y-124700000D02*
X122143153Y-123256847D01*
X118143153Y-115256847D02*
X115256847Y-118143153D01*
X120700000Y-132700000D02*
X122143153Y-131256847D01*
X143813694Y-118700000D02*
X143256847Y-118143153D01*
X107256847Y-118143153D02*
X143256847Y-118143153D01*
X120700000Y-128700000D02*
X122143153Y-127256847D01*
X118143153Y-107256847D02*
X116700000Y-108700000D01*
X116700000Y-112700000D02*
X118143153Y-111256847D01*
X120700000Y-140700000D02*
X122143153Y-139256847D01*
X120700000Y-136700000D02*
X122143153Y-135256847D01*
%TO.N,/Led Matrix/CATH_2*%
X136700000Y-120700000D02*
X138143153Y-119256847D01*
X136700000Y-116700000D02*
X138143153Y-115256847D01*
X136700000Y-132700000D02*
X138143153Y-131256847D01*
X141643153Y-143256847D02*
X140700000Y-144200000D01*
X136700000Y-112700000D02*
X138143153Y-111256847D01*
X137200000Y-136200000D02*
X135256847Y-138143153D01*
X136700000Y-124700000D02*
X138143153Y-123256847D01*
X138143153Y-107256847D02*
X136700000Y-108700000D01*
X142143153Y-143256847D02*
X141643153Y-143256847D01*
X136700000Y-136700000D02*
X137200000Y-136200000D01*
X143256847Y-138143153D02*
X107256847Y-138143153D01*
X136700000Y-128700000D02*
X138143153Y-127256847D01*
X137200000Y-136200000D02*
X138143153Y-135256847D01*
X147000000Y-138700000D02*
X143813694Y-138700000D01*
X143813694Y-138700000D02*
X143256847Y-138143153D01*
%TO.N,/Led Matrix/CATH_10*%
X108700000Y-120700000D02*
X110143153Y-119256847D01*
X108700000Y-136700000D02*
X110143153Y-135256847D01*
X108700000Y-112700000D02*
X110143153Y-111256847D01*
X110700000Y-108700000D02*
X108700000Y-108700000D01*
X108700000Y-140700000D02*
X110143153Y-139256847D01*
X108700000Y-132700000D02*
X110143153Y-131256847D01*
X108700000Y-116700000D02*
X110143153Y-115256847D01*
X111256847Y-108143153D02*
X110700000Y-108700000D01*
X108700000Y-124700000D02*
X110143153Y-123256847D01*
X108700000Y-128700000D02*
X110143153Y-127256847D01*
X143813694Y-106700000D02*
X143256847Y-106143153D01*
X107256847Y-106143153D02*
X143256847Y-106143153D01*
X109200000Y-144200000D02*
X110143153Y-143256847D01*
X108700000Y-144200000D02*
X109200000Y-144200000D01*
X147000000Y-106700000D02*
X143813694Y-106700000D01*
X111256847Y-106143153D02*
X111256847Y-108143153D01*
%TO.N,/Led Matrix/CATH_11*%
X106143153Y-107256847D02*
X106143153Y-105656847D01*
X106143153Y-105656847D02*
X106600000Y-105200000D01*
X106143153Y-143256847D02*
X106143153Y-107256847D01*
X151800000Y-106800000D02*
X154400000Y-106800000D01*
X106600000Y-105200000D02*
X150200000Y-105200000D01*
X150200000Y-105200000D02*
X151800000Y-106800000D01*
%TO.N,/Led Matrix/CATH_4*%
X132700000Y-136700000D02*
X134143153Y-135256847D01*
X134143153Y-143256847D02*
X133643153Y-143256847D01*
X128700000Y-128700000D02*
X127256847Y-130143153D01*
X143256847Y-130143153D02*
X115256847Y-130143153D01*
X132700000Y-140700000D02*
X134143153Y-139256847D01*
X128700000Y-124700000D02*
X130143153Y-123256847D01*
X128700000Y-112700000D02*
X130143153Y-111256847D01*
X128700000Y-128700000D02*
X130143153Y-127256847D01*
X143813694Y-130700000D02*
X143256847Y-130143153D01*
X128700000Y-120700000D02*
X130143153Y-119256847D01*
X130143153Y-107256847D02*
X128700000Y-108700000D01*
X147000000Y-130700000D02*
X143813694Y-130700000D01*
X133643153Y-143256847D02*
X132700000Y-144200000D01*
X128700000Y-116700000D02*
X130143153Y-115256847D01*
X107256847Y-130143153D02*
X115256847Y-130143153D01*
%TO.N,VBAT*%
D35*
X162250000Y-131350000D02*
X164300000Y-133400000D01*
X165800000Y-136700000D02*
X165800000Y-133400000D01*
X166000000Y-136900000D02*
X165800000Y-136700000D01*
D34*
X171600000Y-119800000D02*
X172300000Y-119100000D01*
D35*
X164300000Y-133400000D02*
X165800000Y-133400000D01*
X162300000Y-130800000D02*
X162250000Y-130800000D01*
D34*
X171400000Y-119800000D02*
X171600000Y-119800000D01*
D35*
X161800000Y-130800000D02*
X162250000Y-130800000D01*
X162250000Y-130800000D02*
X162250000Y-131350000D01*
X158550000Y-133800000D02*
X158800000Y-133800000D01*
X158800000Y-133800000D02*
X161800000Y-130800000D01*
%TO.N,+3V3*%
D34*
X161990000Y-116390000D02*
X162610000Y-117010000D01*
D35*
X168600000Y-121150000D02*
X168950000Y-120800000D01*
X165800000Y-130875000D02*
X165800000Y-125600000D01*
X168950000Y-120800000D02*
X169200000Y-120800000D01*
D34*
X172000000Y-106400000D02*
X174000000Y-106400000D01*
D35*
X162610000Y-118510000D02*
X160800000Y-120320000D01*
D34*
X170300000Y-109500000D02*
X171300000Y-108500000D01*
X169000000Y-111490000D02*
X169000000Y-110000000D01*
X174000000Y-106400000D02*
X174729500Y-107129500D01*
D35*
X165800000Y-130875000D02*
X165800000Y-131950000D01*
X160800000Y-127000000D02*
X164675000Y-130875000D01*
X171275000Y-117900000D02*
X173200000Y-117900000D01*
X168950000Y-120800000D02*
X168950000Y-120325000D01*
X169200000Y-120800000D02*
X169800000Y-120200000D01*
X165800000Y-125600000D02*
X168600000Y-122800000D01*
X169400000Y-113400000D02*
X169400000Y-113757500D01*
D34*
X171300000Y-108500000D02*
X171300000Y-107100000D01*
D35*
X171400000Y-120825000D02*
X171975000Y-120825000D01*
X171175000Y-118000000D02*
X171200000Y-118025000D01*
D34*
X169000000Y-110000000D02*
X169500000Y-109500000D01*
D35*
X164675000Y-130875000D02*
X165800000Y-130875000D01*
D34*
X160790000Y-116390000D02*
X161990000Y-116390000D01*
D35*
X160800000Y-120320000D02*
X160800000Y-127000000D01*
X171025000Y-115200000D02*
X171025000Y-116800000D01*
D34*
X169400000Y-111890000D02*
X169000000Y-111490000D01*
X169500000Y-109500000D02*
X170300000Y-109500000D01*
X169310000Y-111800000D02*
X166410000Y-111800000D01*
D35*
X171200000Y-118025000D02*
X171200000Y-119075000D01*
D34*
X171300000Y-107100000D02*
X172000000Y-106400000D01*
X166410000Y-111800000D02*
X166400000Y-111790000D01*
X174729500Y-107129500D02*
X174729500Y-107895000D01*
D35*
X171175000Y-118000000D02*
X171275000Y-117900000D01*
X169400000Y-113400000D02*
X169400000Y-111890000D01*
X168600000Y-122800000D02*
X168600000Y-121150000D01*
X173200000Y-117900000D02*
X173600000Y-118300000D01*
X171975000Y-120825000D02*
X173575000Y-119225000D01*
X171025000Y-116800000D02*
X171025000Y-117850000D01*
X171025000Y-117850000D02*
X171175000Y-118000000D01*
X173600000Y-118300000D02*
X173600000Y-119225000D01*
X169400000Y-113757500D02*
X170842500Y-115200000D01*
X162610000Y-117010000D02*
X162610000Y-118510000D01*
%TO.N,/Led Matrix/CATH_8*%
D34*
X143813694Y-114700000D02*
X143256847Y-114143153D01*
X107256847Y-114143153D02*
X143256847Y-114143153D01*
X116700000Y-124700000D02*
X118143153Y-123256847D01*
X116700000Y-132700000D02*
X118143153Y-131256847D01*
X118143153Y-143256847D02*
X117643153Y-143256847D01*
X112700000Y-112700000D02*
X111256847Y-114143153D01*
X114143153Y-107256847D02*
X112700000Y-108700000D01*
X116700000Y-128700000D02*
X118143153Y-127256847D01*
X147000000Y-114700000D02*
X143813694Y-114700000D01*
X116700000Y-140700000D02*
X118143153Y-139256847D01*
X116700000Y-136700000D02*
X118143153Y-135256847D01*
X112700000Y-112700000D02*
X114143153Y-111256847D01*
X117643153Y-143256847D02*
X116700000Y-144200000D01*
X118143153Y-119256847D02*
X116700000Y-120700000D01*
%TO.N,RX_EXT*%
X173800000Y-127400000D02*
X172200000Y-125800000D01*
X170800000Y-133800000D02*
X171675000Y-133800000D01*
X170400000Y-106834314D02*
X170400000Y-107351473D01*
X174600000Y-118400000D02*
X174600000Y-123400000D01*
X172400000Y-116200000D02*
X174600000Y-118400000D01*
X170400000Y-106834314D02*
X171434314Y-105800000D01*
X175079500Y-109165000D02*
X175779500Y-108465000D01*
X171600000Y-109800000D02*
X172400000Y-110600000D01*
X175779500Y-107179500D02*
X174400000Y-105800000D01*
X175779500Y-108465000D02*
X175779500Y-107179500D01*
X173800000Y-131675000D02*
X173800000Y-127400000D01*
X172400000Y-110600000D02*
X172400000Y-116200000D01*
X174400000Y-105800000D02*
X171434314Y-105800000D01*
X171675000Y-133800000D02*
X173800000Y-131675000D01*
X174600000Y-123400000D02*
X172200000Y-125800000D01*
%TO.N,RX*%
X156500000Y-117700000D02*
X156400000Y-117600000D01*
X159824265Y-107648529D02*
X159824265Y-107375736D01*
X169600000Y-124600000D02*
X168000000Y-124600000D01*
X159824265Y-107375736D02*
X159099998Y-106651470D01*
X156400000Y-117600000D02*
X157610000Y-116390000D01*
X159099998Y-106651470D02*
X157900000Y-106651470D01*
X162365736Y-110190000D02*
X159824265Y-107648529D01*
X163500000Y-110190000D02*
X162365736Y-110190000D01*
X157610000Y-116390000D02*
X157890000Y-116390000D01*
X170200000Y-125200000D02*
X169600000Y-124600000D01*
%TO.N,/Led Matrix/CATH_3*%
X137643153Y-143256847D02*
X136700000Y-144200000D01*
X143813694Y-134700000D02*
X143256847Y-134143153D01*
X136700000Y-140700000D02*
X138143153Y-139256847D01*
X132700000Y-128700000D02*
X134143153Y-127256847D01*
X138143153Y-143256847D02*
X137643153Y-143256847D01*
X132700000Y-132700000D02*
X131256847Y-134143153D01*
X132700000Y-124700000D02*
X134143153Y-123256847D01*
X132700000Y-132700000D02*
X134143153Y-131256847D01*
X107256847Y-134143153D02*
X143256847Y-134143153D01*
X134143153Y-107256847D02*
X132700000Y-108700000D01*
X132700000Y-112700000D02*
X134143153Y-111256847D01*
X134143153Y-119256847D02*
X132700000Y-120700000D01*
X147000000Y-134700000D02*
X143813694Y-134700000D01*
X134143153Y-115256847D02*
X132700000Y-116700000D01*
%TO.N,/Led Matrix/CATH_1*%
X140700000Y-116700000D02*
X142143153Y-115256847D01*
X140700000Y-136700000D02*
X142143153Y-135256847D01*
X147000000Y-142700000D02*
X143813694Y-142700000D01*
X142143153Y-107256847D02*
X140700000Y-108700000D01*
X143813694Y-142700000D02*
X143256847Y-142143153D01*
X140700000Y-120700000D02*
X142143153Y-119256847D01*
X140700000Y-140700000D02*
X142143153Y-139256847D01*
X140700000Y-132700000D02*
X142143153Y-131256847D01*
X140700000Y-128700000D02*
X142143153Y-127256847D01*
X140700000Y-112700000D02*
X142143153Y-111256847D01*
X143256847Y-142143153D02*
X107256847Y-142143153D01*
X140700000Y-124700000D02*
X142143153Y-123256847D01*
X140700000Y-140700000D02*
X139256847Y-142143153D01*
%TO.N,/Led Matrix/CATH_6*%
X126143153Y-143256847D02*
X125643153Y-143256847D01*
X124700000Y-128700000D02*
X126143153Y-127256847D01*
X147000000Y-122700000D02*
X143813694Y-122700000D01*
X120700000Y-116700000D02*
X122143153Y-115256847D01*
X120700000Y-112700000D02*
X122143153Y-111256847D01*
X143256847Y-122143153D02*
X107256847Y-122143153D01*
X143813694Y-122700000D02*
X143256847Y-122143153D01*
X122143153Y-107256847D02*
X120700000Y-108700000D01*
X124700000Y-136700000D02*
X126143153Y-135256847D01*
X125643153Y-143256847D02*
X124700000Y-144200000D01*
X124700000Y-140700000D02*
X126143153Y-139256847D01*
X120700000Y-120700000D02*
X119256847Y-122143153D01*
X124700000Y-132700000D02*
X126143153Y-131256847D01*
X120700000Y-120700000D02*
X122143153Y-119256847D01*
%TO.N,SCL*%
X162434315Y-115000000D02*
X161600000Y-115000000D01*
X163761471Y-114990000D02*
X162444314Y-114990000D01*
X167326473Y-116400000D02*
X165800000Y-116400000D01*
X165800000Y-116400000D02*
X165000000Y-115600000D01*
X161410000Y-115190000D02*
X160790000Y-115190000D01*
X169675000Y-119075000D02*
X169675000Y-117100000D01*
X162444314Y-114990000D02*
X162434315Y-115000000D01*
X165000000Y-115200000D02*
X164550000Y-114750000D01*
X168800000Y-117375000D02*
X169375000Y-116800000D01*
X161600000Y-115000000D02*
X161410000Y-115190000D01*
X168800000Y-117599997D02*
X168800000Y-117375000D01*
X167424265Y-117224265D02*
X167424265Y-116497792D01*
X167424265Y-116497792D02*
X167326473Y-116400000D01*
X165000000Y-115600000D02*
X165000000Y-115200000D01*
X164550000Y-112440000D02*
X164550000Y-114750000D01*
X169675000Y-117100000D02*
X169375000Y-116800000D01*
X164001471Y-114750000D02*
X163761471Y-114990000D01*
X164550000Y-114750000D02*
X164001471Y-114750000D01*
%TO.N,GND*%
X159740000Y-117040000D02*
X159740000Y-115990000D01*
X159940000Y-118600000D02*
X159740000Y-118400000D01*
X173000000Y-115900000D02*
X173000000Y-113391471D01*
X171417595Y-114217595D02*
X170950000Y-113750000D01*
X170950000Y-113750000D02*
X170950000Y-113400000D01*
D35*
X156600000Y-131000000D02*
X156600000Y-131600000D01*
D34*
X167875735Y-114875735D02*
X167875735Y-112675735D01*
X170477456Y-120788915D02*
X170477456Y-121002024D01*
X170250000Y-120950000D02*
X169924568Y-120950000D01*
X170411085Y-120788915D02*
X170250000Y-120950000D01*
X168263235Y-115463235D02*
X168263235Y-115263235D01*
X169924568Y-120950000D02*
X169700000Y-121174568D01*
X159740000Y-118400000D02*
X159740000Y-115990000D01*
X170950000Y-111890000D02*
X170950000Y-113400000D01*
X164160000Y-118510000D02*
X164160000Y-117010000D01*
D35*
X156600000Y-137450000D02*
X156600000Y-138000000D01*
D34*
X168263235Y-115263235D02*
X167875735Y-114875735D01*
X164160000Y-118510000D02*
X164710000Y-118510000D01*
X173000000Y-113391471D02*
X173191471Y-113200000D01*
X171417595Y-114249904D02*
X171417595Y-114217595D01*
X170675000Y-121199568D02*
X170675000Y-121525000D01*
X170477456Y-120788915D02*
X170411085Y-120788915D01*
X174729500Y-112670500D02*
X174729500Y-111705000D01*
X174200000Y-113200000D02*
X174729500Y-112670500D01*
X169700000Y-121174568D02*
X169700000Y-121500000D01*
X164710000Y-118510000D02*
X164800000Y-118600000D01*
X170477456Y-121002024D02*
X170675000Y-121199568D01*
X173191471Y-113200000D02*
X174200000Y-113200000D01*
X159940000Y-119000000D02*
X159940000Y-118600000D01*
X169175000Y-118775000D02*
X168800000Y-118400000D01*
X169175000Y-119075000D02*
X169175000Y-118775000D01*
X173600000Y-120775000D02*
X173600000Y-121400000D01*
%TO.N,SDA*%
X169375000Y-115200000D02*
X168211765Y-116363235D01*
X164223532Y-115423532D02*
X164190000Y-115390000D01*
X168950000Y-119800000D02*
X168200000Y-119050000D01*
X167324265Y-115475735D02*
X165724262Y-115475735D01*
X162610000Y-115390000D02*
X162410000Y-115590000D01*
X162410000Y-115590000D02*
X160790000Y-115590000D01*
X164190000Y-115390000D02*
X162610000Y-115390000D01*
X165724262Y-115475735D02*
X165648527Y-115400000D01*
X168200000Y-116400000D02*
X169375000Y-115225000D01*
X169300000Y-115125000D02*
X169375000Y-115200000D01*
X165648527Y-115400000D02*
X165648527Y-115065684D01*
X168200000Y-119050000D02*
X168200000Y-116400000D01*
X165648527Y-115065684D02*
X164950000Y-114367157D01*
X169300000Y-114600000D02*
X169300000Y-115125000D01*
X168211765Y-116363235D02*
X167324265Y-115475735D01*
X164950000Y-114367157D02*
X164950000Y-112440000D01*
%TO.N,Net-(U2-INT1)*%
X170175000Y-122375000D02*
X170200000Y-122400000D01*
X170175000Y-121525000D02*
X170175000Y-122375000D01*
X167800000Y-121818522D02*
X167181478Y-121200000D01*
X167181478Y-121200000D02*
X165000000Y-121200000D01*
%TO.N,CH_9*%
X149000000Y-110700000D02*
X158950000Y-110700000D01*
X162200000Y-107400000D02*
X164000000Y-107400000D01*
X159740000Y-111490000D02*
X159740000Y-114140000D01*
X164000000Y-107400000D02*
X164950000Y-108350000D01*
X164950000Y-108350000D02*
X164950000Y-109540000D01*
X158950000Y-110700000D02*
X159740000Y-111490000D01*
%TO.N,NRST*%
X157200000Y-118400000D02*
X158540000Y-117060000D01*
%TO.N,CH_2*%
X158540000Y-119200000D02*
X157100000Y-119200000D01*
X165350000Y-113059403D02*
X165350000Y-112440000D01*
X157100000Y-119200000D02*
X154400000Y-121900000D01*
X158940000Y-117040000D02*
X158940000Y-118800000D01*
X154400000Y-121900000D02*
X154400000Y-134200000D01*
X158940000Y-118800000D02*
X158740000Y-119000000D01*
X158740000Y-119000000D02*
X158540000Y-119200000D01*
X154400000Y-134200000D02*
X149900000Y-138700000D01*
X149900000Y-138700000D02*
X149000000Y-138700000D01*
X165734358Y-113443761D02*
X165350000Y-113059403D01*
%TO.N,CH_1*%
X155400000Y-137200000D02*
X149900000Y-142700000D01*
X159340000Y-117040000D02*
X159340000Y-119800000D01*
X166811397Y-114788602D02*
X166811397Y-113501397D01*
X155400000Y-123000000D02*
X155400000Y-137200000D01*
X166811397Y-113501397D02*
X165750000Y-112440000D01*
X159340000Y-119800000D02*
X158600000Y-119800000D01*
X149900000Y-142700000D02*
X149000000Y-142700000D01*
X166724264Y-114875735D02*
X166811397Y-114788602D01*
X158600000Y-119800000D02*
X155400000Y-123000000D01*
%TO.N,BTN1*%
X160140000Y-117940000D02*
X160800000Y-118600000D01*
X161600000Y-113600000D02*
X161600000Y-111400000D01*
D35*
X158550000Y-131300000D02*
X158550000Y-130800000D01*
D34*
X158550000Y-130800000D02*
X157800000Y-130800000D01*
X156400000Y-124200000D02*
X156400000Y-129400000D01*
X160800000Y-117600000D02*
X160800000Y-118600000D01*
X160200000Y-119600000D02*
X160200000Y-120400000D01*
X160200000Y-120400000D02*
X156400000Y-124200000D01*
X157800000Y-130800000D02*
X156400000Y-129400000D01*
X162010000Y-110990000D02*
X163500000Y-110990000D01*
X160800000Y-119000000D02*
X160200000Y-119600000D01*
X160800000Y-118600000D02*
X160800000Y-119000000D01*
X161600000Y-111400000D02*
X162010000Y-110990000D01*
D35*
X156600000Y-133250000D02*
X158550000Y-131300000D01*
D34*
X162357108Y-114357108D02*
X161600000Y-113600000D01*
X160140000Y-117040000D02*
X160140000Y-117940000D01*
%TO.N,EN*%
X165000000Y-119800000D02*
X165800000Y-119000000D01*
X159600000Y-108497056D02*
X161692944Y-110590000D01*
X159200000Y-107800000D02*
X159600000Y-108200000D01*
X163092847Y-115990000D02*
X160790000Y-115990000D01*
X161692944Y-110590000D02*
X163500000Y-110590000D01*
X163000000Y-120300000D02*
X163500000Y-119800000D01*
X163384999Y-116282152D02*
X163092847Y-115990000D01*
X159600000Y-108200000D02*
X159600000Y-108497056D01*
D35*
X163800000Y-123600000D02*
X163000000Y-122800000D01*
D34*
X159200000Y-107600000D02*
X159200000Y-107800000D01*
X163500000Y-119800000D02*
X165000000Y-119800000D01*
D35*
X160250000Y-135800000D02*
X162250000Y-133800000D01*
D34*
X165800000Y-119000000D02*
X165800000Y-117200000D01*
D35*
X156600000Y-135800000D02*
X160250000Y-135800000D01*
X162250000Y-133050000D02*
X162500000Y-132800000D01*
D34*
X163000000Y-121200000D02*
X163048529Y-121200000D01*
D35*
X163000000Y-122800000D02*
X163000000Y-121200000D01*
D34*
X163000000Y-121200000D02*
X163000000Y-120300000D01*
D35*
X163800000Y-126600000D02*
X163800000Y-123600000D01*
X162250000Y-133800000D02*
X162250000Y-133050000D01*
%TO.N,CH_11*%
D34*
X160790000Y-110390000D02*
X157200000Y-106800000D01*
X165750000Y-107350000D02*
X164400000Y-106000000D01*
X157200000Y-106000000D02*
X156400000Y-106800000D01*
X165750000Y-109540000D02*
X165750000Y-107350000D01*
X157200000Y-106800000D02*
X156400000Y-106800000D01*
X164400000Y-106000000D02*
X157200000Y-106000000D01*
X160790000Y-114790000D02*
X160790000Y-110390000D01*
%TO.N,CH_10*%
X161000000Y-107400000D02*
X161800000Y-106600000D01*
X150000000Y-106700000D02*
X151200000Y-107900000D01*
X152000000Y-109600000D02*
X159000000Y-109600000D01*
X165350000Y-107950000D02*
X165350000Y-109540000D01*
X161800000Y-106600000D02*
X164000000Y-106600000D01*
X160140000Y-110740000D02*
X160140000Y-114140000D01*
X159000000Y-109600000D02*
X160140000Y-110740000D01*
X149000000Y-106700000D02*
X150000000Y-106700000D01*
X160424265Y-107400000D02*
X161000000Y-107400000D01*
X151200000Y-107900000D02*
X151200000Y-108800000D01*
X151200000Y-108800000D02*
X152000000Y-109600000D01*
X164000000Y-106600000D02*
X165350000Y-107950000D01*
%TO.N,CH_8*%
X158750000Y-111750000D02*
X159340000Y-112340000D01*
X150050000Y-114700000D02*
X153000000Y-111750000D01*
X153000000Y-111750000D02*
X158750000Y-111750000D01*
X161800000Y-108400000D02*
X162400000Y-108400000D01*
X159340000Y-112340000D02*
X159340000Y-114140000D01*
X149000000Y-114700000D02*
X150050000Y-114700000D01*
X162700000Y-108100000D02*
X163700000Y-108100000D01*
X162400000Y-108400000D02*
X162700000Y-108100000D01*
X164550000Y-108950000D02*
X164550000Y-109540000D01*
X163700000Y-108100000D02*
X164550000Y-108950000D01*
X161624265Y-108224265D02*
X161800000Y-108400000D01*
%TO.N,CH_7*%
X162200000Y-109000000D02*
X162600000Y-109400000D01*
X162151473Y-109000000D02*
X162200000Y-109000000D01*
X155000000Y-112500000D02*
X149000000Y-118500000D01*
X164010000Y-109400000D02*
X164150000Y-109540000D01*
X158940000Y-114140000D02*
X158940000Y-112940000D01*
X162600000Y-109400000D02*
X164010000Y-109400000D01*
X155000000Y-112500000D02*
X158500000Y-112500000D01*
X158940000Y-112940000D02*
X158500000Y-112500000D01*
%TO.N,CH_6*%
X166400000Y-109200000D02*
X166800000Y-108800000D01*
X151000000Y-117750000D02*
X151000000Y-121750000D01*
X166400000Y-110190000D02*
X166400000Y-109200000D01*
X155500000Y-113250000D02*
X158219994Y-113250000D01*
X150050000Y-122700000D02*
X149000000Y-122700000D01*
X151000000Y-121750000D02*
X150050000Y-122700000D01*
X158540000Y-113570006D02*
X158219994Y-113250000D01*
X158540000Y-114140000D02*
X158540000Y-113570006D01*
X155500000Y-113250000D02*
X151000000Y-117750000D01*
%TO.N,CH_4*%
X167843761Y-110321925D02*
X167843761Y-110000000D01*
X166400000Y-110990000D02*
X167175686Y-110990000D01*
X157890000Y-115190000D02*
X156060000Y-115190000D01*
X156060000Y-115190000D02*
X152600000Y-118650000D01*
X149900000Y-130700000D02*
X149000000Y-130700000D01*
X152600000Y-118650000D02*
X152600000Y-128000000D01*
X152600000Y-128000000D02*
X149900000Y-130700000D01*
X167175686Y-110990000D02*
X167843761Y-110321925D01*
%TO.N,CH_3*%
X157890000Y-115590000D02*
X156610000Y-115590000D01*
X153400000Y-131200000D02*
X149900000Y-134700000D01*
X153400000Y-118800000D02*
X153400000Y-131200000D01*
X167617846Y-111390000D02*
X166400000Y-111390000D01*
X168500000Y-109719474D02*
X168500000Y-110507846D01*
X156610000Y-115590000D02*
X153400000Y-118800000D01*
X168500000Y-110507846D02*
X167617846Y-111390000D01*
X167965665Y-109185139D02*
X168500000Y-109719474D01*
X149900000Y-134700000D02*
X149000000Y-134700000D01*
X167965665Y-109120883D02*
X167965665Y-109185139D01*
%TO.N,TX*%
X154700000Y-120100000D02*
X155351473Y-119448527D01*
X154700000Y-120200000D02*
X154700000Y-120100000D01*
X167300000Y-125600000D02*
X168000000Y-125600000D01*
X155351473Y-119448527D02*
X155351473Y-117848527D01*
X155351473Y-117848527D02*
X157210000Y-115990000D01*
X168000000Y-125600000D02*
X170200000Y-127800000D01*
X157210000Y-115990000D02*
X157890000Y-115990000D01*
%TO.N,TX_EXT*%
X173000000Y-131200000D02*
X173000000Y-128600000D01*
X170800000Y-131800000D02*
X172400000Y-131800000D01*
X175779500Y-111415051D02*
X175779500Y-112309029D01*
X172400000Y-131800000D02*
X173000000Y-131200000D01*
X175200000Y-112888529D02*
X175200000Y-125200000D01*
X173000000Y-128600000D02*
X172200000Y-127800000D01*
X174799449Y-110435000D02*
X175779500Y-111415051D01*
X175200000Y-125200000D02*
X173824265Y-126575735D01*
X175779500Y-112309029D02*
X175200000Y-112888529D01*
%TO.N,SWDIO*%
X163156434Y-114390000D02*
X163231300Y-114315134D01*
X163231300Y-114315134D02*
X163231300Y-113824265D01*
X171485000Y-110800000D02*
X169600000Y-110800000D01*
X171600000Y-110915000D02*
X171485000Y-110800000D01*
X162794320Y-111390000D02*
X163500000Y-111390000D01*
X162400000Y-111784320D02*
X162794320Y-111390000D01*
X162400000Y-112992965D02*
X162400000Y-111784320D01*
X163231300Y-113824265D02*
X162400000Y-112992965D01*
%TO.N,SWCLK*%
X169200000Y-106000000D02*
X169600000Y-105600000D01*
X164150000Y-113525735D02*
X163875735Y-113800000D01*
X169200000Y-108600000D02*
X169200000Y-106000000D01*
X169600000Y-105600000D02*
X170200000Y-105600000D01*
X164150000Y-112440000D02*
X164150000Y-113525735D01*
X169175735Y-108624265D02*
X169200000Y-108600000D01*
%TD*%
%TA.AperFunction,Conductor*%
%TO.N,GND*%
G36*
X175776093Y-125529402D02*
G01*
X175803287Y-125527780D01*
X175810440Y-125531796D01*
X175818624Y-125532367D01*
X175840460Y-125548652D01*
X175864210Y-125561987D01*
X175868055Y-125569231D01*
X175874633Y-125574137D01*
X175884198Y-125599643D01*
X175896969Y-125623701D01*
X175898360Y-125637404D01*
X175899168Y-125639558D01*
X175898767Y-125641414D01*
X175899500Y-125648627D01*
X175899500Y-140197293D01*
X175899382Y-140202702D01*
X175882614Y-140586751D01*
X175881671Y-140597527D01*
X175831850Y-140975955D01*
X175829972Y-140986609D01*
X175747353Y-141359275D01*
X175744553Y-141369723D01*
X175629775Y-141733755D01*
X175626075Y-141743921D01*
X175480002Y-142096572D01*
X175475430Y-142106376D01*
X175299183Y-142444942D01*
X175293775Y-142454310D01*
X175088681Y-142776244D01*
X175082476Y-142785105D01*
X174850110Y-143087930D01*
X174843156Y-143096217D01*
X174585284Y-143377635D01*
X174577635Y-143385284D01*
X174296217Y-143643156D01*
X174287930Y-143650110D01*
X173985105Y-143882476D01*
X173976244Y-143888681D01*
X173654310Y-144093775D01*
X173644942Y-144099183D01*
X173306376Y-144275430D01*
X173296572Y-144280002D01*
X172943921Y-144426075D01*
X172933755Y-144429775D01*
X172569723Y-144544553D01*
X172559275Y-144547353D01*
X172186609Y-144629972D01*
X172175955Y-144631850D01*
X171797527Y-144681671D01*
X171786751Y-144682614D01*
X171402703Y-144699382D01*
X171397294Y-144699500D01*
X143924000Y-144699500D01*
X143856961Y-144679815D01*
X143811206Y-144627011D01*
X143800000Y-144575500D01*
X143800000Y-143424500D01*
X143819685Y-143357461D01*
X143872489Y-143311706D01*
X143924000Y-143300500D01*
X145819699Y-143300500D01*
X145886738Y-143320185D01*
X145932493Y-143372989D01*
X145937403Y-143385492D01*
X145965186Y-143469334D01*
X146057288Y-143618656D01*
X146181344Y-143742712D01*
X146330666Y-143834814D01*
X146497203Y-143889999D01*
X146599991Y-143900500D01*
X147400008Y-143900499D01*
X147400016Y-143900498D01*
X147400019Y-143900498D01*
X147456302Y-143894748D01*
X147502797Y-143889999D01*
X147669334Y-143834814D01*
X147818656Y-143742712D01*
X147912319Y-143649049D01*
X147973642Y-143615564D01*
X148043334Y-143620548D01*
X148087681Y-143649049D01*
X148181344Y-143742712D01*
X148330666Y-143834814D01*
X148497203Y-143889999D01*
X148599991Y-143900500D01*
X149400008Y-143900499D01*
X149400016Y-143900498D01*
X149400019Y-143900498D01*
X149456302Y-143894748D01*
X149502797Y-143889999D01*
X149669334Y-143834814D01*
X149818656Y-143742712D01*
X149942712Y-143618656D01*
X150034814Y-143469334D01*
X150082982Y-143323972D01*
X150098473Y-143301597D01*
X150110943Y-143277409D01*
X150120334Y-143270022D01*
X150122754Y-143266529D01*
X150138675Y-143255598D01*
X150181904Y-143230639D01*
X150268716Y-143180520D01*
X150380520Y-143068716D01*
X150380520Y-143068714D01*
X150390728Y-143058507D01*
X150390729Y-143058504D01*
X154197099Y-139252135D01*
X157674500Y-139252135D01*
X157674500Y-140347870D01*
X157674501Y-140347876D01*
X157680908Y-140407483D01*
X157731202Y-140542328D01*
X157731206Y-140542335D01*
X157817452Y-140657544D01*
X157817455Y-140657547D01*
X157932664Y-140743793D01*
X157932671Y-140743797D01*
X158067517Y-140794091D01*
X158067516Y-140794091D01*
X158074444Y-140794835D01*
X158127127Y-140800500D01*
X158972872Y-140800499D01*
X159032483Y-140794091D01*
X159167331Y-140743796D01*
X159282546Y-140657546D01*
X159368796Y-140542331D01*
X159419091Y-140407483D01*
X159425500Y-140347873D01*
X159425499Y-139252135D01*
X161374500Y-139252135D01*
X161374500Y-140347870D01*
X161374501Y-140347876D01*
X161380908Y-140407483D01*
X161431202Y-140542328D01*
X161431206Y-140542335D01*
X161517452Y-140657544D01*
X161517455Y-140657547D01*
X161632664Y-140743793D01*
X161632671Y-140743797D01*
X161767517Y-140794091D01*
X161767516Y-140794091D01*
X161774444Y-140794835D01*
X161827127Y-140800500D01*
X162672872Y-140800499D01*
X162732483Y-140794091D01*
X162867331Y-140743796D01*
X162982546Y-140657546D01*
X163068796Y-140542331D01*
X163119091Y-140407483D01*
X163125500Y-140347873D01*
X163125500Y-140049223D01*
X169099500Y-140049223D01*
X169099500Y-140350776D01*
X169099501Y-140350793D01*
X169138861Y-140649766D01*
X169216913Y-140941060D01*
X169332314Y-141219661D01*
X169332318Y-141219671D01*
X169483099Y-141480831D01*
X169666679Y-141720078D01*
X169666685Y-141720085D01*
X169879914Y-141933314D01*
X169879921Y-141933320D01*
X170119168Y-142116900D01*
X170380328Y-142267681D01*
X170380329Y-142267681D01*
X170380332Y-142267683D01*
X170566072Y-142344619D01*
X170658939Y-142383086D01*
X170658940Y-142383086D01*
X170658942Y-142383087D01*
X170950232Y-142461138D01*
X171249217Y-142500500D01*
X171249224Y-142500500D01*
X171550776Y-142500500D01*
X171550783Y-142500500D01*
X171849768Y-142461138D01*
X172141058Y-142383087D01*
X172419668Y-142267683D01*
X172680832Y-142116900D01*
X172920080Y-141933319D01*
X173133319Y-141720080D01*
X173316900Y-141480832D01*
X173467683Y-141219668D01*
X173583087Y-140941058D01*
X173661138Y-140649768D01*
X173700500Y-140350783D01*
X173700500Y-140049217D01*
X173661138Y-139750232D01*
X173583087Y-139458942D01*
X173467683Y-139180332D01*
X173397347Y-139058507D01*
X173316900Y-138919168D01*
X173133320Y-138679921D01*
X173133314Y-138679914D01*
X172920085Y-138466685D01*
X172920078Y-138466679D01*
X172680831Y-138283099D01*
X172419671Y-138132318D01*
X172419661Y-138132314D01*
X172141060Y-138016913D01*
X171849766Y-137938861D01*
X171550793Y-137899501D01*
X171550788Y-137899500D01*
X171550783Y-137899500D01*
X171249217Y-137899500D01*
X171249211Y-137899500D01*
X171249206Y-137899501D01*
X170950233Y-137938861D01*
X170658939Y-138016913D01*
X170380338Y-138132314D01*
X170380328Y-138132318D01*
X170119168Y-138283099D01*
X169879921Y-138466679D01*
X169879914Y-138466685D01*
X169666685Y-138679914D01*
X169666679Y-138679921D01*
X169483099Y-138919168D01*
X169332318Y-139180328D01*
X169332314Y-139180338D01*
X169216913Y-139458939D01*
X169138861Y-139750233D01*
X169099501Y-140049206D01*
X169099500Y-140049223D01*
X163125500Y-140049223D01*
X163125499Y-139750233D01*
X163125499Y-139252129D01*
X163125498Y-139252123D01*
X163125497Y-139252116D01*
X163119091Y-139192517D01*
X163114616Y-139180520D01*
X163068797Y-139057671D01*
X163068793Y-139057664D01*
X162982547Y-138942455D01*
X162982544Y-138942452D01*
X162867335Y-138856206D01*
X162867328Y-138856202D01*
X162732482Y-138805908D01*
X162732483Y-138805908D01*
X162672883Y-138799501D01*
X162672881Y-138799500D01*
X162672873Y-138799500D01*
X162672864Y-138799500D01*
X161827129Y-138799500D01*
X161827123Y-138799501D01*
X161767516Y-138805908D01*
X161632671Y-138856202D01*
X161632664Y-138856206D01*
X161517455Y-138942452D01*
X161517452Y-138942455D01*
X161431206Y-139057664D01*
X161431202Y-139057671D01*
X161380908Y-139192517D01*
X161376810Y-139230639D01*
X161374501Y-139252123D01*
X161374500Y-139252135D01*
X159425499Y-139252135D01*
X159425499Y-139252128D01*
X159419091Y-139192517D01*
X159414616Y-139180520D01*
X159368797Y-139057671D01*
X159368793Y-139057664D01*
X159282547Y-138942455D01*
X159282544Y-138942452D01*
X159167335Y-138856206D01*
X159167328Y-138856202D01*
X159032482Y-138805908D01*
X159032483Y-138805908D01*
X158972883Y-138799501D01*
X158972881Y-138799500D01*
X158972873Y-138799500D01*
X158972864Y-138799500D01*
X158127129Y-138799500D01*
X158127123Y-138799501D01*
X158067516Y-138805908D01*
X157932671Y-138856202D01*
X157932664Y-138856206D01*
X157817455Y-138942452D01*
X157817452Y-138942455D01*
X157731206Y-139057664D01*
X157731202Y-139057671D01*
X157680908Y-139192517D01*
X157676810Y-139230639D01*
X157674501Y-139252123D01*
X157674500Y-139252135D01*
X154197099Y-139252135D01*
X155505211Y-137944024D01*
X155566530Y-137910542D01*
X155636222Y-137915526D01*
X155692155Y-137957398D01*
X155699005Y-137967558D01*
X155769927Y-138084877D01*
X155890122Y-138205072D01*
X156035604Y-138293019D01*
X156035603Y-138293019D01*
X156197894Y-138343590D01*
X156197892Y-138343590D01*
X156268418Y-138349999D01*
X156850000Y-138349999D01*
X156931581Y-138349999D01*
X157002102Y-138343591D01*
X157002107Y-138343590D01*
X157164396Y-138293018D01*
X157309877Y-138205072D01*
X157430072Y-138084877D01*
X157518019Y-137939395D01*
X157518021Y-137939392D01*
X157568590Y-137777106D01*
X157575000Y-137706572D01*
X157575000Y-137700000D01*
X156850000Y-137700000D01*
X156850000Y-138349999D01*
X156268418Y-138349999D01*
X156349999Y-138349998D01*
X156350000Y-138349998D01*
X156350000Y-137574000D01*
X156369685Y-137506961D01*
X156422489Y-137461206D01*
X156474000Y-137450000D01*
X156600000Y-137450000D01*
X156600000Y-137324000D01*
X156619685Y-137256961D01*
X156672489Y-137211206D01*
X156724000Y-137200000D01*
X157574999Y-137200000D01*
X157574999Y-137193417D01*
X157568591Y-137122897D01*
X157568590Y-137122892D01*
X157518018Y-136960603D01*
X157430072Y-136815122D01*
X157327984Y-136713034D01*
X157323645Y-136705088D01*
X157316397Y-136699662D01*
X157307162Y-136674902D01*
X157294499Y-136651711D01*
X157295144Y-136642680D01*
X157291981Y-136634198D01*
X157297597Y-136608377D01*
X157299483Y-136582019D01*
X157305301Y-136572965D01*
X157306833Y-136565925D01*
X157327982Y-136537674D01*
X157378839Y-136486818D01*
X157440162Y-136453334D01*
X157466519Y-136450500D01*
X160314071Y-136450500D01*
X160398615Y-136433682D01*
X160439744Y-136425501D01*
X160558127Y-136376465D01*
X160664669Y-136305277D01*
X162133126Y-134836817D01*
X162194449Y-134803333D01*
X162220807Y-134800499D01*
X162672871Y-134800499D01*
X162672872Y-134800499D01*
X162732483Y-134794091D01*
X162867331Y-134743796D01*
X162982546Y-134657546D01*
X163068796Y-134542331D01*
X163119091Y-134407483D01*
X163125500Y-134347873D01*
X163125499Y-133444806D01*
X163145183Y-133377768D01*
X163197987Y-133332013D01*
X163267146Y-133322069D01*
X163330702Y-133351094D01*
X163337180Y-133357126D01*
X163885325Y-133905272D01*
X163885332Y-133905278D01*
X163957360Y-133953405D01*
X163957363Y-133953406D01*
X163957367Y-133953409D01*
X163991873Y-133976465D01*
X164110256Y-134025501D01*
X164110260Y-134025501D01*
X164110261Y-134025502D01*
X164235928Y-134050500D01*
X164235931Y-134050500D01*
X164484239Y-134050500D01*
X164551278Y-134070185D01*
X164588554Y-134107461D01*
X164667965Y-134231027D01*
X164667971Y-134231034D01*
X164750787Y-134302795D01*
X164776706Y-134325254D01*
X164817174Y-134343735D01*
X164907580Y-134385023D01*
X164907583Y-134385023D01*
X164907584Y-134385024D01*
X165043147Y-134404514D01*
X165106702Y-134433538D01*
X165144477Y-134492316D01*
X165149500Y-134527252D01*
X165149500Y-136764070D01*
X165160855Y-136821155D01*
X165163795Y-136835931D01*
X165174499Y-136889744D01*
X165192668Y-136933609D01*
X165194572Y-136940157D01*
X165194545Y-136949857D01*
X165199500Y-136974766D01*
X165199500Y-136978846D01*
X165230261Y-137133489D01*
X165230264Y-137133501D01*
X165290602Y-137279172D01*
X165290609Y-137279185D01*
X165378210Y-137410288D01*
X165378213Y-137410292D01*
X165489707Y-137521786D01*
X165489711Y-137521789D01*
X165620814Y-137609390D01*
X165620827Y-137609397D01*
X165766498Y-137669735D01*
X165766503Y-137669737D01*
X165893322Y-137694963D01*
X165921153Y-137700499D01*
X165921156Y-137700500D01*
X165921158Y-137700500D01*
X166078844Y-137700500D01*
X166078845Y-137700499D01*
X166233497Y-137669737D01*
X166379179Y-137609394D01*
X166510289Y-137521789D01*
X166621789Y-137410289D01*
X166709394Y-137279179D01*
X166769737Y-137133497D01*
X166800500Y-136978842D01*
X166800500Y-136821158D01*
X166800500Y-136821155D01*
X166800499Y-136821153D01*
X166789144Y-136764069D01*
X166769737Y-136666503D01*
X166723747Y-136555472D01*
X166709397Y-136520827D01*
X166709390Y-136520814D01*
X166621789Y-136389711D01*
X166621786Y-136389707D01*
X166510292Y-136278213D01*
X166510284Y-136278207D01*
X166505605Y-136275080D01*
X166460802Y-136221466D01*
X166450500Y-136171981D01*
X166450500Y-134528064D01*
X166470185Y-134461025D01*
X166522989Y-134415270D01*
X166565652Y-134404380D01*
X166621940Y-134400355D01*
X166759992Y-134359819D01*
X166881032Y-134282031D01*
X166975254Y-134173294D01*
X167022342Y-134070185D01*
X167035023Y-134042419D01*
X167035024Y-134042414D01*
X167037239Y-134027011D01*
X167055500Y-133900000D01*
X167055500Y-132900000D01*
X167051493Y-132836478D01*
X167038659Y-132789891D01*
X167035469Y-132739318D01*
X167055500Y-132600000D01*
X167055500Y-131450000D01*
X167050355Y-131378060D01*
X167009819Y-131240008D01*
X166932031Y-131118968D01*
X166890605Y-131083072D01*
X166823299Y-131024750D01*
X166823297Y-131024748D01*
X166823294Y-131024746D01*
X166823290Y-131024744D01*
X166692419Y-130964976D01*
X166692415Y-130964975D01*
X166556853Y-130945485D01*
X166493297Y-130916460D01*
X166455523Y-130857682D01*
X166450500Y-130822747D01*
X166450500Y-126178269D01*
X166470185Y-126111230D01*
X166522989Y-126065475D01*
X166592147Y-126055531D01*
X166655703Y-126084556D01*
X166674292Y-126105626D01*
X166674347Y-126105581D01*
X166675609Y-126107119D01*
X166677603Y-126109379D01*
X166678212Y-126110291D01*
X166789707Y-126221786D01*
X166789711Y-126221789D01*
X166920814Y-126309390D01*
X166920827Y-126309397D01*
X167058683Y-126366498D01*
X167066503Y-126369737D01*
X167221153Y-126400499D01*
X167221156Y-126400500D01*
X167221158Y-126400500D01*
X167378844Y-126400500D01*
X167378845Y-126400499D01*
X167533497Y-126369737D01*
X167679179Y-126309394D01*
X167703055Y-126293439D01*
X167769729Y-126272562D01*
X167837110Y-126291045D01*
X167859626Y-126308861D01*
X169063181Y-127512416D01*
X169096666Y-127573739D01*
X169099500Y-127600097D01*
X169099500Y-128300001D01*
X169099501Y-128300019D01*
X169110000Y-128402796D01*
X169110001Y-128402799D01*
X169165185Y-128569331D01*
X169165186Y-128569334D01*
X169257288Y-128718656D01*
X169381344Y-128842712D01*
X169530666Y-128934814D01*
X169697203Y-128989999D01*
X169799991Y-129000500D01*
X170600008Y-129000499D01*
X170600016Y-129000498D01*
X170600019Y-129000498D01*
X170656302Y-128994748D01*
X170702797Y-128989999D01*
X170869334Y-128934814D01*
X171018656Y-128842712D01*
X171112319Y-128749049D01*
X171173642Y-128715564D01*
X171243334Y-128720548D01*
X171287681Y-128749049D01*
X171381344Y-128842712D01*
X171530666Y-128934814D01*
X171697203Y-128989999D01*
X171799991Y-129000500D01*
X172275500Y-129000499D01*
X172342539Y-129020183D01*
X172388294Y-129072987D01*
X172399500Y-129124499D01*
X172399500Y-130899903D01*
X172390855Y-130929343D01*
X172384332Y-130959330D01*
X172380577Y-130964345D01*
X172379815Y-130966942D01*
X172363182Y-130987583D01*
X172187584Y-131163181D01*
X172126261Y-131196666D01*
X172099903Y-131199500D01*
X172062185Y-131199500D01*
X171995146Y-131179815D01*
X171961867Y-131148386D01*
X171914414Y-131083072D01*
X171791928Y-130960586D01*
X171651788Y-130858768D01*
X171497445Y-130780127D01*
X171332701Y-130726598D01*
X171332699Y-130726597D01*
X171332698Y-130726597D01*
X171201271Y-130705781D01*
X171161611Y-130699500D01*
X170438389Y-130699500D01*
X170398728Y-130705781D01*
X170267302Y-130726597D01*
X170102552Y-130780128D01*
X169948211Y-130858768D01*
X169868806Y-130916460D01*
X169808072Y-130960586D01*
X169808070Y-130960588D01*
X169808069Y-130960588D01*
X169685588Y-131083069D01*
X169685588Y-131083070D01*
X169685586Y-131083072D01*
X169659508Y-131118965D01*
X169583768Y-131223211D01*
X169505128Y-131377552D01*
X169451597Y-131542302D01*
X169429706Y-131680520D01*
X169424500Y-131713389D01*
X169424500Y-131886611D01*
X169451598Y-132057701D01*
X169505127Y-132222445D01*
X169583768Y-132376788D01*
X169685586Y-132516928D01*
X169685588Y-132516930D01*
X169793127Y-132624469D01*
X169826612Y-132685792D01*
X169821628Y-132755484D01*
X169779756Y-132811417D01*
X169770544Y-132817688D01*
X169706344Y-132857287D01*
X169582289Y-132981342D01*
X169490187Y-133130663D01*
X169490185Y-133130668D01*
X169469051Y-133194446D01*
X169435001Y-133297203D01*
X169435001Y-133297204D01*
X169435000Y-133297204D01*
X169424500Y-133399983D01*
X169424500Y-134200001D01*
X169424501Y-134200019D01*
X169435000Y-134302796D01*
X169435001Y-134302799D01*
X169472271Y-134415270D01*
X169490186Y-134469334D01*
X169582288Y-134618656D01*
X169706344Y-134742712D01*
X169855666Y-134834814D01*
X170022203Y-134889999D01*
X170124991Y-134900500D01*
X171475008Y-134900499D01*
X171577797Y-134889999D01*
X171744334Y-134834814D01*
X171893656Y-134742712D01*
X172017712Y-134618656D01*
X172109814Y-134469334D01*
X172164999Y-134302797D01*
X172175500Y-134200009D01*
X172175499Y-134199994D01*
X172175660Y-134196860D01*
X172175820Y-134196868D01*
X172175821Y-134196867D01*
X172175844Y-134196869D01*
X172176448Y-134196900D01*
X172195162Y-134133091D01*
X172211813Y-134112420D01*
X174158506Y-132165728D01*
X174158511Y-132165724D01*
X174168714Y-132155520D01*
X174168716Y-132155520D01*
X174280520Y-132043716D01*
X174346022Y-131930263D01*
X174359577Y-131906785D01*
X174400501Y-131754057D01*
X174400501Y-131595943D01*
X174400501Y-131588348D01*
X174400500Y-131588330D01*
X174400500Y-127489060D01*
X174400501Y-127489047D01*
X174400501Y-127320944D01*
X174400500Y-127320940D01*
X174395638Y-127302797D01*
X174379012Y-127240747D01*
X174380673Y-127170898D01*
X174411105Y-127120972D01*
X174446054Y-127086024D01*
X174533659Y-126954914D01*
X174594002Y-126809232D01*
X174619938Y-126678844D01*
X174624903Y-126653885D01*
X174657288Y-126591974D01*
X174658785Y-126590449D01*
X175568713Y-125680521D01*
X175568716Y-125680520D01*
X175680520Y-125568716D01*
X175681131Y-125567657D01*
X175687661Y-125561104D01*
X175711544Y-125548006D01*
X175733541Y-125531942D01*
X175741730Y-125531453D01*
X175748923Y-125527509D01*
X175776093Y-125529402D01*
G37*
%TD.AperFunction*%
%TA.AperFunction,Conductor*%
G36*
X156205703Y-130055384D02*
G01*
X156212181Y-130061416D01*
X156813681Y-130662916D01*
X156847166Y-130724239D01*
X156850000Y-130750597D01*
X156850000Y-131476000D01*
X156830315Y-131543039D01*
X156777511Y-131588794D01*
X156726000Y-131600000D01*
X156474000Y-131600000D01*
X156406961Y-131580315D01*
X156361206Y-131527511D01*
X156350000Y-131476000D01*
X156350000Y-130700000D01*
X156349999Y-130699999D01*
X156268417Y-130700000D01*
X156197897Y-130706408D01*
X156197894Y-130706408D01*
X156161389Y-130717784D01*
X156091529Y-130718934D01*
X156032137Y-130682133D01*
X156002069Y-130619064D01*
X156000500Y-130599398D01*
X156000500Y-130149097D01*
X156020185Y-130082058D01*
X156072989Y-130036303D01*
X156142147Y-130026359D01*
X156205703Y-130055384D01*
G37*
%TD.AperFunction*%
%TA.AperFunction,Conductor*%
G36*
X173793039Y-120794685D02*
G01*
X173838794Y-120847489D01*
X173850000Y-120899000D01*
X173850000Y-121724999D01*
X173875500Y-121724999D01*
X173942539Y-121744684D01*
X173988294Y-121797488D01*
X173999500Y-121848999D01*
X173999500Y-123099902D01*
X173979815Y-123166941D01*
X173963181Y-123187583D01*
X172587582Y-124563181D01*
X172526259Y-124596666D01*
X172499901Y-124599500D01*
X171799998Y-124599500D01*
X171799980Y-124599501D01*
X171697203Y-124610000D01*
X171697200Y-124610001D01*
X171530668Y-124665185D01*
X171530663Y-124665187D01*
X171381342Y-124757289D01*
X171287681Y-124850951D01*
X171226358Y-124884436D01*
X171156666Y-124879452D01*
X171112319Y-124850951D01*
X171018657Y-124757289D01*
X171018656Y-124757288D01*
X170869334Y-124665186D01*
X170702797Y-124610001D01*
X170702795Y-124610000D01*
X170600016Y-124599500D01*
X170600009Y-124599500D01*
X170500097Y-124599500D01*
X170433058Y-124579815D01*
X170412416Y-124563181D01*
X170087590Y-124238355D01*
X170087588Y-124238352D01*
X169968717Y-124119481D01*
X169968716Y-124119480D01*
X169881904Y-124069360D01*
X169881904Y-124069359D01*
X169881900Y-124069358D01*
X169831785Y-124040423D01*
X169679057Y-123999499D01*
X169520943Y-123999499D01*
X169513347Y-123999499D01*
X169513331Y-123999500D01*
X168619807Y-123999500D01*
X168552768Y-123979815D01*
X168507013Y-123927011D01*
X168497069Y-123857853D01*
X168526094Y-123794297D01*
X168532126Y-123787819D01*
X168781364Y-123538582D01*
X169105277Y-123214669D01*
X169176465Y-123108127D01*
X169225501Y-122989744D01*
X169233682Y-122948615D01*
X169250500Y-122864071D01*
X169250500Y-122822902D01*
X169270185Y-122755863D01*
X169322989Y-122710108D01*
X169392147Y-122700164D01*
X169455703Y-122729189D01*
X169489062Y-122775451D01*
X169490605Y-122779178D01*
X169490609Y-122779185D01*
X169578210Y-122910288D01*
X169578213Y-122910292D01*
X169689707Y-123021786D01*
X169689711Y-123021789D01*
X169820814Y-123109390D01*
X169820827Y-123109397D01*
X169959753Y-123166941D01*
X169966503Y-123169737D01*
X170121153Y-123200499D01*
X170121156Y-123200500D01*
X170121158Y-123200500D01*
X170278844Y-123200500D01*
X170278845Y-123200499D01*
X170433497Y-123169737D01*
X170579179Y-123109394D01*
X170710289Y-123021789D01*
X170821789Y-122910289D01*
X170909394Y-122779179D01*
X170969737Y-122633497D01*
X171000500Y-122478842D01*
X171000500Y-122424500D01*
X171020185Y-122357461D01*
X171072989Y-122311706D01*
X171124500Y-122300500D01*
X171301033Y-122300500D01*
X171301040Y-122300500D01*
X171415999Y-122285365D01*
X171559037Y-122226117D01*
X171681867Y-122131867D01*
X171776117Y-122009037D01*
X171835365Y-121865999D01*
X171850500Y-121751040D01*
X171850500Y-121599500D01*
X171870185Y-121532461D01*
X171922989Y-121486706D01*
X171974500Y-121475500D01*
X172039071Y-121475500D01*
X172153548Y-121452728D01*
X172164744Y-121450501D01*
X172283127Y-121401465D01*
X172313330Y-121381284D01*
X172389669Y-121330277D01*
X172481091Y-121238853D01*
X172485118Y-121235460D01*
X172512459Y-121223419D01*
X172538682Y-121209101D01*
X172544095Y-121209488D01*
X172549062Y-121207301D01*
X172578575Y-121211953D01*
X172608374Y-121214085D01*
X172612717Y-121217336D01*
X172618079Y-121218182D01*
X172640390Y-121238051D01*
X172664308Y-121255956D01*
X172667623Y-121262304D01*
X172670257Y-121264650D01*
X172671871Y-121270439D01*
X172682747Y-121291263D01*
X172688452Y-121308481D01*
X172688457Y-121308492D01*
X172777424Y-121452728D01*
X172777427Y-121452732D01*
X172897267Y-121572572D01*
X172897271Y-121572575D01*
X173041507Y-121661542D01*
X173041518Y-121661547D01*
X173202393Y-121714855D01*
X173301683Y-121724999D01*
X173349999Y-121724998D01*
X173350000Y-121724998D01*
X173350000Y-120899000D01*
X173369685Y-120831961D01*
X173422489Y-120786206D01*
X173474000Y-120775000D01*
X173726000Y-120775000D01*
X173793039Y-120794685D01*
G37*
%TD.AperFunction*%
%TA.AperFunction,Conductor*%
G36*
X164353039Y-117029685D02*
G01*
X164398794Y-117082489D01*
X164410000Y-117134000D01*
X164410000Y-118386000D01*
X164390315Y-118453039D01*
X164337511Y-118498794D01*
X164286000Y-118510000D01*
X164034000Y-118510000D01*
X163966961Y-118490315D01*
X163921206Y-118437511D01*
X163910000Y-118386000D01*
X163910000Y-117134000D01*
X163929685Y-117066961D01*
X163982489Y-117021206D01*
X164034000Y-117010000D01*
X164286000Y-117010000D01*
X164353039Y-117029685D01*
G37*
%TD.AperFunction*%
%TA.AperFunction,Conductor*%
G36*
X174203074Y-112590022D02*
G01*
X174207769Y-112589118D01*
X174220177Y-112590940D01*
X174290857Y-112605000D01*
X174492688Y-112605000D01*
X174559727Y-112624685D01*
X174605482Y-112677489D01*
X174615426Y-112746647D01*
X174612466Y-112761075D01*
X174599499Y-112809472D01*
X174599499Y-112809475D01*
X174599499Y-112977575D01*
X174599500Y-112977588D01*
X174599500Y-117250903D01*
X174579815Y-117317942D01*
X174527011Y-117363697D01*
X174457853Y-117373641D01*
X174394297Y-117344616D01*
X174387819Y-117338584D01*
X173036819Y-115987584D01*
X173003334Y-115926261D01*
X173000500Y-115899903D01*
X173000500Y-112914446D01*
X173020185Y-112847407D01*
X173072989Y-112801652D01*
X173142147Y-112791708D01*
X173199993Y-112816075D01*
X173205792Y-112820526D01*
X173342709Y-112899573D01*
X173342716Y-112899577D01*
X173495443Y-112940500D01*
X173495445Y-112940500D01*
X173653555Y-112940500D01*
X173653557Y-112940500D01*
X173806284Y-112899577D01*
X173943216Y-112820520D01*
X174055020Y-112708716D01*
X174088597Y-112650557D01*
X174105916Y-112634042D01*
X174119915Y-112614631D01*
X174130741Y-112610371D01*
X174139162Y-112602342D01*
X174162662Y-112597812D01*
X174184933Y-112589050D01*
X174203074Y-112590022D01*
G37*
%TD.AperFunction*%
%TA.AperFunction,Conductor*%
G36*
X159158434Y-115054876D02*
G01*
X159158436Y-115054877D01*
X159230821Y-115063569D01*
X159246897Y-115065500D01*
X159246898Y-115065500D01*
X159433103Y-115065500D01*
X159449178Y-115063569D01*
X159521564Y-115054877D01*
X159521565Y-115054876D01*
X159525215Y-115054438D01*
X159554785Y-115054438D01*
X159558434Y-115054876D01*
X159558436Y-115054877D01*
X159630821Y-115063569D01*
X159646897Y-115065500D01*
X159740500Y-115065500D01*
X159807539Y-115085185D01*
X159853294Y-115137989D01*
X159864500Y-115189500D01*
X159864500Y-115283102D01*
X159867890Y-115311330D01*
X159875561Y-115375217D01*
X159875561Y-115404783D01*
X159869718Y-115453440D01*
X159864500Y-115496898D01*
X159864500Y-115683102D01*
X159870222Y-115730754D01*
X159875561Y-115775217D01*
X159876227Y-115797356D01*
X159875647Y-115807105D01*
X159875123Y-115808436D01*
X159864500Y-115896898D01*
X159864500Y-115994687D01*
X159864282Y-115998356D01*
X159853659Y-116027919D01*
X159844815Y-116058039D01*
X159841941Y-116060528D01*
X159840655Y-116064110D01*
X159815732Y-116083239D01*
X159792011Y-116103794D01*
X159787742Y-116104722D01*
X159785229Y-116106652D01*
X159774904Y-116107515D01*
X159740500Y-116115000D01*
X159646945Y-116115000D01*
X159556887Y-116125814D01*
X159527321Y-116125814D01*
X159493771Y-116121785D01*
X159433102Y-116114500D01*
X159246898Y-116114500D01*
X159203440Y-116119718D01*
X159154783Y-116125561D01*
X159132626Y-116126226D01*
X159122890Y-116125645D01*
X159121564Y-116125123D01*
X159033102Y-116114500D01*
X158935802Y-116114500D01*
X158932126Y-116114281D01*
X158902573Y-116103657D01*
X158872461Y-116094815D01*
X158869965Y-116091934D01*
X158866375Y-116090644D01*
X158847257Y-116065728D01*
X158826706Y-116042011D01*
X158825774Y-116037731D01*
X158823842Y-116035212D01*
X158822979Y-116024881D01*
X158815500Y-115990500D01*
X158815500Y-115896897D01*
X158813316Y-115878708D01*
X158804877Y-115808436D01*
X158804876Y-115808434D01*
X158804438Y-115804785D01*
X158804438Y-115775215D01*
X158804876Y-115771565D01*
X158804877Y-115771564D01*
X158815500Y-115683102D01*
X158815500Y-115496898D01*
X158804877Y-115408436D01*
X158804876Y-115408434D01*
X158804438Y-115404785D01*
X158803773Y-115382624D01*
X158804352Y-115372893D01*
X158804877Y-115371564D01*
X158815500Y-115283102D01*
X158815500Y-115185816D01*
X158815720Y-115182124D01*
X158826340Y-115152580D01*
X158835185Y-115122461D01*
X158838066Y-115119964D01*
X158839357Y-115116374D01*
X158864274Y-115097254D01*
X158887989Y-115076706D01*
X158892268Y-115075775D01*
X158894789Y-115073841D01*
X158905124Y-115072978D01*
X158939500Y-115065500D01*
X159033103Y-115065500D01*
X159049178Y-115063569D01*
X159121564Y-115054877D01*
X159121565Y-115054876D01*
X159125215Y-115054438D01*
X159154785Y-115054438D01*
X159158434Y-115054876D01*
G37*
%TD.AperFunction*%
%TA.AperFunction,Conductor*%
G36*
X168481101Y-112420185D02*
G01*
X168519599Y-112459401D01*
X168553585Y-112514500D01*
X168593926Y-112579903D01*
X168612366Y-112647296D01*
X168593926Y-112710097D01*
X168512998Y-112841300D01*
X168512996Y-112841305D01*
X168459651Y-113002290D01*
X168449500Y-113101647D01*
X168449500Y-113698337D01*
X168449501Y-113698355D01*
X168459650Y-113797707D01*
X168459651Y-113797710D01*
X168512996Y-113958694D01*
X168512998Y-113958699D01*
X168592517Y-114087618D01*
X168610957Y-114155010D01*
X168592228Y-114214778D01*
X168593479Y-114215447D01*
X168590602Y-114220828D01*
X168530264Y-114366498D01*
X168530261Y-114366510D01*
X168499500Y-114521153D01*
X168499500Y-114678845D01*
X168500545Y-114684098D01*
X168497313Y-114745173D01*
X168480915Y-114797797D01*
X168480914Y-114797803D01*
X168474500Y-114868386D01*
X168474500Y-115199902D01*
X168465855Y-115229342D01*
X168459332Y-115259329D01*
X168455577Y-115264344D01*
X168454815Y-115266941D01*
X168438185Y-115287578D01*
X168368303Y-115357461D01*
X168299445Y-115426319D01*
X168238122Y-115459803D01*
X168168430Y-115454819D01*
X168124085Y-115426319D01*
X167811854Y-115114089D01*
X167811853Y-115114087D01*
X167692982Y-114995216D01*
X167692981Y-114995215D01*
X167603672Y-114943653D01*
X167595900Y-114939165D01*
X167586758Y-114933887D01*
X167546719Y-114891891D01*
X167538547Y-114883320D01*
X167538546Y-114883318D01*
X167538545Y-114883317D01*
X167538540Y-114883291D01*
X167524764Y-114826503D01*
X167524764Y-114796890D01*
X167524763Y-114796888D01*
X167514476Y-114745173D01*
X167494001Y-114642238D01*
X167458916Y-114557534D01*
X167433661Y-114496563D01*
X167433660Y-114496562D01*
X167433658Y-114496556D01*
X167432793Y-114495261D01*
X167432549Y-114494483D01*
X167430785Y-114491182D01*
X167431411Y-114490847D01*
X167411917Y-114428583D01*
X167411897Y-114426373D01*
X167411897Y-113590456D01*
X167411898Y-113590443D01*
X167411898Y-113422342D01*
X167411898Y-113422340D01*
X167370974Y-113269612D01*
X167339155Y-113214500D01*
X167339155Y-113214499D01*
X167291921Y-113132687D01*
X167291918Y-113132683D01*
X167291917Y-113132681D01*
X167180113Y-113020877D01*
X167180112Y-113020876D01*
X167175782Y-113016546D01*
X167175771Y-113016536D01*
X166771416Y-112612181D01*
X166737931Y-112550858D01*
X166742915Y-112481166D01*
X166784787Y-112425233D01*
X166850251Y-112400816D01*
X166859097Y-112400500D01*
X168414062Y-112400500D01*
X168481101Y-112420185D01*
G37*
%TD.AperFunction*%
%TA.AperFunction,Conductor*%
G36*
X171143039Y-111909685D02*
G01*
X171188794Y-111962489D01*
X171200000Y-112014000D01*
X171200000Y-113276000D01*
X171180315Y-113343039D01*
X171127511Y-113388794D01*
X171076000Y-113400000D01*
X170824000Y-113400000D01*
X170756961Y-113380315D01*
X170711206Y-113327511D01*
X170700000Y-113276000D01*
X170700000Y-112014000D01*
X170719685Y-111946961D01*
X170772489Y-111901206D01*
X170824000Y-111890000D01*
X171076000Y-111890000D01*
X171143039Y-111909685D01*
G37*
%TD.AperFunction*%
%TA.AperFunction,Conductor*%
G36*
X164768434Y-110454876D02*
G01*
X164768436Y-110454877D01*
X164840821Y-110463569D01*
X164856897Y-110465500D01*
X164856898Y-110465500D01*
X165043103Y-110465500D01*
X165059178Y-110463569D01*
X165131564Y-110454877D01*
X165131565Y-110454876D01*
X165135215Y-110454438D01*
X165164785Y-110454438D01*
X165168434Y-110454876D01*
X165168436Y-110454877D01*
X165240821Y-110463569D01*
X165256897Y-110465500D01*
X165350500Y-110465500D01*
X165417539Y-110485185D01*
X165463294Y-110537989D01*
X165474500Y-110589500D01*
X165474500Y-110683102D01*
X165480222Y-110730754D01*
X165485561Y-110775217D01*
X165485561Y-110804783D01*
X165481547Y-110838216D01*
X165474500Y-110896898D01*
X165474500Y-111083102D01*
X165480222Y-111130754D01*
X165485561Y-111175217D01*
X165486226Y-111197374D01*
X165485645Y-111207109D01*
X165485123Y-111208436D01*
X165474500Y-111296898D01*
X165474500Y-111394198D01*
X165474281Y-111397874D01*
X165463657Y-111427426D01*
X165454815Y-111457539D01*
X165451934Y-111460034D01*
X165450644Y-111463625D01*
X165425728Y-111482742D01*
X165402011Y-111503294D01*
X165397731Y-111504225D01*
X165395212Y-111506158D01*
X165384881Y-111507020D01*
X165350500Y-111514500D01*
X165256898Y-111514500D01*
X165213440Y-111519718D01*
X165164783Y-111525561D01*
X165135217Y-111525561D01*
X165086559Y-111519718D01*
X165043102Y-111514500D01*
X164856898Y-111514500D01*
X164813440Y-111519718D01*
X164764783Y-111525561D01*
X164742626Y-111526226D01*
X164732890Y-111525645D01*
X164731564Y-111525123D01*
X164643102Y-111514500D01*
X164545802Y-111514500D01*
X164542126Y-111514281D01*
X164512573Y-111503657D01*
X164482461Y-111494815D01*
X164479965Y-111491934D01*
X164476375Y-111490644D01*
X164457257Y-111465728D01*
X164436706Y-111442011D01*
X164435774Y-111437731D01*
X164433842Y-111435212D01*
X164432979Y-111424881D01*
X164425500Y-111390500D01*
X164425500Y-111296897D01*
X164419623Y-111247956D01*
X164414877Y-111208436D01*
X164414876Y-111208434D01*
X164414438Y-111204785D01*
X164414438Y-111175215D01*
X164414876Y-111171565D01*
X164414877Y-111171564D01*
X164425500Y-111083102D01*
X164425500Y-110896898D01*
X164414877Y-110808436D01*
X164414876Y-110808434D01*
X164414438Y-110804785D01*
X164413773Y-110782624D01*
X164414352Y-110772893D01*
X164414877Y-110771564D01*
X164425500Y-110683102D01*
X164425500Y-110585816D01*
X164425720Y-110582124D01*
X164436340Y-110552580D01*
X164445185Y-110522461D01*
X164448066Y-110519964D01*
X164449357Y-110516374D01*
X164474274Y-110497254D01*
X164497989Y-110476706D01*
X164502268Y-110475775D01*
X164504789Y-110473841D01*
X164515124Y-110472978D01*
X164549500Y-110465500D01*
X164643103Y-110465500D01*
X164659178Y-110463569D01*
X164731564Y-110454877D01*
X164731565Y-110454876D01*
X164735215Y-110454438D01*
X164764785Y-110454438D01*
X164768434Y-110454876D01*
G37*
%TD.AperFunction*%
%TD*%
M02*
