%TF.GenerationSoftware,KiCad,Pcbnew,10.0.1-1.fc44*%
%TF.CreationDate,2026-06-04T14:13:32-04:00*%
%TF.ProjectId,pcb_card,7063625f-6361-4726-942e-6b696361645f,rev?*%
%TF.SameCoordinates,Original*%
%TF.FileFunction,Legend,Top*%
%TF.FilePolarity,Positive*%
%FSLAX46Y46*%
G04 Gerber Fmt 4.6, Leading zero omitted, Abs format (unit mm)*
G04 Created by KiCad (PCBNEW 10.0.1-1.fc44) date 2026-06-04 14:13:32*
%MOMM*%
%LPD*%
G01*
G04 APERTURE LIST*
%ADD10C,0.300000*%
%ADD11C,0.120000*%
%ADD12C,0.100000*%
%ADD13C,0.000000*%
%ADD14C,0.250000*%
%ADD15C,0.060000*%
G04 APERTURE END LIST*
D10*
X151300828Y-123959774D02*
X152800828Y-123459774D01*
X152800828Y-123459774D02*
X151300828Y-122959774D01*
X152729400Y-121888346D02*
X152800828Y-122031203D01*
X152800828Y-122031203D02*
X152800828Y-122316918D01*
X152800828Y-122316918D02*
X152729400Y-122459775D01*
X152729400Y-122459775D02*
X152586542Y-122531203D01*
X152586542Y-122531203D02*
X152015114Y-122531203D01*
X152015114Y-122531203D02*
X151872257Y-122459775D01*
X151872257Y-122459775D02*
X151800828Y-122316918D01*
X151800828Y-122316918D02*
X151800828Y-122031203D01*
X151800828Y-122031203D02*
X151872257Y-121888346D01*
X151872257Y-121888346D02*
X152015114Y-121816918D01*
X152015114Y-121816918D02*
X152157971Y-121816918D01*
X152157971Y-121816918D02*
X152300828Y-122531203D01*
X152800828Y-121174061D02*
X151800828Y-121174061D01*
X152086542Y-121174061D02*
X151943685Y-121102632D01*
X151943685Y-121102632D02*
X151872257Y-121031204D01*
X151872257Y-121031204D02*
X151800828Y-120888346D01*
X151800828Y-120888346D02*
X151800828Y-120745489D01*
X152657971Y-120245490D02*
X152729400Y-120174061D01*
X152729400Y-120174061D02*
X152800828Y-120245490D01*
X152800828Y-120245490D02*
X152729400Y-120316918D01*
X152729400Y-120316918D02*
X152657971Y-120245490D01*
X152657971Y-120245490D02*
X152800828Y-120245490D01*
X151300828Y-118102632D02*
X151300828Y-117959775D01*
X151300828Y-117959775D02*
X151372257Y-117816918D01*
X151372257Y-117816918D02*
X151443685Y-117745490D01*
X151443685Y-117745490D02*
X151586542Y-117674061D01*
X151586542Y-117674061D02*
X151872257Y-117602632D01*
X151872257Y-117602632D02*
X152229400Y-117602632D01*
X152229400Y-117602632D02*
X152515114Y-117674061D01*
X152515114Y-117674061D02*
X152657971Y-117745490D01*
X152657971Y-117745490D02*
X152729400Y-117816918D01*
X152729400Y-117816918D02*
X152800828Y-117959775D01*
X152800828Y-117959775D02*
X152800828Y-118102632D01*
X152800828Y-118102632D02*
X152729400Y-118245490D01*
X152729400Y-118245490D02*
X152657971Y-118316918D01*
X152657971Y-118316918D02*
X152515114Y-118388347D01*
X152515114Y-118388347D02*
X152229400Y-118459775D01*
X152229400Y-118459775D02*
X151872257Y-118459775D01*
X151872257Y-118459775D02*
X151586542Y-118388347D01*
X151586542Y-118388347D02*
X151443685Y-118316918D01*
X151443685Y-118316918D02*
X151372257Y-118245490D01*
X151372257Y-118245490D02*
X151300828Y-118102632D01*
X152657971Y-116959776D02*
X152729400Y-116888347D01*
X152729400Y-116888347D02*
X152800828Y-116959776D01*
X152800828Y-116959776D02*
X152729400Y-117031204D01*
X152729400Y-117031204D02*
X152657971Y-116959776D01*
X152657971Y-116959776D02*
X152800828Y-116959776D01*
X152800828Y-115459775D02*
X152800828Y-116316918D01*
X152800828Y-115888347D02*
X151300828Y-115888347D01*
X151300828Y-115888347D02*
X151515114Y-116031204D01*
X151515114Y-116031204D02*
X151657971Y-116174061D01*
X151657971Y-116174061D02*
X151729400Y-116316918D01*
X152372257Y-114888347D02*
X152372257Y-114174062D01*
X152800828Y-115031204D02*
X151300828Y-114531204D01*
X151300828Y-114531204D02*
X152800828Y-114031204D01*
X152243055Y-142388346D02*
X152314484Y-142459774D01*
X152314484Y-142459774D02*
X152385912Y-142674060D01*
X152385912Y-142674060D02*
X152385912Y-142816917D01*
X152385912Y-142816917D02*
X152314484Y-143031203D01*
X152314484Y-143031203D02*
X152171626Y-143174060D01*
X152171626Y-143174060D02*
X152028769Y-143245489D01*
X152028769Y-143245489D02*
X151743055Y-143316917D01*
X151743055Y-143316917D02*
X151528769Y-143316917D01*
X151528769Y-143316917D02*
X151243055Y-143245489D01*
X151243055Y-143245489D02*
X151100198Y-143174060D01*
X151100198Y-143174060D02*
X150957341Y-143031203D01*
X150957341Y-143031203D02*
X150885912Y-142816917D01*
X150885912Y-142816917D02*
X150885912Y-142674060D01*
X150885912Y-142674060D02*
X150957341Y-142459774D01*
X150957341Y-142459774D02*
X151028769Y-142388346D01*
X152385912Y-141745489D02*
X150885912Y-141745489D01*
X152385912Y-141102632D02*
X151600198Y-141102632D01*
X151600198Y-141102632D02*
X151457341Y-141174060D01*
X151457341Y-141174060D02*
X151385912Y-141316917D01*
X151385912Y-141316917D02*
X151385912Y-141531203D01*
X151385912Y-141531203D02*
X151457341Y-141674060D01*
X151457341Y-141674060D02*
X151528769Y-141745489D01*
X152385912Y-139745489D02*
X151600198Y-139745489D01*
X151600198Y-139745489D02*
X151457341Y-139816917D01*
X151457341Y-139816917D02*
X151385912Y-139959774D01*
X151385912Y-139959774D02*
X151385912Y-140245489D01*
X151385912Y-140245489D02*
X151457341Y-140388346D01*
X152314484Y-139745489D02*
X152385912Y-139888346D01*
X152385912Y-139888346D02*
X152385912Y-140245489D01*
X152385912Y-140245489D02*
X152314484Y-140388346D01*
X152314484Y-140388346D02*
X152171626Y-140459774D01*
X152171626Y-140459774D02*
X152028769Y-140459774D01*
X152028769Y-140459774D02*
X151885912Y-140388346D01*
X151885912Y-140388346D02*
X151814484Y-140245489D01*
X151814484Y-140245489D02*
X151814484Y-139888346D01*
X151814484Y-139888346D02*
X151743055Y-139745489D01*
X152385912Y-139031203D02*
X151385912Y-139031203D01*
X151671626Y-139031203D02*
X151528769Y-138959774D01*
X151528769Y-138959774D02*
X151457341Y-138888346D01*
X151457341Y-138888346D02*
X151385912Y-138745488D01*
X151385912Y-138745488D02*
X151385912Y-138602631D01*
X152385912Y-137888346D02*
X152314484Y-138031203D01*
X152314484Y-138031203D02*
X152171626Y-138102632D01*
X152171626Y-138102632D02*
X150885912Y-138102632D01*
X152385912Y-137316918D02*
X151385912Y-137316918D01*
X150885912Y-137316918D02*
X150957341Y-137388346D01*
X150957341Y-137388346D02*
X151028769Y-137316918D01*
X151028769Y-137316918D02*
X150957341Y-137245489D01*
X150957341Y-137245489D02*
X150885912Y-137316918D01*
X150885912Y-137316918D02*
X151028769Y-137316918D01*
X152314484Y-136031203D02*
X152385912Y-136174060D01*
X152385912Y-136174060D02*
X152385912Y-136459775D01*
X152385912Y-136459775D02*
X152314484Y-136602632D01*
X152314484Y-136602632D02*
X152171626Y-136674060D01*
X152171626Y-136674060D02*
X151600198Y-136674060D01*
X151600198Y-136674060D02*
X151457341Y-136602632D01*
X151457341Y-136602632D02*
X151385912Y-136459775D01*
X151385912Y-136459775D02*
X151385912Y-136174060D01*
X151385912Y-136174060D02*
X151457341Y-136031203D01*
X151457341Y-136031203D02*
X151600198Y-135959775D01*
X151600198Y-135959775D02*
X151743055Y-135959775D01*
X151743055Y-135959775D02*
X151885912Y-136674060D01*
X151385912Y-135316918D02*
X152885912Y-135316918D01*
X151457341Y-135316918D02*
X151385912Y-135174061D01*
X151385912Y-135174061D02*
X151385912Y-134888346D01*
X151385912Y-134888346D02*
X151457341Y-134745489D01*
X151457341Y-134745489D02*
X151528769Y-134674061D01*
X151528769Y-134674061D02*
X151671626Y-134602632D01*
X151671626Y-134602632D02*
X152100198Y-134602632D01*
X152100198Y-134602632D02*
X152243055Y-134674061D01*
X152243055Y-134674061D02*
X152314484Y-134745489D01*
X152314484Y-134745489D02*
X152385912Y-134888346D01*
X152385912Y-134888346D02*
X152385912Y-135174061D01*
X152385912Y-135174061D02*
X152314484Y-135316918D01*
X152385912Y-133745489D02*
X152314484Y-133888346D01*
X152314484Y-133888346D02*
X152171626Y-133959775D01*
X152171626Y-133959775D02*
X150885912Y-133959775D01*
X152314484Y-132602632D02*
X152385912Y-132745489D01*
X152385912Y-132745489D02*
X152385912Y-133031204D01*
X152385912Y-133031204D02*
X152314484Y-133174061D01*
X152314484Y-133174061D02*
X152171626Y-133245489D01*
X152171626Y-133245489D02*
X151600198Y-133245489D01*
X151600198Y-133245489D02*
X151457341Y-133174061D01*
X151457341Y-133174061D02*
X151385912Y-133031204D01*
X151385912Y-133031204D02*
X151385912Y-132745489D01*
X151385912Y-132745489D02*
X151457341Y-132602632D01*
X151457341Y-132602632D02*
X151600198Y-132531204D01*
X151600198Y-132531204D02*
X151743055Y-132531204D01*
X151743055Y-132531204D02*
X151885912Y-133245489D01*
X152385912Y-132031204D02*
X151385912Y-131245490D01*
X151385912Y-132031204D02*
X152385912Y-131245490D01*
X152385912Y-130674061D02*
X151385912Y-130674061D01*
X150885912Y-130674061D02*
X150957341Y-130745489D01*
X150957341Y-130745489D02*
X151028769Y-130674061D01*
X151028769Y-130674061D02*
X150957341Y-130602632D01*
X150957341Y-130602632D02*
X150885912Y-130674061D01*
X150885912Y-130674061D02*
X151028769Y-130674061D01*
X151385912Y-129959775D02*
X152385912Y-129959775D01*
X151528769Y-129959775D02*
X151457341Y-129888346D01*
X151457341Y-129888346D02*
X151385912Y-129745489D01*
X151385912Y-129745489D02*
X151385912Y-129531203D01*
X151385912Y-129531203D02*
X151457341Y-129388346D01*
X151457341Y-129388346D02*
X151600198Y-129316918D01*
X151600198Y-129316918D02*
X152385912Y-129316918D01*
X151385912Y-127959775D02*
X152600198Y-127959775D01*
X152600198Y-127959775D02*
X152743055Y-128031203D01*
X152743055Y-128031203D02*
X152814484Y-128102632D01*
X152814484Y-128102632D02*
X152885912Y-128245489D01*
X152885912Y-128245489D02*
X152885912Y-128459775D01*
X152885912Y-128459775D02*
X152814484Y-128602632D01*
X152314484Y-127959775D02*
X152385912Y-128102632D01*
X152385912Y-128102632D02*
X152385912Y-128388346D01*
X152385912Y-128388346D02*
X152314484Y-128531203D01*
X152314484Y-128531203D02*
X152243055Y-128602632D01*
X152243055Y-128602632D02*
X152100198Y-128674060D01*
X152100198Y-128674060D02*
X151671626Y-128674060D01*
X151671626Y-128674060D02*
X151528769Y-128602632D01*
X151528769Y-128602632D02*
X151457341Y-128531203D01*
X151457341Y-128531203D02*
X151385912Y-128388346D01*
X151385912Y-128388346D02*
X151385912Y-128102632D01*
X151385912Y-128102632D02*
X151457341Y-127959775D01*
X154800828Y-143245489D02*
X153300828Y-143245489D01*
X153300828Y-143245489D02*
X153300828Y-142674060D01*
X153300828Y-142674060D02*
X153372257Y-142531203D01*
X153372257Y-142531203D02*
X153443685Y-142459774D01*
X153443685Y-142459774D02*
X153586542Y-142388346D01*
X153586542Y-142388346D02*
X153800828Y-142388346D01*
X153800828Y-142388346D02*
X153943685Y-142459774D01*
X153943685Y-142459774D02*
X154015114Y-142531203D01*
X154015114Y-142531203D02*
X154086542Y-142674060D01*
X154086542Y-142674060D02*
X154086542Y-143245489D01*
X154800828Y-141745489D02*
X153800828Y-141745489D01*
X154086542Y-141745489D02*
X153943685Y-141674060D01*
X153943685Y-141674060D02*
X153872257Y-141602632D01*
X153872257Y-141602632D02*
X153800828Y-141459774D01*
X153800828Y-141459774D02*
X153800828Y-141316917D01*
X154800828Y-140602632D02*
X154729400Y-140745489D01*
X154729400Y-140745489D02*
X154657971Y-140816918D01*
X154657971Y-140816918D02*
X154515114Y-140888346D01*
X154515114Y-140888346D02*
X154086542Y-140888346D01*
X154086542Y-140888346D02*
X153943685Y-140816918D01*
X153943685Y-140816918D02*
X153872257Y-140745489D01*
X153872257Y-140745489D02*
X153800828Y-140602632D01*
X153800828Y-140602632D02*
X153800828Y-140388346D01*
X153800828Y-140388346D02*
X153872257Y-140245489D01*
X153872257Y-140245489D02*
X153943685Y-140174061D01*
X153943685Y-140174061D02*
X154086542Y-140102632D01*
X154086542Y-140102632D02*
X154515114Y-140102632D01*
X154515114Y-140102632D02*
X154657971Y-140174061D01*
X154657971Y-140174061D02*
X154729400Y-140245489D01*
X154729400Y-140245489D02*
X154800828Y-140388346D01*
X154800828Y-140388346D02*
X154800828Y-140602632D01*
X153800828Y-139674060D02*
X153800828Y-139102632D01*
X153300828Y-139459775D02*
X154586542Y-139459775D01*
X154586542Y-139459775D02*
X154729400Y-139388346D01*
X154729400Y-139388346D02*
X154800828Y-139245489D01*
X154800828Y-139245489D02*
X154800828Y-139102632D01*
X154800828Y-138388346D02*
X154729400Y-138531203D01*
X154729400Y-138531203D02*
X154657971Y-138602632D01*
X154657971Y-138602632D02*
X154515114Y-138674060D01*
X154515114Y-138674060D02*
X154086542Y-138674060D01*
X154086542Y-138674060D02*
X153943685Y-138602632D01*
X153943685Y-138602632D02*
X153872257Y-138531203D01*
X153872257Y-138531203D02*
X153800828Y-138388346D01*
X153800828Y-138388346D02*
X153800828Y-138174060D01*
X153800828Y-138174060D02*
X153872257Y-138031203D01*
X153872257Y-138031203D02*
X153943685Y-137959775D01*
X153943685Y-137959775D02*
X154086542Y-137888346D01*
X154086542Y-137888346D02*
X154515114Y-137888346D01*
X154515114Y-137888346D02*
X154657971Y-137959775D01*
X154657971Y-137959775D02*
X154729400Y-138031203D01*
X154729400Y-138031203D02*
X154800828Y-138174060D01*
X154800828Y-138174060D02*
X154800828Y-138388346D01*
X153800828Y-137459774D02*
X153800828Y-136888346D01*
X153300828Y-137245489D02*
X154586542Y-137245489D01*
X154586542Y-137245489D02*
X154729400Y-137174060D01*
X154729400Y-137174060D02*
X154800828Y-137031203D01*
X154800828Y-137031203D02*
X154800828Y-136888346D01*
X153800828Y-136531203D02*
X154800828Y-136174060D01*
X153800828Y-135816917D02*
X154800828Y-136174060D01*
X154800828Y-136174060D02*
X155157971Y-136316917D01*
X155157971Y-136316917D02*
X155229400Y-136388346D01*
X155229400Y-136388346D02*
X155300828Y-136531203D01*
X153800828Y-135245489D02*
X155300828Y-135245489D01*
X153872257Y-135245489D02*
X153800828Y-135102632D01*
X153800828Y-135102632D02*
X153800828Y-134816917D01*
X153800828Y-134816917D02*
X153872257Y-134674060D01*
X153872257Y-134674060D02*
X153943685Y-134602632D01*
X153943685Y-134602632D02*
X154086542Y-134531203D01*
X154086542Y-134531203D02*
X154515114Y-134531203D01*
X154515114Y-134531203D02*
X154657971Y-134602632D01*
X154657971Y-134602632D02*
X154729400Y-134674060D01*
X154729400Y-134674060D02*
X154800828Y-134816917D01*
X154800828Y-134816917D02*
X154800828Y-135102632D01*
X154800828Y-135102632D02*
X154729400Y-135245489D01*
X154729400Y-133316917D02*
X154800828Y-133459774D01*
X154800828Y-133459774D02*
X154800828Y-133745489D01*
X154800828Y-133745489D02*
X154729400Y-133888346D01*
X154729400Y-133888346D02*
X154586542Y-133959774D01*
X154586542Y-133959774D02*
X154015114Y-133959774D01*
X154015114Y-133959774D02*
X153872257Y-133888346D01*
X153872257Y-133888346D02*
X153800828Y-133745489D01*
X153800828Y-133745489D02*
X153800828Y-133459774D01*
X153800828Y-133459774D02*
X153872257Y-133316917D01*
X153872257Y-133316917D02*
X154015114Y-133245489D01*
X154015114Y-133245489D02*
X154157971Y-133245489D01*
X154157971Y-133245489D02*
X154300828Y-133959774D01*
X165200828Y-130245489D02*
X163700828Y-130245489D01*
X163700828Y-130245489D02*
X165200828Y-129388346D01*
X165200828Y-129388346D02*
X163700828Y-129388346D01*
X164415114Y-128674060D02*
X164415114Y-128174060D01*
X165200828Y-127959774D02*
X165200828Y-128674060D01*
X165200828Y-128674060D02*
X163700828Y-128674060D01*
X163700828Y-128674060D02*
X163700828Y-127959774D01*
X163700828Y-127459774D02*
X165200828Y-126459774D01*
X163700828Y-126459774D02*
X165200828Y-127459774D01*
X163700828Y-126102631D02*
X163700828Y-125245489D01*
X165200828Y-125674060D02*
X163700828Y-125674060D01*
X164415114Y-137845489D02*
X164415114Y-137345489D01*
X165200828Y-137131203D02*
X165200828Y-137845489D01*
X165200828Y-137845489D02*
X163700828Y-137845489D01*
X163700828Y-137845489D02*
X163700828Y-137131203D01*
X165200828Y-136488346D02*
X163700828Y-136488346D01*
X163700828Y-136488346D02*
X165200828Y-135631203D01*
X165200828Y-135631203D02*
X163700828Y-135631203D01*
X174000828Y-131959774D02*
X174000828Y-131102632D01*
X175500828Y-131531203D02*
X174000828Y-131531203D01*
X174000828Y-130745489D02*
X175500828Y-129745489D01*
X174000828Y-129745489D02*
X175500828Y-130745489D01*
X175500828Y-134888346D02*
X174786542Y-135388346D01*
X175500828Y-135745489D02*
X174000828Y-135745489D01*
X174000828Y-135745489D02*
X174000828Y-135174060D01*
X174000828Y-135174060D02*
X174072257Y-135031203D01*
X174072257Y-135031203D02*
X174143685Y-134959774D01*
X174143685Y-134959774D02*
X174286542Y-134888346D01*
X174286542Y-134888346D02*
X174500828Y-134888346D01*
X174500828Y-134888346D02*
X174643685Y-134959774D01*
X174643685Y-134959774D02*
X174715114Y-135031203D01*
X174715114Y-135031203D02*
X174786542Y-135174060D01*
X174786542Y-135174060D02*
X174786542Y-135745489D01*
X174000828Y-134388346D02*
X175500828Y-133388346D01*
X174000828Y-133388346D02*
X175500828Y-134388346D01*
%TO.C,R12*%
D11*
X148227064Y-125965000D02*
X147772936Y-125965000D01*
X148227064Y-127435000D02*
X147772936Y-127435000D01*
%TO.C,D68*%
D12*
X113100000Y-117100000D02*
X116300000Y-117100000D01*
X116300000Y-120300000D01*
X113100000Y-120300000D01*
X113100000Y-117100000D01*
X113100000Y-119250000D02*
X113100000Y-117100000D01*
X115250000Y-117100000D01*
X113100000Y-119250000D01*
G36*
X113100000Y-119250000D02*
G01*
X113100000Y-117100000D01*
X115250000Y-117100000D01*
X113100000Y-119250000D01*
G37*
X114150000Y-120300000D02*
X113100000Y-120300000D01*
X113100000Y-119250000D01*
X114150000Y-120300000D01*
G36*
X114150000Y-120300000D02*
G01*
X113100000Y-120300000D01*
X113100000Y-119250000D01*
X114150000Y-120300000D01*
G37*
X116300000Y-120300000D02*
X114150000Y-120300000D01*
X116300000Y-118150000D01*
X116300000Y-120300000D01*
G36*
X116300000Y-120300000D02*
G01*
X114150000Y-120300000D01*
X116300000Y-118150000D01*
X116300000Y-120300000D01*
G37*
X116300000Y-118150000D02*
X115250000Y-117100000D01*
X116300000Y-117100000D01*
X116300000Y-118150000D01*
G36*
X116300000Y-118150000D02*
G01*
X115250000Y-117100000D01*
X116300000Y-117100000D01*
X116300000Y-118150000D01*
G37*
%TO.C,D85*%
X125100000Y-109100000D02*
X128300000Y-109100000D01*
X128300000Y-112300000D01*
X125100000Y-112300000D01*
X125100000Y-109100000D01*
X125100000Y-111250000D02*
X125100000Y-109100000D01*
X127250000Y-109100000D01*
X125100000Y-111250000D01*
G36*
X125100000Y-111250000D02*
G01*
X125100000Y-109100000D01*
X127250000Y-109100000D01*
X125100000Y-111250000D01*
G37*
X126150000Y-112300000D02*
X125100000Y-112300000D01*
X125100000Y-111250000D01*
X126150000Y-112300000D01*
G36*
X126150000Y-112300000D02*
G01*
X125100000Y-112300000D01*
X125100000Y-111250000D01*
X126150000Y-112300000D01*
G37*
X128300000Y-112300000D02*
X126150000Y-112300000D01*
X128300000Y-110150000D01*
X128300000Y-112300000D01*
G36*
X128300000Y-112300000D02*
G01*
X126150000Y-112300000D01*
X128300000Y-110150000D01*
X128300000Y-112300000D01*
G37*
X128300000Y-110150000D02*
X127250000Y-109100000D01*
X128300000Y-109100000D01*
X128300000Y-110150000D01*
G36*
X128300000Y-110150000D02*
G01*
X127250000Y-109100000D01*
X128300000Y-109100000D01*
X128300000Y-110150000D01*
G37*
%TO.C,D82*%
X137100000Y-109100000D02*
X140300000Y-109100000D01*
X140300000Y-112300000D01*
X137100000Y-112300000D01*
X137100000Y-109100000D01*
X137100000Y-111250000D02*
X137100000Y-109100000D01*
X139250000Y-109100000D01*
X137100000Y-111250000D01*
G36*
X137100000Y-111250000D02*
G01*
X137100000Y-109100000D01*
X139250000Y-109100000D01*
X137100000Y-111250000D01*
G37*
X138150000Y-112300000D02*
X137100000Y-112300000D01*
X137100000Y-111250000D01*
X138150000Y-112300000D01*
G36*
X138150000Y-112300000D02*
G01*
X137100000Y-112300000D01*
X137100000Y-111250000D01*
X138150000Y-112300000D01*
G37*
X140300000Y-112300000D02*
X138150000Y-112300000D01*
X140300000Y-110150000D01*
X140300000Y-112300000D01*
G36*
X140300000Y-112300000D02*
G01*
X138150000Y-112300000D01*
X140300000Y-110150000D01*
X140300000Y-112300000D01*
G37*
X140300000Y-110150000D02*
X139250000Y-109100000D01*
X140300000Y-109100000D01*
X140300000Y-110150000D01*
G36*
X140300000Y-110150000D02*
G01*
X139250000Y-109100000D01*
X140300000Y-109100000D01*
X140300000Y-110150000D01*
G37*
%TO.C,D92*%
X137100000Y-105100000D02*
X140300000Y-105100000D01*
X140300000Y-108300000D01*
X137100000Y-108300000D01*
X137100000Y-105100000D01*
X137100000Y-107250000D02*
X137100000Y-105100000D01*
X139250000Y-105100000D01*
X137100000Y-107250000D01*
G36*
X137100000Y-107250000D02*
G01*
X137100000Y-105100000D01*
X139250000Y-105100000D01*
X137100000Y-107250000D01*
G37*
X138150000Y-108300000D02*
X137100000Y-108300000D01*
X137100000Y-107250000D01*
X138150000Y-108300000D01*
G36*
X138150000Y-108300000D02*
G01*
X137100000Y-108300000D01*
X137100000Y-107250000D01*
X138150000Y-108300000D01*
G37*
X140300000Y-108300000D02*
X138150000Y-108300000D01*
X140300000Y-106150000D01*
X140300000Y-108300000D01*
G36*
X140300000Y-108300000D02*
G01*
X138150000Y-108300000D01*
X140300000Y-106150000D01*
X140300000Y-108300000D01*
G37*
X140300000Y-106150000D02*
X139250000Y-105100000D01*
X140300000Y-105100000D01*
X140300000Y-106150000D01*
G36*
X140300000Y-106150000D02*
G01*
X139250000Y-105100000D01*
X140300000Y-105100000D01*
X140300000Y-106150000D01*
G37*
%TO.C,D40*%
X105100000Y-129100000D02*
X108300000Y-129100000D01*
X108300000Y-132300000D01*
X105100000Y-132300000D01*
X105100000Y-129100000D01*
X105100000Y-131250000D02*
X105100000Y-129100000D01*
X107250000Y-129100000D01*
X105100000Y-131250000D01*
G36*
X105100000Y-131250000D02*
G01*
X105100000Y-129100000D01*
X107250000Y-129100000D01*
X105100000Y-131250000D01*
G37*
X106150000Y-132300000D02*
X105100000Y-132300000D01*
X105100000Y-131250000D01*
X106150000Y-132300000D01*
G36*
X106150000Y-132300000D02*
G01*
X105100000Y-132300000D01*
X105100000Y-131250000D01*
X106150000Y-132300000D01*
G37*
X108300000Y-132300000D02*
X106150000Y-132300000D01*
X108300000Y-130150000D01*
X108300000Y-132300000D01*
G36*
X108300000Y-132300000D02*
G01*
X106150000Y-132300000D01*
X108300000Y-130150000D01*
X108300000Y-132300000D01*
G37*
X108300000Y-130150000D02*
X107250000Y-129100000D01*
X108300000Y-129100000D01*
X108300000Y-130150000D01*
G36*
X108300000Y-130150000D02*
G01*
X107250000Y-129100000D01*
X108300000Y-129100000D01*
X108300000Y-130150000D01*
G37*
%TO.C,JP1*%
D11*
X164800000Y-131275000D02*
X166800000Y-131275000D01*
X164800000Y-134075000D02*
X164800000Y-131275000D01*
X166800000Y-131275000D02*
X166800000Y-134075000D01*
X166800000Y-134075000D02*
X164800000Y-134075000D01*
%TO.C,D78*%
D12*
X113100000Y-113100000D02*
X116300000Y-113100000D01*
X116300000Y-116300000D01*
X113100000Y-116300000D01*
X113100000Y-113100000D01*
X113100000Y-115250000D02*
X113100000Y-113100000D01*
X115250000Y-113100000D01*
X113100000Y-115250000D01*
G36*
X113100000Y-115250000D02*
G01*
X113100000Y-113100000D01*
X115250000Y-113100000D01*
X113100000Y-115250000D01*
G37*
X114150000Y-116300000D02*
X113100000Y-116300000D01*
X113100000Y-115250000D01*
X114150000Y-116300000D01*
G36*
X114150000Y-116300000D02*
G01*
X113100000Y-116300000D01*
X113100000Y-115250000D01*
X114150000Y-116300000D01*
G37*
X116300000Y-116300000D02*
X114150000Y-116300000D01*
X116300000Y-114150000D01*
X116300000Y-116300000D01*
G36*
X116300000Y-116300000D02*
G01*
X114150000Y-116300000D01*
X116300000Y-114150000D01*
X116300000Y-116300000D01*
G37*
X116300000Y-114150000D02*
X115250000Y-113100000D01*
X116300000Y-113100000D01*
X116300000Y-114150000D01*
G36*
X116300000Y-114150000D02*
G01*
X115250000Y-113100000D01*
X116300000Y-113100000D01*
X116300000Y-114150000D01*
G37*
%TO.C,R5*%
D11*
X171427064Y-125065000D02*
X170972936Y-125065000D01*
X171427064Y-126535000D02*
X170972936Y-126535000D01*
%TO.C,D2*%
D12*
X137100000Y-141100000D02*
X140300000Y-141100000D01*
X140300000Y-144300000D01*
X137100000Y-144300000D01*
X137100000Y-141100000D01*
X137100000Y-143250000D02*
X137100000Y-141100000D01*
X139250000Y-141100000D01*
X137100000Y-143250000D01*
G36*
X137100000Y-143250000D02*
G01*
X137100000Y-141100000D01*
X139250000Y-141100000D01*
X137100000Y-143250000D01*
G37*
X138150000Y-144300000D02*
X137100000Y-144300000D01*
X137100000Y-143250000D01*
X138150000Y-144300000D01*
G36*
X138150000Y-144300000D02*
G01*
X137100000Y-144300000D01*
X137100000Y-143250000D01*
X138150000Y-144300000D01*
G37*
X140300000Y-144300000D02*
X138150000Y-144300000D01*
X140300000Y-142150000D01*
X140300000Y-144300000D01*
G36*
X140300000Y-144300000D02*
G01*
X138150000Y-144300000D01*
X140300000Y-142150000D01*
X140300000Y-144300000D01*
G37*
X140300000Y-142150000D02*
X139250000Y-141100000D01*
X140300000Y-141100000D01*
X140300000Y-142150000D01*
G36*
X140300000Y-142150000D02*
G01*
X139250000Y-141100000D01*
X140300000Y-141100000D01*
X140300000Y-142150000D01*
G37*
%TO.C,D56*%
X121100000Y-121100000D02*
X124300000Y-121100000D01*
X124300000Y-124300000D01*
X121100000Y-124300000D01*
X121100000Y-121100000D01*
X121100000Y-123250000D02*
X121100000Y-121100000D01*
X123250000Y-121100000D01*
X121100000Y-123250000D01*
G36*
X121100000Y-123250000D02*
G01*
X121100000Y-121100000D01*
X123250000Y-121100000D01*
X121100000Y-123250000D01*
G37*
X122150000Y-124300000D02*
X121100000Y-124300000D01*
X121100000Y-123250000D01*
X122150000Y-124300000D01*
G36*
X122150000Y-124300000D02*
G01*
X121100000Y-124300000D01*
X121100000Y-123250000D01*
X122150000Y-124300000D01*
G37*
X124300000Y-124300000D02*
X122150000Y-124300000D01*
X124300000Y-122150000D01*
X124300000Y-124300000D01*
G36*
X124300000Y-124300000D02*
G01*
X122150000Y-124300000D01*
X124300000Y-122150000D01*
X124300000Y-124300000D01*
G37*
X124300000Y-122150000D02*
X123250000Y-121100000D01*
X124300000Y-121100000D01*
X124300000Y-122150000D01*
G36*
X124300000Y-122150000D02*
G01*
X123250000Y-121100000D01*
X124300000Y-121100000D01*
X124300000Y-122150000D01*
G37*
%TO.C,D26*%
X121100000Y-133100000D02*
X124300000Y-133100000D01*
X124300000Y-136300000D01*
X121100000Y-136300000D01*
X121100000Y-133100000D01*
X121100000Y-135250000D02*
X121100000Y-133100000D01*
X123250000Y-133100000D01*
X121100000Y-135250000D01*
G36*
X121100000Y-135250000D02*
G01*
X121100000Y-133100000D01*
X123250000Y-133100000D01*
X121100000Y-135250000D01*
G37*
X122150000Y-136300000D02*
X121100000Y-136300000D01*
X121100000Y-135250000D01*
X122150000Y-136300000D01*
G36*
X122150000Y-136300000D02*
G01*
X121100000Y-136300000D01*
X121100000Y-135250000D01*
X122150000Y-136300000D01*
G37*
X124300000Y-136300000D02*
X122150000Y-136300000D01*
X124300000Y-134150000D01*
X124300000Y-136300000D01*
G36*
X124300000Y-136300000D02*
G01*
X122150000Y-136300000D01*
X124300000Y-134150000D01*
X124300000Y-136300000D01*
G37*
X124300000Y-134150000D02*
X123250000Y-133100000D01*
X124300000Y-133100000D01*
X124300000Y-134150000D01*
G36*
X124300000Y-134150000D02*
G01*
X123250000Y-133100000D01*
X124300000Y-133100000D01*
X124300000Y-134150000D01*
G37*
%TO.C,D21*%
X141100000Y-133100000D02*
X144300000Y-133100000D01*
X144300000Y-136300000D01*
X141100000Y-136300000D01*
X141100000Y-133100000D01*
X141100000Y-135250000D02*
X141100000Y-133100000D01*
X143250000Y-133100000D01*
X141100000Y-135250000D01*
G36*
X141100000Y-135250000D02*
G01*
X141100000Y-133100000D01*
X143250000Y-133100000D01*
X141100000Y-135250000D01*
G37*
X142150000Y-136300000D02*
X141100000Y-136300000D01*
X141100000Y-135250000D01*
X142150000Y-136300000D01*
G36*
X142150000Y-136300000D02*
G01*
X141100000Y-136300000D01*
X141100000Y-135250000D01*
X142150000Y-136300000D01*
G37*
X144300000Y-136300000D02*
X142150000Y-136300000D01*
X144300000Y-134150000D01*
X144300000Y-136300000D01*
G36*
X144300000Y-136300000D02*
G01*
X142150000Y-136300000D01*
X144300000Y-134150000D01*
X144300000Y-136300000D01*
G37*
X144300000Y-134150000D02*
X143250000Y-133100000D01*
X144300000Y-133100000D01*
X144300000Y-134150000D01*
G36*
X144300000Y-134150000D02*
G01*
X143250000Y-133100000D01*
X144300000Y-133100000D01*
X144300000Y-134150000D01*
G37*
%TO.C,D36*%
X121100000Y-129100000D02*
X124300000Y-129100000D01*
X124300000Y-132300000D01*
X121100000Y-132300000D01*
X121100000Y-129100000D01*
X121100000Y-131250000D02*
X121100000Y-129100000D01*
X123250000Y-129100000D01*
X121100000Y-131250000D01*
G36*
X121100000Y-131250000D02*
G01*
X121100000Y-129100000D01*
X123250000Y-129100000D01*
X121100000Y-131250000D01*
G37*
X122150000Y-132300000D02*
X121100000Y-132300000D01*
X121100000Y-131250000D01*
X122150000Y-132300000D01*
G36*
X122150000Y-132300000D02*
G01*
X121100000Y-132300000D01*
X121100000Y-131250000D01*
X122150000Y-132300000D01*
G37*
X124300000Y-132300000D02*
X122150000Y-132300000D01*
X124300000Y-130150000D01*
X124300000Y-132300000D01*
G36*
X124300000Y-132300000D02*
G01*
X122150000Y-132300000D01*
X124300000Y-130150000D01*
X124300000Y-132300000D01*
G37*
X124300000Y-130150000D02*
X123250000Y-129100000D01*
X124300000Y-129100000D01*
X124300000Y-130150000D01*
G36*
X124300000Y-130150000D02*
G01*
X123250000Y-129100000D01*
X124300000Y-129100000D01*
X124300000Y-130150000D01*
G37*
%TO.C,R3*%
D11*
X170437258Y-116277500D02*
X169962742Y-116277500D01*
X170437258Y-117322500D02*
X169962742Y-117322500D01*
%TO.C,D60*%
D12*
X105100000Y-121100000D02*
X108300000Y-121100000D01*
X108300000Y-124300000D01*
X105100000Y-124300000D01*
X105100000Y-121100000D01*
X105100000Y-123250000D02*
X105100000Y-121100000D01*
X107250000Y-121100000D01*
X105100000Y-123250000D01*
G36*
X105100000Y-123250000D02*
G01*
X105100000Y-121100000D01*
X107250000Y-121100000D01*
X105100000Y-123250000D01*
G37*
X106150000Y-124300000D02*
X105100000Y-124300000D01*
X105100000Y-123250000D01*
X106150000Y-124300000D01*
G36*
X106150000Y-124300000D02*
G01*
X105100000Y-124300000D01*
X105100000Y-123250000D01*
X106150000Y-124300000D01*
G37*
X108300000Y-124300000D02*
X106150000Y-124300000D01*
X108300000Y-122150000D01*
X108300000Y-124300000D01*
G36*
X108300000Y-124300000D02*
G01*
X106150000Y-124300000D01*
X108300000Y-122150000D01*
X108300000Y-124300000D01*
G37*
X108300000Y-122150000D02*
X107250000Y-121100000D01*
X108300000Y-121100000D01*
X108300000Y-122150000D01*
G36*
X108300000Y-122150000D02*
G01*
X107250000Y-121100000D01*
X108300000Y-121100000D01*
X108300000Y-122150000D01*
G37*
%TO.C,D14*%
X129100000Y-137100000D02*
X132300000Y-137100000D01*
X132300000Y-140300000D01*
X129100000Y-140300000D01*
X129100000Y-137100000D01*
X129100000Y-139250000D02*
X129100000Y-137100000D01*
X131250000Y-137100000D01*
X129100000Y-139250000D01*
G36*
X129100000Y-139250000D02*
G01*
X129100000Y-137100000D01*
X131250000Y-137100000D01*
X129100000Y-139250000D01*
G37*
X130150000Y-140300000D02*
X129100000Y-140300000D01*
X129100000Y-139250000D01*
X130150000Y-140300000D01*
G36*
X130150000Y-140300000D02*
G01*
X129100000Y-140300000D01*
X129100000Y-139250000D01*
X130150000Y-140300000D01*
G37*
X132300000Y-140300000D02*
X130150000Y-140300000D01*
X132300000Y-138150000D01*
X132300000Y-140300000D01*
G36*
X132300000Y-140300000D02*
G01*
X130150000Y-140300000D01*
X132300000Y-138150000D01*
X132300000Y-140300000D01*
G37*
X132300000Y-138150000D02*
X131250000Y-137100000D01*
X132300000Y-137100000D01*
X132300000Y-138150000D01*
G36*
X132300000Y-138150000D02*
G01*
X131250000Y-137100000D01*
X132300000Y-137100000D01*
X132300000Y-138150000D01*
G37*
%TO.C,C5*%
D11*
X170034420Y-112890000D02*
X170315580Y-112890000D01*
X170034420Y-113910000D02*
X170315580Y-113910000D01*
%TO.C,U2*%
X168565000Y-118690000D02*
X168740000Y-118690000D01*
X168565000Y-119365000D02*
X168565000Y-118690000D01*
X168565000Y-121910000D02*
X168565000Y-121235000D01*
X168740000Y-121910000D02*
X168565000Y-121910000D01*
X171610000Y-118690000D02*
X171785000Y-118690000D01*
X171785000Y-118690000D02*
X171785000Y-119365000D01*
X171785000Y-121235000D02*
X171785000Y-121910000D01*
X171785000Y-121910000D02*
X171610000Y-121910000D01*
X171175000Y-118540000D02*
X170935000Y-118210000D01*
X171415000Y-118210000D01*
X171175000Y-118540000D01*
G36*
X171175000Y-118540000D02*
G01*
X170935000Y-118210000D01*
X171415000Y-118210000D01*
X171175000Y-118540000D01*
G37*
%TO.C,D9*%
D12*
X109100000Y-141100000D02*
X112300000Y-141100000D01*
X112300000Y-144300000D01*
X109100000Y-144300000D01*
X109100000Y-141100000D01*
X109100000Y-143250000D02*
X109100000Y-141100000D01*
X111250000Y-141100000D01*
X109100000Y-143250000D01*
G36*
X109100000Y-143250000D02*
G01*
X109100000Y-141100000D01*
X111250000Y-141100000D01*
X109100000Y-143250000D01*
G37*
X110150000Y-144300000D02*
X109100000Y-144300000D01*
X109100000Y-143250000D01*
X110150000Y-144300000D01*
G36*
X110150000Y-144300000D02*
G01*
X109100000Y-144300000D01*
X109100000Y-143250000D01*
X110150000Y-144300000D01*
G37*
X112300000Y-144300000D02*
X110150000Y-144300000D01*
X112300000Y-142150000D01*
X112300000Y-144300000D01*
G36*
X112300000Y-144300000D02*
G01*
X110150000Y-144300000D01*
X112300000Y-142150000D01*
X112300000Y-144300000D01*
G37*
X112300000Y-142150000D02*
X111250000Y-141100000D01*
X112300000Y-141100000D01*
X112300000Y-142150000D01*
G36*
X112300000Y-142150000D02*
G01*
X111250000Y-141100000D01*
X112300000Y-141100000D01*
X112300000Y-142150000D01*
G37*
%TO.C,D35*%
X125100000Y-129100000D02*
X128300000Y-129100000D01*
X128300000Y-132300000D01*
X125100000Y-132300000D01*
X125100000Y-129100000D01*
X125100000Y-131250000D02*
X125100000Y-129100000D01*
X127250000Y-129100000D01*
X125100000Y-131250000D01*
G36*
X125100000Y-131250000D02*
G01*
X125100000Y-129100000D01*
X127250000Y-129100000D01*
X125100000Y-131250000D01*
G37*
X126150000Y-132300000D02*
X125100000Y-132300000D01*
X125100000Y-131250000D01*
X126150000Y-132300000D01*
G36*
X126150000Y-132300000D02*
G01*
X125100000Y-132300000D01*
X125100000Y-131250000D01*
X126150000Y-132300000D01*
G37*
X128300000Y-132300000D02*
X126150000Y-132300000D01*
X128300000Y-130150000D01*
X128300000Y-132300000D01*
G36*
X128300000Y-132300000D02*
G01*
X126150000Y-132300000D01*
X128300000Y-130150000D01*
X128300000Y-132300000D01*
G37*
X128300000Y-130150000D02*
X127250000Y-129100000D01*
X128300000Y-129100000D01*
X128300000Y-130150000D01*
G36*
X128300000Y-130150000D02*
G01*
X127250000Y-129100000D01*
X128300000Y-129100000D01*
X128300000Y-130150000D01*
G37*
%TO.C,C4*%
D11*
X170034420Y-111380000D02*
X170315580Y-111380000D01*
X170034420Y-112400000D02*
X170315580Y-112400000D01*
%TO.C,D24*%
D12*
X129100000Y-133100000D02*
X132300000Y-133100000D01*
X132300000Y-136300000D01*
X129100000Y-136300000D01*
X129100000Y-133100000D01*
X129100000Y-135250000D02*
X129100000Y-133100000D01*
X131250000Y-133100000D01*
X129100000Y-135250000D01*
G36*
X129100000Y-135250000D02*
G01*
X129100000Y-133100000D01*
X131250000Y-133100000D01*
X129100000Y-135250000D01*
G37*
X130150000Y-136300000D02*
X129100000Y-136300000D01*
X129100000Y-135250000D01*
X130150000Y-136300000D01*
G36*
X130150000Y-136300000D02*
G01*
X129100000Y-136300000D01*
X129100000Y-135250000D01*
X130150000Y-136300000D01*
G37*
X132300000Y-136300000D02*
X130150000Y-136300000D01*
X132300000Y-134150000D01*
X132300000Y-136300000D01*
G36*
X132300000Y-136300000D02*
G01*
X130150000Y-136300000D01*
X132300000Y-134150000D01*
X132300000Y-136300000D01*
G37*
X132300000Y-134150000D02*
X131250000Y-133100000D01*
X132300000Y-133100000D01*
X132300000Y-134150000D01*
G36*
X132300000Y-134150000D02*
G01*
X131250000Y-133100000D01*
X132300000Y-133100000D01*
X132300000Y-134150000D01*
G37*
%TO.C,D65*%
X125100000Y-117100000D02*
X128300000Y-117100000D01*
X128300000Y-120300000D01*
X125100000Y-120300000D01*
X125100000Y-117100000D01*
X125100000Y-119250000D02*
X125100000Y-117100000D01*
X127250000Y-117100000D01*
X125100000Y-119250000D01*
G36*
X125100000Y-119250000D02*
G01*
X125100000Y-117100000D01*
X127250000Y-117100000D01*
X125100000Y-119250000D01*
G37*
X126150000Y-120300000D02*
X125100000Y-120300000D01*
X125100000Y-119250000D01*
X126150000Y-120300000D01*
G36*
X126150000Y-120300000D02*
G01*
X125100000Y-120300000D01*
X125100000Y-119250000D01*
X126150000Y-120300000D01*
G37*
X128300000Y-120300000D02*
X126150000Y-120300000D01*
X128300000Y-118150000D01*
X128300000Y-120300000D01*
G36*
X128300000Y-120300000D02*
G01*
X126150000Y-120300000D01*
X128300000Y-118150000D01*
X128300000Y-120300000D01*
G37*
X128300000Y-118150000D02*
X127250000Y-117100000D01*
X128300000Y-117100000D01*
X128300000Y-118150000D01*
G36*
X128300000Y-118150000D02*
G01*
X127250000Y-117100000D01*
X128300000Y-117100000D01*
X128300000Y-118150000D01*
G37*
%TO.C,D54*%
X129100000Y-121100000D02*
X132300000Y-121100000D01*
X132300000Y-124300000D01*
X129100000Y-124300000D01*
X129100000Y-121100000D01*
X129100000Y-123250000D02*
X129100000Y-121100000D01*
X131250000Y-121100000D01*
X129100000Y-123250000D01*
G36*
X129100000Y-123250000D02*
G01*
X129100000Y-121100000D01*
X131250000Y-121100000D01*
X129100000Y-123250000D01*
G37*
X130150000Y-124300000D02*
X129100000Y-124300000D01*
X129100000Y-123250000D01*
X130150000Y-124300000D01*
G36*
X130150000Y-124300000D02*
G01*
X129100000Y-124300000D01*
X129100000Y-123250000D01*
X130150000Y-124300000D01*
G37*
X132300000Y-124300000D02*
X130150000Y-124300000D01*
X132300000Y-122150000D01*
X132300000Y-124300000D01*
G36*
X132300000Y-124300000D02*
G01*
X130150000Y-124300000D01*
X132300000Y-122150000D01*
X132300000Y-124300000D01*
G37*
X132300000Y-122150000D02*
X131250000Y-121100000D01*
X132300000Y-121100000D01*
X132300000Y-122150000D01*
G36*
X132300000Y-122150000D02*
G01*
X131250000Y-121100000D01*
X132300000Y-121100000D01*
X132300000Y-122150000D01*
G37*
%TO.C,R16*%
D11*
X148227064Y-109965000D02*
X147772936Y-109965000D01*
X148227064Y-111435000D02*
X147772936Y-111435000D01*
%TO.C,D69*%
D12*
X109100000Y-117100000D02*
X112300000Y-117100000D01*
X112300000Y-120300000D01*
X109100000Y-120300000D01*
X109100000Y-117100000D01*
X109100000Y-119250000D02*
X109100000Y-117100000D01*
X111250000Y-117100000D01*
X109100000Y-119250000D01*
G36*
X109100000Y-119250000D02*
G01*
X109100000Y-117100000D01*
X111250000Y-117100000D01*
X109100000Y-119250000D01*
G37*
X110150000Y-120300000D02*
X109100000Y-120300000D01*
X109100000Y-119250000D01*
X110150000Y-120300000D01*
G36*
X110150000Y-120300000D02*
G01*
X109100000Y-120300000D01*
X109100000Y-119250000D01*
X110150000Y-120300000D01*
G37*
X112300000Y-120300000D02*
X110150000Y-120300000D01*
X112300000Y-118150000D01*
X112300000Y-120300000D01*
G36*
X112300000Y-120300000D02*
G01*
X110150000Y-120300000D01*
X112300000Y-118150000D01*
X112300000Y-120300000D01*
G37*
X112300000Y-118150000D02*
X111250000Y-117100000D01*
X112300000Y-117100000D01*
X112300000Y-118150000D01*
G36*
X112300000Y-118150000D02*
G01*
X111250000Y-117100000D01*
X112300000Y-117100000D01*
X112300000Y-118150000D01*
G37*
%TO.C,D94*%
X129100000Y-105100000D02*
X132300000Y-105100000D01*
X132300000Y-108300000D01*
X129100000Y-108300000D01*
X129100000Y-105100000D01*
X129100000Y-107250000D02*
X129100000Y-105100000D01*
X131250000Y-105100000D01*
X129100000Y-107250000D01*
G36*
X129100000Y-107250000D02*
G01*
X129100000Y-105100000D01*
X131250000Y-105100000D01*
X129100000Y-107250000D01*
G37*
X130150000Y-108300000D02*
X129100000Y-108300000D01*
X129100000Y-107250000D01*
X130150000Y-108300000D01*
G36*
X130150000Y-108300000D02*
G01*
X129100000Y-108300000D01*
X129100000Y-107250000D01*
X130150000Y-108300000D01*
G37*
X132300000Y-108300000D02*
X130150000Y-108300000D01*
X132300000Y-106150000D01*
X132300000Y-108300000D01*
G36*
X132300000Y-108300000D02*
G01*
X130150000Y-108300000D01*
X132300000Y-106150000D01*
X132300000Y-108300000D01*
G37*
X132300000Y-106150000D02*
X131250000Y-105100000D01*
X132300000Y-105100000D01*
X132300000Y-106150000D01*
G36*
X132300000Y-106150000D02*
G01*
X131250000Y-105100000D01*
X132300000Y-105100000D01*
X132300000Y-106150000D01*
G37*
%TO.C,D16*%
X121100000Y-137100000D02*
X124300000Y-137100000D01*
X124300000Y-140300000D01*
X121100000Y-140300000D01*
X121100000Y-137100000D01*
X121100000Y-139250000D02*
X121100000Y-137100000D01*
X123250000Y-137100000D01*
X121100000Y-139250000D01*
G36*
X121100000Y-139250000D02*
G01*
X121100000Y-137100000D01*
X123250000Y-137100000D01*
X121100000Y-139250000D01*
G37*
X122150000Y-140300000D02*
X121100000Y-140300000D01*
X121100000Y-139250000D01*
X122150000Y-140300000D01*
G36*
X122150000Y-140300000D02*
G01*
X121100000Y-140300000D01*
X121100000Y-139250000D01*
X122150000Y-140300000D01*
G37*
X124300000Y-140300000D02*
X122150000Y-140300000D01*
X124300000Y-138150000D01*
X124300000Y-140300000D01*
G36*
X124300000Y-140300000D02*
G01*
X122150000Y-140300000D01*
X124300000Y-138150000D01*
X124300000Y-140300000D01*
G37*
X124300000Y-138150000D02*
X123250000Y-137100000D01*
X124300000Y-137100000D01*
X124300000Y-138150000D01*
G36*
X124300000Y-138150000D02*
G01*
X123250000Y-137100000D01*
X124300000Y-137100000D01*
X124300000Y-138150000D01*
G37*
%TO.C,D39*%
X109100000Y-129100000D02*
X112300000Y-129100000D01*
X112300000Y-132300000D01*
X109100000Y-132300000D01*
X109100000Y-129100000D01*
X109100000Y-131250000D02*
X109100000Y-129100000D01*
X111250000Y-129100000D01*
X109100000Y-131250000D01*
G36*
X109100000Y-131250000D02*
G01*
X109100000Y-129100000D01*
X111250000Y-129100000D01*
X109100000Y-131250000D01*
G37*
X110150000Y-132300000D02*
X109100000Y-132300000D01*
X109100000Y-131250000D01*
X110150000Y-132300000D01*
G36*
X110150000Y-132300000D02*
G01*
X109100000Y-132300000D01*
X109100000Y-131250000D01*
X110150000Y-132300000D01*
G37*
X112300000Y-132300000D02*
X110150000Y-132300000D01*
X112300000Y-130150000D01*
X112300000Y-132300000D01*
G36*
X112300000Y-132300000D02*
G01*
X110150000Y-132300000D01*
X112300000Y-130150000D01*
X112300000Y-132300000D01*
G37*
X112300000Y-130150000D02*
X111250000Y-129100000D01*
X112300000Y-129100000D01*
X112300000Y-130150000D01*
G36*
X112300000Y-130150000D02*
G01*
X111250000Y-129100000D01*
X112300000Y-129100000D01*
X112300000Y-130150000D01*
G37*
%TO.C,D96*%
X121100000Y-105100000D02*
X124300000Y-105100000D01*
X124300000Y-108300000D01*
X121100000Y-108300000D01*
X121100000Y-105100000D01*
X121100000Y-107250000D02*
X121100000Y-105100000D01*
X123250000Y-105100000D01*
X121100000Y-107250000D01*
G36*
X121100000Y-107250000D02*
G01*
X121100000Y-105100000D01*
X123250000Y-105100000D01*
X121100000Y-107250000D01*
G37*
X122150000Y-108300000D02*
X121100000Y-108300000D01*
X121100000Y-107250000D01*
X122150000Y-108300000D01*
G36*
X122150000Y-108300000D02*
G01*
X121100000Y-108300000D01*
X121100000Y-107250000D01*
X122150000Y-108300000D01*
G37*
X124300000Y-108300000D02*
X122150000Y-108300000D01*
X124300000Y-106150000D01*
X124300000Y-108300000D01*
G36*
X124300000Y-108300000D02*
G01*
X122150000Y-108300000D01*
X124300000Y-106150000D01*
X124300000Y-108300000D01*
G37*
X124300000Y-106150000D02*
X123250000Y-105100000D01*
X124300000Y-105100000D01*
X124300000Y-106150000D01*
G36*
X124300000Y-106150000D02*
G01*
X123250000Y-105100000D01*
X124300000Y-105100000D01*
X124300000Y-106150000D01*
G37*
D13*
%TO.C,kibuzzard-6A21B8D0*%
G36*
X155877136Y-122065975D02*
G01*
X155975377Y-122113762D01*
X156082757Y-122190870D01*
X156199276Y-122297298D01*
X156306656Y-122414768D01*
X156384334Y-122522719D01*
X156432312Y-122621150D01*
X156447733Y-122748378D01*
X156395799Y-122846803D01*
X156394615Y-122849047D01*
X156295017Y-122901094D01*
X156167575Y-122885887D01*
X156068668Y-122838385D01*
X155960432Y-122760991D01*
X155842866Y-122653707D01*
X155736534Y-122537093D01*
X155671803Y-122446373D01*
X155854861Y-122446373D01*
X155909693Y-122552610D01*
X156015074Y-122606585D01*
X156118741Y-122569744D01*
X156153011Y-122468648D01*
X156099892Y-122362411D01*
X155992798Y-122308435D01*
X155890844Y-122341848D01*
X155854861Y-122446373D01*
X155671803Y-122446373D01*
X155659712Y-122429428D01*
X155612400Y-122330711D01*
X155597192Y-122203269D01*
X155649240Y-122103672D01*
X155749908Y-122050553D01*
X155877136Y-122065975D01*
G37*
G36*
X156733890Y-121209221D02*
G01*
X156832131Y-121257009D01*
X156939510Y-121334117D01*
X157056029Y-121440544D01*
X157163408Y-121558015D01*
X157241087Y-121665966D01*
X157289065Y-121764397D01*
X157304486Y-121891625D01*
X157252552Y-121990051D01*
X157251368Y-121992293D01*
X157151771Y-122044341D01*
X157024329Y-122029134D01*
X156925421Y-121981632D01*
X156817185Y-121904238D01*
X156699620Y-121796954D01*
X156593287Y-121680340D01*
X156528555Y-121589619D01*
X156711614Y-121589619D01*
X156766446Y-121695857D01*
X156871827Y-121749832D01*
X156975493Y-121712992D01*
X157009764Y-121611895D01*
X156956645Y-121505658D01*
X156849551Y-121451683D01*
X156747597Y-121485096D01*
X156711614Y-121589619D01*
X156528555Y-121589619D01*
X156516465Y-121572675D01*
X156469153Y-121473958D01*
X156453945Y-121346515D01*
X156505993Y-121246919D01*
X156606661Y-121193799D01*
X156733890Y-121209221D01*
G37*
G36*
X158925654Y-119574346D02*
G01*
X159205336Y-120972757D01*
X158919752Y-121258341D01*
X158511937Y-121666156D01*
X157718584Y-122459509D01*
X156861831Y-123316263D01*
X155895414Y-124282679D01*
X155598977Y-124579116D01*
X155313393Y-124864700D01*
X153659290Y-123210597D01*
X154230457Y-123210597D01*
X154346119Y-123286847D01*
X154494337Y-123378520D01*
X154606762Y-123445632D01*
X154724709Y-123514458D01*
X154848176Y-123584997D01*
X154975071Y-123655918D01*
X155103298Y-123725885D01*
X155232859Y-123794902D01*
X155419202Y-123891287D01*
X155587554Y-123974820D01*
X155805169Y-123757205D01*
X155746625Y-123633166D01*
X155685224Y-123507794D01*
X155620967Y-123381090D01*
X155554997Y-123255147D01*
X155488456Y-123132060D01*
X155421344Y-123011829D01*
X155321318Y-122838980D01*
X155223434Y-122676839D01*
X155130262Y-122528407D01*
X155044372Y-122396681D01*
X154823331Y-122617723D01*
X154897011Y-122722247D01*
X154980973Y-122843906D01*
X155070717Y-122976489D01*
X155161747Y-123113783D01*
X155251707Y-123253434D01*
X155338239Y-123393084D01*
X155416846Y-123526524D01*
X155483030Y-123647540D01*
X155360514Y-123580285D01*
X155226004Y-123501892D01*
X155085497Y-123416217D01*
X154944989Y-123327114D01*
X154807266Y-123236941D01*
X154675111Y-123148053D01*
X154554952Y-123063877D01*
X154453213Y-122987840D01*
X154230457Y-123210597D01*
X153659290Y-123210597D01*
X153635300Y-123186607D01*
X153920884Y-122901023D01*
X154637701Y-122184206D01*
X155330718Y-122184206D01*
X155333955Y-122333281D01*
X155369296Y-122452584D01*
X155434195Y-122577455D01*
X155528652Y-122707897D01*
X155652667Y-122843906D01*
X155790069Y-122969527D01*
X155921259Y-123065376D01*
X156046238Y-123131453D01*
X156165005Y-123167759D01*
X156313510Y-123171567D01*
X156450590Y-123125873D01*
X156576246Y-123030678D01*
X156671441Y-122905021D01*
X156717135Y-122767941D01*
X156713328Y-122619436D01*
X156677022Y-122500669D01*
X156610945Y-122375690D01*
X156515096Y-122244500D01*
X156389475Y-122107099D01*
X156252876Y-121982280D01*
X156122381Y-121887127D01*
X155997992Y-121821640D01*
X155879707Y-121785815D01*
X155731679Y-121782484D01*
X155594883Y-121828463D01*
X155469322Y-121923754D01*
X155375841Y-122047697D01*
X155330718Y-122184206D01*
X154637701Y-122184206D01*
X155494454Y-121327453D01*
X156187471Y-121327453D01*
X156190708Y-121476528D01*
X156226049Y-121595831D01*
X156290948Y-121720703D01*
X156385405Y-121851144D01*
X156509421Y-121987153D01*
X156646821Y-122112775D01*
X156778012Y-122208624D01*
X156902991Y-122274701D01*
X157021758Y-122311006D01*
X157170263Y-122314813D01*
X157307342Y-122269120D01*
X157433000Y-122173925D01*
X157528195Y-122048268D01*
X157573889Y-121911188D01*
X157570080Y-121762684D01*
X157533775Y-121643916D01*
X157467698Y-121518937D01*
X157371849Y-121387747D01*
X157246228Y-121250345D01*
X157109629Y-121125527D01*
X156979135Y-121030374D01*
X156854745Y-120964886D01*
X156736459Y-120929063D01*
X156588432Y-120925731D01*
X156451637Y-120971710D01*
X156326075Y-121067000D01*
X156232594Y-121190943D01*
X156187471Y-121327453D01*
X155494454Y-121327453D01*
X156178143Y-120643764D01*
X156937796Y-120643764D01*
X157167406Y-120722586D01*
X157220525Y-120571797D01*
X157319908Y-120433003D01*
X157450135Y-120369603D01*
X157576935Y-120426149D01*
X157625770Y-120507540D01*
X157624913Y-120590645D01*
X157588929Y-120671180D01*
X157530670Y-120743148D01*
X157451848Y-120821969D01*
X157626625Y-120996746D01*
X157691738Y-120931633D01*
X157793907Y-120846172D01*
X157894790Y-120795409D01*
X157990960Y-120791340D01*
X158078992Y-120845958D01*
X158150102Y-121004457D01*
X158125041Y-121098914D01*
X158044721Y-121202367D01*
X157958832Y-121278832D01*
X157875941Y-121333451D01*
X157738004Y-121399420D01*
X157873371Y-121617035D01*
X157945338Y-121582765D01*
X158038724Y-121527077D01*
X158137251Y-121457680D01*
X158226353Y-121380572D01*
X158319097Y-121275405D01*
X158384852Y-121172381D01*
X158425120Y-121072141D01*
X158441398Y-120975328D01*
X158407985Y-120794553D01*
X158296607Y-120635196D01*
X158199151Y-120560445D01*
X158091843Y-120521249D01*
X157978537Y-120517179D01*
X157863090Y-120547808D01*
X157869944Y-120362749D01*
X157784268Y-120205107D01*
X157645475Y-120107437D01*
X157486975Y-120075736D01*
X157315624Y-120122002D01*
X157227165Y-120177049D01*
X157138277Y-120254798D01*
X157055172Y-120353754D01*
X156997769Y-120458705D01*
X156937796Y-120643764D01*
X156178143Y-120643764D01*
X157241659Y-119580248D01*
X157527243Y-119294664D01*
X158925654Y-119574346D01*
G37*
%TO.C,D41*%
D12*
X141100000Y-125100000D02*
X144300000Y-125100000D01*
X144300000Y-128300000D01*
X141100000Y-128300000D01*
X141100000Y-125100000D01*
X141100000Y-127250000D02*
X141100000Y-125100000D01*
X143250000Y-125100000D01*
X141100000Y-127250000D01*
G36*
X141100000Y-127250000D02*
G01*
X141100000Y-125100000D01*
X143250000Y-125100000D01*
X141100000Y-127250000D01*
G37*
X142150000Y-128300000D02*
X141100000Y-128300000D01*
X141100000Y-127250000D01*
X142150000Y-128300000D01*
G36*
X142150000Y-128300000D02*
G01*
X141100000Y-128300000D01*
X141100000Y-127250000D01*
X142150000Y-128300000D01*
G37*
X144300000Y-128300000D02*
X142150000Y-128300000D01*
X144300000Y-126150000D01*
X144300000Y-128300000D01*
G36*
X144300000Y-128300000D02*
G01*
X142150000Y-128300000D01*
X144300000Y-126150000D01*
X144300000Y-128300000D01*
G37*
X144300000Y-126150000D02*
X143250000Y-125100000D01*
X144300000Y-125100000D01*
X144300000Y-126150000D01*
G36*
X144300000Y-126150000D02*
G01*
X143250000Y-125100000D01*
X144300000Y-125100000D01*
X144300000Y-126150000D01*
G37*
%TO.C,C1*%
D11*
X163244420Y-118000000D02*
X163525580Y-118000000D01*
X163244420Y-119020000D02*
X163525580Y-119020000D01*
%TO.C,U1*%
X157730000Y-113980000D02*
X158180000Y-113980000D01*
X157730000Y-114430000D02*
X157730000Y-113980000D01*
X157730000Y-117200000D02*
X157730000Y-116750000D01*
X158180000Y-117200000D02*
X157730000Y-117200000D01*
X160500000Y-113980000D02*
X160950000Y-113980000D01*
X160950000Y-113980000D02*
X160950000Y-114430000D01*
X160950000Y-116750000D02*
X160950000Y-117200000D01*
X160950000Y-117200000D02*
X160500000Y-117200000D01*
X158780000Y-118060000D02*
X158300000Y-118060000D01*
X158540000Y-117730000D01*
X158780000Y-118060000D01*
G36*
X158780000Y-118060000D02*
G01*
X158300000Y-118060000D01*
X158540000Y-117730000D01*
X158780000Y-118060000D01*
G37*
%TO.C,D58*%
D12*
X113100000Y-121100000D02*
X116300000Y-121100000D01*
X116300000Y-124300000D01*
X113100000Y-124300000D01*
X113100000Y-121100000D01*
X113100000Y-123250000D02*
X113100000Y-121100000D01*
X115250000Y-121100000D01*
X113100000Y-123250000D01*
G36*
X113100000Y-123250000D02*
G01*
X113100000Y-121100000D01*
X115250000Y-121100000D01*
X113100000Y-123250000D01*
G37*
X114150000Y-124300000D02*
X113100000Y-124300000D01*
X113100000Y-123250000D01*
X114150000Y-124300000D01*
G36*
X114150000Y-124300000D02*
G01*
X113100000Y-124300000D01*
X113100000Y-123250000D01*
X114150000Y-124300000D01*
G37*
X116300000Y-124300000D02*
X114150000Y-124300000D01*
X116300000Y-122150000D01*
X116300000Y-124300000D01*
G36*
X116300000Y-124300000D02*
G01*
X114150000Y-124300000D01*
X116300000Y-122150000D01*
X116300000Y-124300000D01*
G37*
X116300000Y-122150000D02*
X115250000Y-121100000D01*
X116300000Y-121100000D01*
X116300000Y-122150000D01*
G36*
X116300000Y-122150000D02*
G01*
X115250000Y-121100000D01*
X116300000Y-121100000D01*
X116300000Y-122150000D01*
G37*
%TO.C,D59*%
X109100000Y-121100000D02*
X112300000Y-121100000D01*
X112300000Y-124300000D01*
X109100000Y-124300000D01*
X109100000Y-121100000D01*
X109100000Y-123250000D02*
X109100000Y-121100000D01*
X111250000Y-121100000D01*
X109100000Y-123250000D01*
G36*
X109100000Y-123250000D02*
G01*
X109100000Y-121100000D01*
X111250000Y-121100000D01*
X109100000Y-123250000D01*
G37*
X110150000Y-124300000D02*
X109100000Y-124300000D01*
X109100000Y-123250000D01*
X110150000Y-124300000D01*
G36*
X110150000Y-124300000D02*
G01*
X109100000Y-124300000D01*
X109100000Y-123250000D01*
X110150000Y-124300000D01*
G37*
X112300000Y-124300000D02*
X110150000Y-124300000D01*
X112300000Y-122150000D01*
X112300000Y-124300000D01*
G36*
X112300000Y-124300000D02*
G01*
X110150000Y-124300000D01*
X112300000Y-122150000D01*
X112300000Y-124300000D01*
G37*
X112300000Y-122150000D02*
X111250000Y-121100000D01*
X112300000Y-121100000D01*
X112300000Y-122150000D01*
G36*
X112300000Y-122150000D02*
G01*
X111250000Y-121100000D01*
X112300000Y-121100000D01*
X112300000Y-122150000D01*
G37*
%TO.C,D37*%
X117100000Y-129100000D02*
X120300000Y-129100000D01*
X120300000Y-132300000D01*
X117100000Y-132300000D01*
X117100000Y-129100000D01*
X117100000Y-131250000D02*
X117100000Y-129100000D01*
X119250000Y-129100000D01*
X117100000Y-131250000D01*
G36*
X117100000Y-131250000D02*
G01*
X117100000Y-129100000D01*
X119250000Y-129100000D01*
X117100000Y-131250000D01*
G37*
X118150000Y-132300000D02*
X117100000Y-132300000D01*
X117100000Y-131250000D01*
X118150000Y-132300000D01*
G36*
X118150000Y-132300000D02*
G01*
X117100000Y-132300000D01*
X117100000Y-131250000D01*
X118150000Y-132300000D01*
G37*
X120300000Y-132300000D02*
X118150000Y-132300000D01*
X120300000Y-130150000D01*
X120300000Y-132300000D01*
G36*
X120300000Y-132300000D02*
G01*
X118150000Y-132300000D01*
X120300000Y-130150000D01*
X120300000Y-132300000D01*
G37*
X120300000Y-130150000D02*
X119250000Y-129100000D01*
X120300000Y-129100000D01*
X120300000Y-130150000D01*
G36*
X120300000Y-130150000D02*
G01*
X119250000Y-129100000D01*
X120300000Y-129100000D01*
X120300000Y-130150000D01*
G37*
%TO.C,D31*%
X141100000Y-129100000D02*
X144300000Y-129100000D01*
X144300000Y-132300000D01*
X141100000Y-132300000D01*
X141100000Y-129100000D01*
X141100000Y-131250000D02*
X141100000Y-129100000D01*
X143250000Y-129100000D01*
X141100000Y-131250000D01*
G36*
X141100000Y-131250000D02*
G01*
X141100000Y-129100000D01*
X143250000Y-129100000D01*
X141100000Y-131250000D01*
G37*
X142150000Y-132300000D02*
X141100000Y-132300000D01*
X141100000Y-131250000D01*
X142150000Y-132300000D01*
G36*
X142150000Y-132300000D02*
G01*
X141100000Y-132300000D01*
X141100000Y-131250000D01*
X142150000Y-132300000D01*
G37*
X144300000Y-132300000D02*
X142150000Y-132300000D01*
X144300000Y-130150000D01*
X144300000Y-132300000D01*
G36*
X144300000Y-132300000D02*
G01*
X142150000Y-132300000D01*
X144300000Y-130150000D01*
X144300000Y-132300000D01*
G37*
X144300000Y-130150000D02*
X143250000Y-129100000D01*
X144300000Y-129100000D01*
X144300000Y-130150000D01*
G36*
X144300000Y-130150000D02*
G01*
X143250000Y-129100000D01*
X144300000Y-129100000D01*
X144300000Y-130150000D01*
G37*
%TO.C,J2*%
X175098500Y-107260000D02*
X174209500Y-107260000D01*
X175098500Y-108530000D02*
X174209500Y-108530000D01*
X175098500Y-107260000D02*
G75*
G02*
X175098500Y-108530000I0J-635000D01*
G01*
%TO.C,D32*%
X137100000Y-129100000D02*
X140300000Y-129100000D01*
X140300000Y-132300000D01*
X137100000Y-132300000D01*
X137100000Y-129100000D01*
X137100000Y-131250000D02*
X137100000Y-129100000D01*
X139250000Y-129100000D01*
X137100000Y-131250000D01*
G36*
X137100000Y-131250000D02*
G01*
X137100000Y-129100000D01*
X139250000Y-129100000D01*
X137100000Y-131250000D01*
G37*
X138150000Y-132300000D02*
X137100000Y-132300000D01*
X137100000Y-131250000D01*
X138150000Y-132300000D01*
G36*
X138150000Y-132300000D02*
G01*
X137100000Y-132300000D01*
X137100000Y-131250000D01*
X138150000Y-132300000D01*
G37*
X140300000Y-132300000D02*
X138150000Y-132300000D01*
X140300000Y-130150000D01*
X140300000Y-132300000D01*
G36*
X140300000Y-132300000D02*
G01*
X138150000Y-132300000D01*
X140300000Y-130150000D01*
X140300000Y-132300000D01*
G37*
X140300000Y-130150000D02*
X139250000Y-129100000D01*
X140300000Y-129100000D01*
X140300000Y-130150000D01*
G36*
X140300000Y-130150000D02*
G01*
X139250000Y-129100000D01*
X140300000Y-129100000D01*
X140300000Y-130150000D01*
G37*
%TO.C,D3*%
X133100000Y-141100000D02*
X136300000Y-141100000D01*
X136300000Y-144300000D01*
X133100000Y-144300000D01*
X133100000Y-141100000D01*
X133100000Y-143250000D02*
X133100000Y-141100000D01*
X135250000Y-141100000D01*
X133100000Y-143250000D01*
G36*
X133100000Y-143250000D02*
G01*
X133100000Y-141100000D01*
X135250000Y-141100000D01*
X133100000Y-143250000D01*
G37*
X134150000Y-144300000D02*
X133100000Y-144300000D01*
X133100000Y-143250000D01*
X134150000Y-144300000D01*
G36*
X134150000Y-144300000D02*
G01*
X133100000Y-144300000D01*
X133100000Y-143250000D01*
X134150000Y-144300000D01*
G37*
X136300000Y-144300000D02*
X134150000Y-144300000D01*
X136300000Y-142150000D01*
X136300000Y-144300000D01*
G36*
X136300000Y-144300000D02*
G01*
X134150000Y-144300000D01*
X136300000Y-142150000D01*
X136300000Y-144300000D01*
G37*
X136300000Y-142150000D02*
X135250000Y-141100000D01*
X136300000Y-141100000D01*
X136300000Y-142150000D01*
G36*
X136300000Y-142150000D02*
G01*
X135250000Y-141100000D01*
X136300000Y-141100000D01*
X136300000Y-142150000D01*
G37*
%TO.C,D66*%
X121100000Y-117100000D02*
X124300000Y-117100000D01*
X124300000Y-120300000D01*
X121100000Y-120300000D01*
X121100000Y-117100000D01*
X121100000Y-119250000D02*
X121100000Y-117100000D01*
X123250000Y-117100000D01*
X121100000Y-119250000D01*
G36*
X121100000Y-119250000D02*
G01*
X121100000Y-117100000D01*
X123250000Y-117100000D01*
X121100000Y-119250000D01*
G37*
X122150000Y-120300000D02*
X121100000Y-120300000D01*
X121100000Y-119250000D01*
X122150000Y-120300000D01*
G36*
X122150000Y-120300000D02*
G01*
X121100000Y-120300000D01*
X121100000Y-119250000D01*
X122150000Y-120300000D01*
G37*
X124300000Y-120300000D02*
X122150000Y-120300000D01*
X124300000Y-118150000D01*
X124300000Y-120300000D01*
G36*
X124300000Y-120300000D02*
G01*
X122150000Y-120300000D01*
X124300000Y-118150000D01*
X124300000Y-120300000D01*
G37*
X124300000Y-118150000D02*
X123250000Y-117100000D01*
X124300000Y-117100000D01*
X124300000Y-118150000D01*
G36*
X124300000Y-118150000D02*
G01*
X123250000Y-117100000D01*
X124300000Y-117100000D01*
X124300000Y-118150000D01*
G37*
%TO.C,D23*%
X133100000Y-133100000D02*
X136300000Y-133100000D01*
X136300000Y-136300000D01*
X133100000Y-136300000D01*
X133100000Y-133100000D01*
X133100000Y-135250000D02*
X133100000Y-133100000D01*
X135250000Y-133100000D01*
X133100000Y-135250000D01*
G36*
X133100000Y-135250000D02*
G01*
X133100000Y-133100000D01*
X135250000Y-133100000D01*
X133100000Y-135250000D01*
G37*
X134150000Y-136300000D02*
X133100000Y-136300000D01*
X133100000Y-135250000D01*
X134150000Y-136300000D01*
G36*
X134150000Y-136300000D02*
G01*
X133100000Y-136300000D01*
X133100000Y-135250000D01*
X134150000Y-136300000D01*
G37*
X136300000Y-136300000D02*
X134150000Y-136300000D01*
X136300000Y-134150000D01*
X136300000Y-136300000D01*
G36*
X136300000Y-136300000D02*
G01*
X134150000Y-136300000D01*
X136300000Y-134150000D01*
X136300000Y-136300000D01*
G37*
X136300000Y-134150000D02*
X135250000Y-133100000D01*
X136300000Y-133100000D01*
X136300000Y-134150000D01*
G36*
X136300000Y-134150000D02*
G01*
X135250000Y-133100000D01*
X136300000Y-133100000D01*
X136300000Y-134150000D01*
G37*
%TO.C,R15*%
D11*
X148227064Y-113965000D02*
X147772936Y-113965000D01*
X148227064Y-115435000D02*
X147772936Y-115435000D01*
%TO.C,R7*%
X156077500Y-136387742D02*
X156077500Y-136862258D01*
X157122500Y-136387742D02*
X157122500Y-136862258D01*
%TO.C,D15*%
D12*
X125100000Y-137100000D02*
X128300000Y-137100000D01*
X128300000Y-140300000D01*
X125100000Y-140300000D01*
X125100000Y-137100000D01*
X125100000Y-139250000D02*
X125100000Y-137100000D01*
X127250000Y-137100000D01*
X125100000Y-139250000D01*
G36*
X125100000Y-139250000D02*
G01*
X125100000Y-137100000D01*
X127250000Y-137100000D01*
X125100000Y-139250000D01*
G37*
X126150000Y-140300000D02*
X125100000Y-140300000D01*
X125100000Y-139250000D01*
X126150000Y-140300000D01*
G36*
X126150000Y-140300000D02*
G01*
X125100000Y-140300000D01*
X125100000Y-139250000D01*
X126150000Y-140300000D01*
G37*
X128300000Y-140300000D02*
X126150000Y-140300000D01*
X128300000Y-138150000D01*
X128300000Y-140300000D01*
G36*
X128300000Y-140300000D02*
G01*
X126150000Y-140300000D01*
X128300000Y-138150000D01*
X128300000Y-140300000D01*
G37*
X128300000Y-138150000D02*
X127250000Y-137100000D01*
X128300000Y-137100000D01*
X128300000Y-138150000D01*
G36*
X128300000Y-138150000D02*
G01*
X127250000Y-137100000D01*
X128300000Y-137100000D01*
X128300000Y-138150000D01*
G37*
%TO.C,U3*%
D11*
X163340000Y-109380000D02*
X163790000Y-109380000D01*
X163340000Y-109830000D02*
X163340000Y-109380000D01*
X163340000Y-112600000D02*
X163340000Y-112150000D01*
X163790000Y-112600000D02*
X163340000Y-112600000D01*
X166110000Y-109380000D02*
X166560000Y-109380000D01*
X166560000Y-109380000D02*
X166560000Y-109830000D01*
X166560000Y-112150000D02*
X166560000Y-112600000D01*
X166560000Y-112600000D02*
X166110000Y-112600000D01*
X167420000Y-112030000D02*
X167090000Y-111790000D01*
X167420000Y-111550000D01*
X167420000Y-112030000D01*
G36*
X167420000Y-112030000D02*
G01*
X167090000Y-111790000D01*
X167420000Y-111550000D01*
X167420000Y-112030000D01*
G37*
%TO.C,D45*%
D12*
X125100000Y-125100000D02*
X128300000Y-125100000D01*
X128300000Y-128300000D01*
X125100000Y-128300000D01*
X125100000Y-125100000D01*
X125100000Y-127250000D02*
X125100000Y-125100000D01*
X127250000Y-125100000D01*
X125100000Y-127250000D01*
G36*
X125100000Y-127250000D02*
G01*
X125100000Y-125100000D01*
X127250000Y-125100000D01*
X125100000Y-127250000D01*
G37*
X126150000Y-128300000D02*
X125100000Y-128300000D01*
X125100000Y-127250000D01*
X126150000Y-128300000D01*
G36*
X126150000Y-128300000D02*
G01*
X125100000Y-128300000D01*
X125100000Y-127250000D01*
X126150000Y-128300000D01*
G37*
X128300000Y-128300000D02*
X126150000Y-128300000D01*
X128300000Y-126150000D01*
X128300000Y-128300000D01*
G36*
X128300000Y-128300000D02*
G01*
X126150000Y-128300000D01*
X128300000Y-126150000D01*
X128300000Y-128300000D01*
G37*
X128300000Y-126150000D02*
X127250000Y-125100000D01*
X128300000Y-125100000D01*
X128300000Y-126150000D01*
G36*
X128300000Y-126150000D02*
G01*
X127250000Y-125100000D01*
X128300000Y-125100000D01*
X128300000Y-126150000D01*
G37*
%TO.C,C3*%
D11*
X173090000Y-119859420D02*
X173090000Y-120140580D01*
X174110000Y-119859420D02*
X174110000Y-120140580D01*
%TO.C,D61*%
D12*
X141100000Y-117100000D02*
X144300000Y-117100000D01*
X144300000Y-120300000D01*
X141100000Y-120300000D01*
X141100000Y-117100000D01*
X141100000Y-119250000D02*
X141100000Y-117100000D01*
X143250000Y-117100000D01*
X141100000Y-119250000D01*
G36*
X141100000Y-119250000D02*
G01*
X141100000Y-117100000D01*
X143250000Y-117100000D01*
X141100000Y-119250000D01*
G37*
X142150000Y-120300000D02*
X141100000Y-120300000D01*
X141100000Y-119250000D01*
X142150000Y-120300000D01*
G36*
X142150000Y-120300000D02*
G01*
X141100000Y-120300000D01*
X141100000Y-119250000D01*
X142150000Y-120300000D01*
G37*
X144300000Y-120300000D02*
X142150000Y-120300000D01*
X144300000Y-118150000D01*
X144300000Y-120300000D01*
G36*
X144300000Y-120300000D02*
G01*
X142150000Y-120300000D01*
X144300000Y-118150000D01*
X144300000Y-120300000D01*
G37*
X144300000Y-118150000D02*
X143250000Y-117100000D01*
X144300000Y-117100000D01*
X144300000Y-118150000D01*
G36*
X144300000Y-118150000D02*
G01*
X143250000Y-117100000D01*
X144300000Y-117100000D01*
X144300000Y-118150000D01*
G37*
%TO.C,D100*%
X105100000Y-105100000D02*
X108300000Y-105100000D01*
X108300000Y-108300000D01*
X105100000Y-108300000D01*
X105100000Y-105100000D01*
X105100000Y-107250000D02*
X105100000Y-105100000D01*
X107250000Y-105100000D01*
X105100000Y-107250000D01*
G36*
X105100000Y-107250000D02*
G01*
X105100000Y-105100000D01*
X107250000Y-105100000D01*
X105100000Y-107250000D01*
G37*
X106150000Y-108300000D02*
X105100000Y-108300000D01*
X105100000Y-107250000D01*
X106150000Y-108300000D01*
G36*
X106150000Y-108300000D02*
G01*
X105100000Y-108300000D01*
X105100000Y-107250000D01*
X106150000Y-108300000D01*
G37*
X108300000Y-108300000D02*
X106150000Y-108300000D01*
X108300000Y-106150000D01*
X108300000Y-108300000D01*
G36*
X108300000Y-108300000D02*
G01*
X106150000Y-108300000D01*
X108300000Y-106150000D01*
X108300000Y-108300000D01*
G37*
X108300000Y-106150000D02*
X107250000Y-105100000D01*
X108300000Y-105100000D01*
X108300000Y-106150000D01*
G36*
X108300000Y-106150000D02*
G01*
X107250000Y-105100000D01*
X108300000Y-105100000D01*
X108300000Y-106150000D01*
G37*
%TO.C,D46*%
X121100000Y-125100000D02*
X124300000Y-125100000D01*
X124300000Y-128300000D01*
X121100000Y-128300000D01*
X121100000Y-125100000D01*
X121100000Y-127250000D02*
X121100000Y-125100000D01*
X123250000Y-125100000D01*
X121100000Y-127250000D01*
G36*
X121100000Y-127250000D02*
G01*
X121100000Y-125100000D01*
X123250000Y-125100000D01*
X121100000Y-127250000D01*
G37*
X122150000Y-128300000D02*
X121100000Y-128300000D01*
X121100000Y-127250000D01*
X122150000Y-128300000D01*
G36*
X122150000Y-128300000D02*
G01*
X121100000Y-128300000D01*
X121100000Y-127250000D01*
X122150000Y-128300000D01*
G37*
X124300000Y-128300000D02*
X122150000Y-128300000D01*
X124300000Y-126150000D01*
X124300000Y-128300000D01*
G36*
X124300000Y-128300000D02*
G01*
X122150000Y-128300000D01*
X124300000Y-126150000D01*
X124300000Y-128300000D01*
G37*
X124300000Y-126150000D02*
X123250000Y-125100000D01*
X124300000Y-125100000D01*
X124300000Y-126150000D01*
G36*
X124300000Y-126150000D02*
G01*
X123250000Y-125100000D01*
X124300000Y-125100000D01*
X124300000Y-126150000D01*
G37*
%TO.C,D84*%
X129100000Y-109100000D02*
X132300000Y-109100000D01*
X132300000Y-112300000D01*
X129100000Y-112300000D01*
X129100000Y-109100000D01*
X129100000Y-111250000D02*
X129100000Y-109100000D01*
X131250000Y-109100000D01*
X129100000Y-111250000D01*
G36*
X129100000Y-111250000D02*
G01*
X129100000Y-109100000D01*
X131250000Y-109100000D01*
X129100000Y-111250000D01*
G37*
X130150000Y-112300000D02*
X129100000Y-112300000D01*
X129100000Y-111250000D01*
X130150000Y-112300000D01*
G36*
X130150000Y-112300000D02*
G01*
X129100000Y-112300000D01*
X129100000Y-111250000D01*
X130150000Y-112300000D01*
G37*
X132300000Y-112300000D02*
X130150000Y-112300000D01*
X132300000Y-110150000D01*
X132300000Y-112300000D01*
G36*
X132300000Y-112300000D02*
G01*
X130150000Y-112300000D01*
X132300000Y-110150000D01*
X132300000Y-112300000D01*
G37*
X132300000Y-110150000D02*
X131250000Y-109100000D01*
X132300000Y-109100000D01*
X132300000Y-110150000D01*
G36*
X132300000Y-110150000D02*
G01*
X131250000Y-109100000D01*
X132300000Y-109100000D01*
X132300000Y-110150000D01*
G37*
%TO.C,D43*%
X133100000Y-125100000D02*
X136300000Y-125100000D01*
X136300000Y-128300000D01*
X133100000Y-128300000D01*
X133100000Y-125100000D01*
X133100000Y-127250000D02*
X133100000Y-125100000D01*
X135250000Y-125100000D01*
X133100000Y-127250000D01*
G36*
X133100000Y-127250000D02*
G01*
X133100000Y-125100000D01*
X135250000Y-125100000D01*
X133100000Y-127250000D01*
G37*
X134150000Y-128300000D02*
X133100000Y-128300000D01*
X133100000Y-127250000D01*
X134150000Y-128300000D01*
G36*
X134150000Y-128300000D02*
G01*
X133100000Y-128300000D01*
X133100000Y-127250000D01*
X134150000Y-128300000D01*
G37*
X136300000Y-128300000D02*
X134150000Y-128300000D01*
X136300000Y-126150000D01*
X136300000Y-128300000D01*
G36*
X136300000Y-128300000D02*
G01*
X134150000Y-128300000D01*
X136300000Y-126150000D01*
X136300000Y-128300000D01*
G37*
X136300000Y-126150000D02*
X135250000Y-125100000D01*
X136300000Y-125100000D01*
X136300000Y-126150000D01*
G36*
X136300000Y-126150000D02*
G01*
X135250000Y-125100000D01*
X136300000Y-125100000D01*
X136300000Y-126150000D01*
G37*
%TO.C,D89*%
X109100000Y-109100000D02*
X112300000Y-109100000D01*
X112300000Y-112300000D01*
X109100000Y-112300000D01*
X109100000Y-109100000D01*
X109100000Y-111250000D02*
X109100000Y-109100000D01*
X111250000Y-109100000D01*
X109100000Y-111250000D01*
G36*
X109100000Y-111250000D02*
G01*
X109100000Y-109100000D01*
X111250000Y-109100000D01*
X109100000Y-111250000D01*
G37*
X110150000Y-112300000D02*
X109100000Y-112300000D01*
X109100000Y-111250000D01*
X110150000Y-112300000D01*
G36*
X110150000Y-112300000D02*
G01*
X109100000Y-112300000D01*
X109100000Y-111250000D01*
X110150000Y-112300000D01*
G37*
X112300000Y-112300000D02*
X110150000Y-112300000D01*
X112300000Y-110150000D01*
X112300000Y-112300000D01*
G36*
X112300000Y-112300000D02*
G01*
X110150000Y-112300000D01*
X112300000Y-110150000D01*
X112300000Y-112300000D01*
G37*
X112300000Y-110150000D02*
X111250000Y-109100000D01*
X112300000Y-109100000D01*
X112300000Y-110150000D01*
G36*
X112300000Y-110150000D02*
G01*
X111250000Y-109100000D01*
X112300000Y-109100000D01*
X112300000Y-110150000D01*
G37*
%TO.C,D25*%
X125100000Y-133100000D02*
X128300000Y-133100000D01*
X128300000Y-136300000D01*
X125100000Y-136300000D01*
X125100000Y-133100000D01*
X125100000Y-135250000D02*
X125100000Y-133100000D01*
X127250000Y-133100000D01*
X125100000Y-135250000D01*
G36*
X125100000Y-135250000D02*
G01*
X125100000Y-133100000D01*
X127250000Y-133100000D01*
X125100000Y-135250000D01*
G37*
X126150000Y-136300000D02*
X125100000Y-136300000D01*
X125100000Y-135250000D01*
X126150000Y-136300000D01*
G36*
X126150000Y-136300000D02*
G01*
X125100000Y-136300000D01*
X125100000Y-135250000D01*
X126150000Y-136300000D01*
G37*
X128300000Y-136300000D02*
X126150000Y-136300000D01*
X128300000Y-134150000D01*
X128300000Y-136300000D01*
G36*
X128300000Y-136300000D02*
G01*
X126150000Y-136300000D01*
X128300000Y-134150000D01*
X128300000Y-136300000D01*
G37*
X128300000Y-134150000D02*
X127250000Y-133100000D01*
X128300000Y-133100000D01*
X128300000Y-134150000D01*
G36*
X128300000Y-134150000D02*
G01*
X127250000Y-133100000D01*
X128300000Y-133100000D01*
X128300000Y-134150000D01*
G37*
%TO.C,R4*%
D11*
X171427064Y-127065000D02*
X170972936Y-127065000D01*
X171427064Y-128535000D02*
X170972936Y-128535000D01*
%TO.C,D88*%
D12*
X113100000Y-109100000D02*
X116300000Y-109100000D01*
X116300000Y-112300000D01*
X113100000Y-112300000D01*
X113100000Y-109100000D01*
X113100000Y-111250000D02*
X113100000Y-109100000D01*
X115250000Y-109100000D01*
X113100000Y-111250000D01*
G36*
X113100000Y-111250000D02*
G01*
X113100000Y-109100000D01*
X115250000Y-109100000D01*
X113100000Y-111250000D01*
G37*
X114150000Y-112300000D02*
X113100000Y-112300000D01*
X113100000Y-111250000D01*
X114150000Y-112300000D01*
G36*
X114150000Y-112300000D02*
G01*
X113100000Y-112300000D01*
X113100000Y-111250000D01*
X114150000Y-112300000D01*
G37*
X116300000Y-112300000D02*
X114150000Y-112300000D01*
X116300000Y-110150000D01*
X116300000Y-112300000D01*
G36*
X116300000Y-112300000D02*
G01*
X114150000Y-112300000D01*
X116300000Y-110150000D01*
X116300000Y-112300000D01*
G37*
X116300000Y-110150000D02*
X115250000Y-109100000D01*
X116300000Y-109100000D01*
X116300000Y-110150000D01*
G36*
X116300000Y-110150000D02*
G01*
X115250000Y-109100000D01*
X116300000Y-109100000D01*
X116300000Y-110150000D01*
G37*
%TO.C,D51*%
X141100000Y-121100000D02*
X144300000Y-121100000D01*
X144300000Y-124300000D01*
X141100000Y-124300000D01*
X141100000Y-121100000D01*
X141100000Y-123250000D02*
X141100000Y-121100000D01*
X143250000Y-121100000D01*
X141100000Y-123250000D01*
G36*
X141100000Y-123250000D02*
G01*
X141100000Y-121100000D01*
X143250000Y-121100000D01*
X141100000Y-123250000D01*
G37*
X142150000Y-124300000D02*
X141100000Y-124300000D01*
X141100000Y-123250000D01*
X142150000Y-124300000D01*
G36*
X142150000Y-124300000D02*
G01*
X141100000Y-124300000D01*
X141100000Y-123250000D01*
X142150000Y-124300000D01*
G37*
X144300000Y-124300000D02*
X142150000Y-124300000D01*
X144300000Y-122150000D01*
X144300000Y-124300000D01*
G36*
X144300000Y-124300000D02*
G01*
X142150000Y-124300000D01*
X144300000Y-122150000D01*
X144300000Y-124300000D01*
G37*
X144300000Y-122150000D02*
X143250000Y-121100000D01*
X144300000Y-121100000D01*
X144300000Y-122150000D01*
G36*
X144300000Y-122150000D02*
G01*
X143250000Y-121100000D01*
X144300000Y-121100000D01*
X144300000Y-122150000D01*
G37*
%TO.C,D91*%
X141100000Y-105100000D02*
X144300000Y-105100000D01*
X144300000Y-108300000D01*
X141100000Y-108300000D01*
X141100000Y-105100000D01*
X141100000Y-107250000D02*
X141100000Y-105100000D01*
X143250000Y-105100000D01*
X141100000Y-107250000D01*
G36*
X141100000Y-107250000D02*
G01*
X141100000Y-105100000D01*
X143250000Y-105100000D01*
X141100000Y-107250000D01*
G37*
X142150000Y-108300000D02*
X141100000Y-108300000D01*
X141100000Y-107250000D01*
X142150000Y-108300000D01*
G36*
X142150000Y-108300000D02*
G01*
X141100000Y-108300000D01*
X141100000Y-107250000D01*
X142150000Y-108300000D01*
G37*
X144300000Y-108300000D02*
X142150000Y-108300000D01*
X144300000Y-106150000D01*
X144300000Y-108300000D01*
G36*
X144300000Y-108300000D02*
G01*
X142150000Y-108300000D01*
X144300000Y-106150000D01*
X144300000Y-108300000D01*
G37*
X144300000Y-106150000D02*
X143250000Y-105100000D01*
X144300000Y-105100000D01*
X144300000Y-106150000D01*
G36*
X144300000Y-106150000D02*
G01*
X143250000Y-105100000D01*
X144300000Y-105100000D01*
X144300000Y-106150000D01*
G37*
%TO.C,D62*%
X137100000Y-117100000D02*
X140300000Y-117100000D01*
X140300000Y-120300000D01*
X137100000Y-120300000D01*
X137100000Y-117100000D01*
X137100000Y-119250000D02*
X137100000Y-117100000D01*
X139250000Y-117100000D01*
X137100000Y-119250000D01*
G36*
X137100000Y-119250000D02*
G01*
X137100000Y-117100000D01*
X139250000Y-117100000D01*
X137100000Y-119250000D01*
G37*
X138150000Y-120300000D02*
X137100000Y-120300000D01*
X137100000Y-119250000D01*
X138150000Y-120300000D01*
G36*
X138150000Y-120300000D02*
G01*
X137100000Y-120300000D01*
X137100000Y-119250000D01*
X138150000Y-120300000D01*
G37*
X140300000Y-120300000D02*
X138150000Y-120300000D01*
X140300000Y-118150000D01*
X140300000Y-120300000D01*
G36*
X140300000Y-120300000D02*
G01*
X138150000Y-120300000D01*
X140300000Y-118150000D01*
X140300000Y-120300000D01*
G37*
X140300000Y-118150000D02*
X139250000Y-117100000D01*
X140300000Y-117100000D01*
X140300000Y-118150000D01*
G36*
X140300000Y-118150000D02*
G01*
X139250000Y-117100000D01*
X140300000Y-117100000D01*
X140300000Y-118150000D01*
G37*
%TO.C,D22*%
X137100000Y-133100000D02*
X140300000Y-133100000D01*
X140300000Y-136300000D01*
X137100000Y-136300000D01*
X137100000Y-133100000D01*
X137100000Y-135250000D02*
X137100000Y-133100000D01*
X139250000Y-133100000D01*
X137100000Y-135250000D01*
G36*
X137100000Y-135250000D02*
G01*
X137100000Y-133100000D01*
X139250000Y-133100000D01*
X137100000Y-135250000D01*
G37*
X138150000Y-136300000D02*
X137100000Y-136300000D01*
X137100000Y-135250000D01*
X138150000Y-136300000D01*
G36*
X138150000Y-136300000D02*
G01*
X137100000Y-136300000D01*
X137100000Y-135250000D01*
X138150000Y-136300000D01*
G37*
X140300000Y-136300000D02*
X138150000Y-136300000D01*
X140300000Y-134150000D01*
X140300000Y-136300000D01*
G36*
X140300000Y-136300000D02*
G01*
X138150000Y-136300000D01*
X140300000Y-134150000D01*
X140300000Y-136300000D01*
G37*
X140300000Y-134150000D02*
X139250000Y-133100000D01*
X140300000Y-133100000D01*
X140300000Y-134150000D01*
G36*
X140300000Y-134150000D02*
G01*
X139250000Y-133100000D01*
X140300000Y-133100000D01*
X140300000Y-134150000D01*
G37*
%TO.C,D30*%
X105100000Y-133100000D02*
X108300000Y-133100000D01*
X108300000Y-136300000D01*
X105100000Y-136300000D01*
X105100000Y-133100000D01*
X105100000Y-135250000D02*
X105100000Y-133100000D01*
X107250000Y-133100000D01*
X105100000Y-135250000D01*
G36*
X105100000Y-135250000D02*
G01*
X105100000Y-133100000D01*
X107250000Y-133100000D01*
X105100000Y-135250000D01*
G37*
X106150000Y-136300000D02*
X105100000Y-136300000D01*
X105100000Y-135250000D01*
X106150000Y-136300000D01*
G36*
X106150000Y-136300000D02*
G01*
X105100000Y-136300000D01*
X105100000Y-135250000D01*
X106150000Y-136300000D01*
G37*
X108300000Y-136300000D02*
X106150000Y-136300000D01*
X108300000Y-134150000D01*
X108300000Y-136300000D01*
G36*
X108300000Y-136300000D02*
G01*
X106150000Y-136300000D01*
X108300000Y-134150000D01*
X108300000Y-136300000D01*
G37*
X108300000Y-134150000D02*
X107250000Y-133100000D01*
X108300000Y-133100000D01*
X108300000Y-134150000D01*
G36*
X108300000Y-134150000D02*
G01*
X107250000Y-133100000D01*
X108300000Y-133100000D01*
X108300000Y-134150000D01*
G37*
%TO.C,D4*%
X129100000Y-141100000D02*
X132300000Y-141100000D01*
X132300000Y-144300000D01*
X129100000Y-144300000D01*
X129100000Y-141100000D01*
X129100000Y-143250000D02*
X129100000Y-141100000D01*
X131250000Y-141100000D01*
X129100000Y-143250000D01*
G36*
X129100000Y-143250000D02*
G01*
X129100000Y-141100000D01*
X131250000Y-141100000D01*
X129100000Y-143250000D01*
G37*
X130150000Y-144300000D02*
X129100000Y-144300000D01*
X129100000Y-143250000D01*
X130150000Y-144300000D01*
G36*
X130150000Y-144300000D02*
G01*
X129100000Y-144300000D01*
X129100000Y-143250000D01*
X130150000Y-144300000D01*
G37*
X132300000Y-144300000D02*
X130150000Y-144300000D01*
X132300000Y-142150000D01*
X132300000Y-144300000D01*
G36*
X132300000Y-144300000D02*
G01*
X130150000Y-144300000D01*
X132300000Y-142150000D01*
X132300000Y-144300000D01*
G37*
X132300000Y-142150000D02*
X131250000Y-141100000D01*
X132300000Y-141100000D01*
X132300000Y-142150000D01*
G36*
X132300000Y-142150000D02*
G01*
X131250000Y-141100000D01*
X132300000Y-141100000D01*
X132300000Y-142150000D01*
G37*
%TO.C,D49*%
X109100000Y-125100000D02*
X112300000Y-125100000D01*
X112300000Y-128300000D01*
X109100000Y-128300000D01*
X109100000Y-125100000D01*
X109100000Y-127250000D02*
X109100000Y-125100000D01*
X111250000Y-125100000D01*
X109100000Y-127250000D01*
G36*
X109100000Y-127250000D02*
G01*
X109100000Y-125100000D01*
X111250000Y-125100000D01*
X109100000Y-127250000D01*
G37*
X110150000Y-128300000D02*
X109100000Y-128300000D01*
X109100000Y-127250000D01*
X110150000Y-128300000D01*
G36*
X110150000Y-128300000D02*
G01*
X109100000Y-128300000D01*
X109100000Y-127250000D01*
X110150000Y-128300000D01*
G37*
X112300000Y-128300000D02*
X110150000Y-128300000D01*
X112300000Y-126150000D01*
X112300000Y-128300000D01*
G36*
X112300000Y-128300000D02*
G01*
X110150000Y-128300000D01*
X112300000Y-126150000D01*
X112300000Y-128300000D01*
G37*
X112300000Y-126150000D02*
X111250000Y-125100000D01*
X112300000Y-125100000D01*
X112300000Y-126150000D01*
G36*
X112300000Y-126150000D02*
G01*
X111250000Y-125100000D01*
X112300000Y-125100000D01*
X112300000Y-126150000D01*
G37*
%TO.C,C2*%
D11*
X163244420Y-116500000D02*
X163525580Y-116500000D01*
X163244420Y-117520000D02*
X163525580Y-117520000D01*
%TO.C,D64*%
D12*
X129100000Y-117100000D02*
X132300000Y-117100000D01*
X132300000Y-120300000D01*
X129100000Y-120300000D01*
X129100000Y-117100000D01*
X129100000Y-119250000D02*
X129100000Y-117100000D01*
X131250000Y-117100000D01*
X129100000Y-119250000D01*
G36*
X129100000Y-119250000D02*
G01*
X129100000Y-117100000D01*
X131250000Y-117100000D01*
X129100000Y-119250000D01*
G37*
X130150000Y-120300000D02*
X129100000Y-120300000D01*
X129100000Y-119250000D01*
X130150000Y-120300000D01*
G36*
X130150000Y-120300000D02*
G01*
X129100000Y-120300000D01*
X129100000Y-119250000D01*
X130150000Y-120300000D01*
G37*
X132300000Y-120300000D02*
X130150000Y-120300000D01*
X132300000Y-118150000D01*
X132300000Y-120300000D01*
G36*
X132300000Y-120300000D02*
G01*
X130150000Y-120300000D01*
X132300000Y-118150000D01*
X132300000Y-120300000D01*
G37*
X132300000Y-118150000D02*
X131250000Y-117100000D01*
X132300000Y-117100000D01*
X132300000Y-118150000D01*
G36*
X132300000Y-118150000D02*
G01*
X131250000Y-117100000D01*
X132300000Y-117100000D01*
X132300000Y-118150000D01*
G37*
%TO.C,D18*%
X113100000Y-137100000D02*
X116300000Y-137100000D01*
X116300000Y-140300000D01*
X113100000Y-140300000D01*
X113100000Y-137100000D01*
X113100000Y-139250000D02*
X113100000Y-137100000D01*
X115250000Y-137100000D01*
X113100000Y-139250000D01*
G36*
X113100000Y-139250000D02*
G01*
X113100000Y-137100000D01*
X115250000Y-137100000D01*
X113100000Y-139250000D01*
G37*
X114150000Y-140300000D02*
X113100000Y-140300000D01*
X113100000Y-139250000D01*
X114150000Y-140300000D01*
G36*
X114150000Y-140300000D02*
G01*
X113100000Y-140300000D01*
X113100000Y-139250000D01*
X114150000Y-140300000D01*
G37*
X116300000Y-140300000D02*
X114150000Y-140300000D01*
X116300000Y-138150000D01*
X116300000Y-140300000D01*
G36*
X116300000Y-140300000D02*
G01*
X114150000Y-140300000D01*
X116300000Y-138150000D01*
X116300000Y-140300000D01*
G37*
X116300000Y-138150000D02*
X115250000Y-137100000D01*
X116300000Y-137100000D01*
X116300000Y-138150000D01*
G36*
X116300000Y-138150000D02*
G01*
X115250000Y-137100000D01*
X116300000Y-137100000D01*
X116300000Y-138150000D01*
G37*
%TO.C,D28*%
X113100000Y-133100000D02*
X116300000Y-133100000D01*
X116300000Y-136300000D01*
X113100000Y-136300000D01*
X113100000Y-133100000D01*
X113100000Y-135250000D02*
X113100000Y-133100000D01*
X115250000Y-133100000D01*
X113100000Y-135250000D01*
G36*
X113100000Y-135250000D02*
G01*
X113100000Y-133100000D01*
X115250000Y-133100000D01*
X113100000Y-135250000D01*
G37*
X114150000Y-136300000D02*
X113100000Y-136300000D01*
X113100000Y-135250000D01*
X114150000Y-136300000D01*
G36*
X114150000Y-136300000D02*
G01*
X113100000Y-136300000D01*
X113100000Y-135250000D01*
X114150000Y-136300000D01*
G37*
X116300000Y-136300000D02*
X114150000Y-136300000D01*
X116300000Y-134150000D01*
X116300000Y-136300000D01*
G36*
X116300000Y-136300000D02*
G01*
X114150000Y-136300000D01*
X116300000Y-134150000D01*
X116300000Y-136300000D01*
G37*
X116300000Y-134150000D02*
X115250000Y-133100000D01*
X116300000Y-133100000D01*
X116300000Y-134150000D01*
G36*
X116300000Y-134150000D02*
G01*
X115250000Y-133100000D01*
X116300000Y-133100000D01*
X116300000Y-134150000D01*
G37*
%TO.C,D12*%
X137100000Y-137100000D02*
X140300000Y-137100000D01*
X140300000Y-140300000D01*
X137100000Y-140300000D01*
X137100000Y-137100000D01*
X137100000Y-139250000D02*
X137100000Y-137100000D01*
X139250000Y-137100000D01*
X137100000Y-139250000D01*
G36*
X137100000Y-139250000D02*
G01*
X137100000Y-137100000D01*
X139250000Y-137100000D01*
X137100000Y-139250000D01*
G37*
X138150000Y-140300000D02*
X137100000Y-140300000D01*
X137100000Y-139250000D01*
X138150000Y-140300000D01*
G36*
X138150000Y-140300000D02*
G01*
X137100000Y-140300000D01*
X137100000Y-139250000D01*
X138150000Y-140300000D01*
G37*
X140300000Y-140300000D02*
X138150000Y-140300000D01*
X140300000Y-138150000D01*
X140300000Y-140300000D01*
G36*
X140300000Y-140300000D02*
G01*
X138150000Y-140300000D01*
X140300000Y-138150000D01*
X140300000Y-140300000D01*
G37*
X140300000Y-138150000D02*
X139250000Y-137100000D01*
X140300000Y-137100000D01*
X140300000Y-138150000D01*
G36*
X140300000Y-138150000D02*
G01*
X139250000Y-137100000D01*
X140300000Y-137100000D01*
X140300000Y-138150000D01*
G37*
%TO.C,R14*%
D11*
X148227064Y-117965000D02*
X147772936Y-117965000D01*
X148227064Y-119435000D02*
X147772936Y-119435000D01*
%TO.C,D50*%
D12*
X105100000Y-125100000D02*
X108300000Y-125100000D01*
X108300000Y-128300000D01*
X105100000Y-128300000D01*
X105100000Y-125100000D01*
X105100000Y-127250000D02*
X105100000Y-125100000D01*
X107250000Y-125100000D01*
X105100000Y-127250000D01*
G36*
X105100000Y-127250000D02*
G01*
X105100000Y-125100000D01*
X107250000Y-125100000D01*
X105100000Y-127250000D01*
G37*
X106150000Y-128300000D02*
X105100000Y-128300000D01*
X105100000Y-127250000D01*
X106150000Y-128300000D01*
G36*
X106150000Y-128300000D02*
G01*
X105100000Y-128300000D01*
X105100000Y-127250000D01*
X106150000Y-128300000D01*
G37*
X108300000Y-128300000D02*
X106150000Y-128300000D01*
X108300000Y-126150000D01*
X108300000Y-128300000D01*
G36*
X108300000Y-128300000D02*
G01*
X106150000Y-128300000D01*
X108300000Y-126150000D01*
X108300000Y-128300000D01*
G37*
X108300000Y-126150000D02*
X107250000Y-125100000D01*
X108300000Y-125100000D01*
X108300000Y-126150000D01*
G36*
X108300000Y-126150000D02*
G01*
X107250000Y-125100000D01*
X108300000Y-125100000D01*
X108300000Y-126150000D01*
G37*
%TO.C,D67*%
X117100000Y-117100000D02*
X120300000Y-117100000D01*
X120300000Y-120300000D01*
X117100000Y-120300000D01*
X117100000Y-117100000D01*
X117100000Y-119250000D02*
X117100000Y-117100000D01*
X119250000Y-117100000D01*
X117100000Y-119250000D01*
G36*
X117100000Y-119250000D02*
G01*
X117100000Y-117100000D01*
X119250000Y-117100000D01*
X117100000Y-119250000D01*
G37*
X118150000Y-120300000D02*
X117100000Y-120300000D01*
X117100000Y-119250000D01*
X118150000Y-120300000D01*
G36*
X118150000Y-120300000D02*
G01*
X117100000Y-120300000D01*
X117100000Y-119250000D01*
X118150000Y-120300000D01*
G37*
X120300000Y-120300000D02*
X118150000Y-120300000D01*
X120300000Y-118150000D01*
X120300000Y-120300000D01*
G36*
X120300000Y-120300000D02*
G01*
X118150000Y-120300000D01*
X120300000Y-118150000D01*
X120300000Y-120300000D01*
G37*
X120300000Y-118150000D02*
X119250000Y-117100000D01*
X120300000Y-117100000D01*
X120300000Y-118150000D01*
G36*
X120300000Y-118150000D02*
G01*
X119250000Y-117100000D01*
X120300000Y-117100000D01*
X120300000Y-118150000D01*
G37*
%TO.C,D27*%
X117100000Y-133100000D02*
X120300000Y-133100000D01*
X120300000Y-136300000D01*
X117100000Y-136300000D01*
X117100000Y-133100000D01*
X117100000Y-135250000D02*
X117100000Y-133100000D01*
X119250000Y-133100000D01*
X117100000Y-135250000D01*
G36*
X117100000Y-135250000D02*
G01*
X117100000Y-133100000D01*
X119250000Y-133100000D01*
X117100000Y-135250000D01*
G37*
X118150000Y-136300000D02*
X117100000Y-136300000D01*
X117100000Y-135250000D01*
X118150000Y-136300000D01*
G36*
X118150000Y-136300000D02*
G01*
X117100000Y-136300000D01*
X117100000Y-135250000D01*
X118150000Y-136300000D01*
G37*
X120300000Y-136300000D02*
X118150000Y-136300000D01*
X120300000Y-134150000D01*
X120300000Y-136300000D01*
G36*
X120300000Y-136300000D02*
G01*
X118150000Y-136300000D01*
X120300000Y-134150000D01*
X120300000Y-136300000D01*
G37*
X120300000Y-134150000D02*
X119250000Y-133100000D01*
X120300000Y-133100000D01*
X120300000Y-134150000D01*
G36*
X120300000Y-134150000D02*
G01*
X119250000Y-133100000D01*
X120300000Y-133100000D01*
X120300000Y-134150000D01*
G37*
%TO.C,D1*%
X141100000Y-141100000D02*
X144300000Y-141100000D01*
X144300000Y-144300000D01*
X141100000Y-144300000D01*
X141100000Y-141100000D01*
X141100000Y-143250000D02*
X141100000Y-141100000D01*
X143250000Y-141100000D01*
X141100000Y-143250000D01*
G36*
X141100000Y-143250000D02*
G01*
X141100000Y-141100000D01*
X143250000Y-141100000D01*
X141100000Y-143250000D01*
G37*
X142150000Y-144300000D02*
X141100000Y-144300000D01*
X141100000Y-143250000D01*
X142150000Y-144300000D01*
G36*
X142150000Y-144300000D02*
G01*
X141100000Y-144300000D01*
X141100000Y-143250000D01*
X142150000Y-144300000D01*
G37*
X144300000Y-144300000D02*
X142150000Y-144300000D01*
X144300000Y-142150000D01*
X144300000Y-144300000D01*
G36*
X144300000Y-144300000D02*
G01*
X142150000Y-144300000D01*
X144300000Y-142150000D01*
X144300000Y-144300000D01*
G37*
X144300000Y-142150000D02*
X143250000Y-141100000D01*
X144300000Y-141100000D01*
X144300000Y-142150000D01*
G36*
X144300000Y-142150000D02*
G01*
X143250000Y-141100000D01*
X144300000Y-141100000D01*
X144300000Y-142150000D01*
G37*
%TO.C,D74*%
X129100000Y-113100000D02*
X132300000Y-113100000D01*
X132300000Y-116300000D01*
X129100000Y-116300000D01*
X129100000Y-113100000D01*
X129100000Y-115250000D02*
X129100000Y-113100000D01*
X131250000Y-113100000D01*
X129100000Y-115250000D01*
G36*
X129100000Y-115250000D02*
G01*
X129100000Y-113100000D01*
X131250000Y-113100000D01*
X129100000Y-115250000D01*
G37*
X130150000Y-116300000D02*
X129100000Y-116300000D01*
X129100000Y-115250000D01*
X130150000Y-116300000D01*
G36*
X130150000Y-116300000D02*
G01*
X129100000Y-116300000D01*
X129100000Y-115250000D01*
X130150000Y-116300000D01*
G37*
X132300000Y-116300000D02*
X130150000Y-116300000D01*
X132300000Y-114150000D01*
X132300000Y-116300000D01*
G36*
X132300000Y-116300000D02*
G01*
X130150000Y-116300000D01*
X132300000Y-114150000D01*
X132300000Y-116300000D01*
G37*
X132300000Y-114150000D02*
X131250000Y-113100000D01*
X132300000Y-113100000D01*
X132300000Y-114150000D01*
G36*
X132300000Y-114150000D02*
G01*
X131250000Y-113100000D01*
X132300000Y-113100000D01*
X132300000Y-114150000D01*
G37*
%TO.C,D34*%
X129100000Y-129100000D02*
X132300000Y-129100000D01*
X132300000Y-132300000D01*
X129100000Y-132300000D01*
X129100000Y-129100000D01*
X129100000Y-131250000D02*
X129100000Y-129100000D01*
X131250000Y-129100000D01*
X129100000Y-131250000D01*
G36*
X129100000Y-131250000D02*
G01*
X129100000Y-129100000D01*
X131250000Y-129100000D01*
X129100000Y-131250000D01*
G37*
X130150000Y-132300000D02*
X129100000Y-132300000D01*
X129100000Y-131250000D01*
X130150000Y-132300000D01*
G36*
X130150000Y-132300000D02*
G01*
X129100000Y-132300000D01*
X129100000Y-131250000D01*
X130150000Y-132300000D01*
G37*
X132300000Y-132300000D02*
X130150000Y-132300000D01*
X132300000Y-130150000D01*
X132300000Y-132300000D01*
G36*
X132300000Y-132300000D02*
G01*
X130150000Y-132300000D01*
X132300000Y-130150000D01*
X132300000Y-132300000D01*
G37*
X132300000Y-130150000D02*
X131250000Y-129100000D01*
X132300000Y-129100000D01*
X132300000Y-130150000D01*
G36*
X132300000Y-130150000D02*
G01*
X131250000Y-129100000D01*
X132300000Y-129100000D01*
X132300000Y-130150000D01*
G37*
%TO.C,D10*%
X105100000Y-141100000D02*
X108300000Y-141100000D01*
X108300000Y-144300000D01*
X105100000Y-144300000D01*
X105100000Y-141100000D01*
X105100000Y-143250000D02*
X105100000Y-141100000D01*
X107250000Y-141100000D01*
X105100000Y-143250000D01*
G36*
X105100000Y-143250000D02*
G01*
X105100000Y-141100000D01*
X107250000Y-141100000D01*
X105100000Y-143250000D01*
G37*
X106150000Y-144300000D02*
X105100000Y-144300000D01*
X105100000Y-143250000D01*
X106150000Y-144300000D01*
G36*
X106150000Y-144300000D02*
G01*
X105100000Y-144300000D01*
X105100000Y-143250000D01*
X106150000Y-144300000D01*
G37*
X108300000Y-144300000D02*
X106150000Y-144300000D01*
X108300000Y-142150000D01*
X108300000Y-144300000D01*
G36*
X108300000Y-144300000D02*
G01*
X106150000Y-144300000D01*
X108300000Y-142150000D01*
X108300000Y-144300000D01*
G37*
X108300000Y-142150000D02*
X107250000Y-141100000D01*
X108300000Y-141100000D01*
X108300000Y-142150000D01*
G36*
X108300000Y-142150000D02*
G01*
X107250000Y-141100000D01*
X108300000Y-141100000D01*
X108300000Y-142150000D01*
G37*
%TO.C,D52*%
X137100000Y-121100000D02*
X140300000Y-121100000D01*
X140300000Y-124300000D01*
X137100000Y-124300000D01*
X137100000Y-121100000D01*
X137100000Y-123250000D02*
X137100000Y-121100000D01*
X139250000Y-121100000D01*
X137100000Y-123250000D01*
G36*
X137100000Y-123250000D02*
G01*
X137100000Y-121100000D01*
X139250000Y-121100000D01*
X137100000Y-123250000D01*
G37*
X138150000Y-124300000D02*
X137100000Y-124300000D01*
X137100000Y-123250000D01*
X138150000Y-124300000D01*
G36*
X138150000Y-124300000D02*
G01*
X137100000Y-124300000D01*
X137100000Y-123250000D01*
X138150000Y-124300000D01*
G37*
X140300000Y-124300000D02*
X138150000Y-124300000D01*
X140300000Y-122150000D01*
X140300000Y-124300000D01*
G36*
X140300000Y-124300000D02*
G01*
X138150000Y-124300000D01*
X140300000Y-122150000D01*
X140300000Y-124300000D01*
G37*
X140300000Y-122150000D02*
X139250000Y-121100000D01*
X140300000Y-121100000D01*
X140300000Y-122150000D01*
G36*
X140300000Y-122150000D02*
G01*
X139250000Y-121100000D01*
X140300000Y-121100000D01*
X140300000Y-122150000D01*
G37*
%TO.C,D6*%
X121100000Y-141100000D02*
X124300000Y-141100000D01*
X124300000Y-144300000D01*
X121100000Y-144300000D01*
X121100000Y-141100000D01*
X121100000Y-143250000D02*
X121100000Y-141100000D01*
X123250000Y-141100000D01*
X121100000Y-143250000D01*
G36*
X121100000Y-143250000D02*
G01*
X121100000Y-141100000D01*
X123250000Y-141100000D01*
X121100000Y-143250000D01*
G37*
X122150000Y-144300000D02*
X121100000Y-144300000D01*
X121100000Y-143250000D01*
X122150000Y-144300000D01*
G36*
X122150000Y-144300000D02*
G01*
X121100000Y-144300000D01*
X121100000Y-143250000D01*
X122150000Y-144300000D01*
G37*
X124300000Y-144300000D02*
X122150000Y-144300000D01*
X124300000Y-142150000D01*
X124300000Y-144300000D01*
G36*
X124300000Y-144300000D02*
G01*
X122150000Y-144300000D01*
X124300000Y-142150000D01*
X124300000Y-144300000D01*
G37*
X124300000Y-142150000D02*
X123250000Y-141100000D01*
X124300000Y-141100000D01*
X124300000Y-142150000D01*
G36*
X124300000Y-142150000D02*
G01*
X123250000Y-141100000D01*
X124300000Y-141100000D01*
X124300000Y-142150000D01*
G37*
%TO.C,R13*%
D11*
X148227064Y-121965000D02*
X147772936Y-121965000D01*
X148227064Y-123435000D02*
X147772936Y-123435000D01*
%TO.C,D80*%
D12*
X105100000Y-113100000D02*
X108300000Y-113100000D01*
X108300000Y-116300000D01*
X105100000Y-116300000D01*
X105100000Y-113100000D01*
X105100000Y-115250000D02*
X105100000Y-113100000D01*
X107250000Y-113100000D01*
X105100000Y-115250000D01*
G36*
X105100000Y-115250000D02*
G01*
X105100000Y-113100000D01*
X107250000Y-113100000D01*
X105100000Y-115250000D01*
G37*
X106150000Y-116300000D02*
X105100000Y-116300000D01*
X105100000Y-115250000D01*
X106150000Y-116300000D01*
G36*
X106150000Y-116300000D02*
G01*
X105100000Y-116300000D01*
X105100000Y-115250000D01*
X106150000Y-116300000D01*
G37*
X108300000Y-116300000D02*
X106150000Y-116300000D01*
X108300000Y-114150000D01*
X108300000Y-116300000D01*
G36*
X108300000Y-116300000D02*
G01*
X106150000Y-116300000D01*
X108300000Y-114150000D01*
X108300000Y-116300000D01*
G37*
X108300000Y-114150000D02*
X107250000Y-113100000D01*
X108300000Y-113100000D01*
X108300000Y-114150000D01*
G36*
X108300000Y-114150000D02*
G01*
X107250000Y-113100000D01*
X108300000Y-113100000D01*
X108300000Y-114150000D01*
G37*
%TO.C,R2*%
D11*
X170437258Y-114677500D02*
X169962742Y-114677500D01*
X170437258Y-115722500D02*
X169962742Y-115722500D01*
%TO.C,R9*%
X148227064Y-137965000D02*
X147772936Y-137965000D01*
X148227064Y-139435000D02*
X147772936Y-139435000D01*
%TO.C,D7*%
D12*
X117100000Y-141100000D02*
X120300000Y-141100000D01*
X120300000Y-144300000D01*
X117100000Y-144300000D01*
X117100000Y-141100000D01*
X117100000Y-143250000D02*
X117100000Y-141100000D01*
X119250000Y-141100000D01*
X117100000Y-143250000D01*
G36*
X117100000Y-143250000D02*
G01*
X117100000Y-141100000D01*
X119250000Y-141100000D01*
X117100000Y-143250000D01*
G37*
X118150000Y-144300000D02*
X117100000Y-144300000D01*
X117100000Y-143250000D01*
X118150000Y-144300000D01*
G36*
X118150000Y-144300000D02*
G01*
X117100000Y-144300000D01*
X117100000Y-143250000D01*
X118150000Y-144300000D01*
G37*
X120300000Y-144300000D02*
X118150000Y-144300000D01*
X120300000Y-142150000D01*
X120300000Y-144300000D01*
G36*
X120300000Y-144300000D02*
G01*
X118150000Y-144300000D01*
X120300000Y-142150000D01*
X120300000Y-144300000D01*
G37*
X120300000Y-142150000D02*
X119250000Y-141100000D01*
X120300000Y-141100000D01*
X120300000Y-142150000D01*
G36*
X120300000Y-142150000D02*
G01*
X119250000Y-141100000D01*
X120300000Y-141100000D01*
X120300000Y-142150000D01*
G37*
%TO.C,D33*%
X133100000Y-129100000D02*
X136300000Y-129100000D01*
X136300000Y-132300000D01*
X133100000Y-132300000D01*
X133100000Y-129100000D01*
X133100000Y-131250000D02*
X133100000Y-129100000D01*
X135250000Y-129100000D01*
X133100000Y-131250000D01*
G36*
X133100000Y-131250000D02*
G01*
X133100000Y-129100000D01*
X135250000Y-129100000D01*
X133100000Y-131250000D01*
G37*
X134150000Y-132300000D02*
X133100000Y-132300000D01*
X133100000Y-131250000D01*
X134150000Y-132300000D01*
G36*
X134150000Y-132300000D02*
G01*
X133100000Y-132300000D01*
X133100000Y-131250000D01*
X134150000Y-132300000D01*
G37*
X136300000Y-132300000D02*
X134150000Y-132300000D01*
X136300000Y-130150000D01*
X136300000Y-132300000D01*
G36*
X136300000Y-132300000D02*
G01*
X134150000Y-132300000D01*
X136300000Y-130150000D01*
X136300000Y-132300000D01*
G37*
X136300000Y-130150000D02*
X135250000Y-129100000D01*
X136300000Y-129100000D01*
X136300000Y-130150000D01*
G36*
X136300000Y-130150000D02*
G01*
X135250000Y-129100000D01*
X136300000Y-129100000D01*
X136300000Y-130150000D01*
G37*
%TO.C,D81*%
X141100000Y-109100000D02*
X144300000Y-109100000D01*
X144300000Y-112300000D01*
X141100000Y-112300000D01*
X141100000Y-109100000D01*
X141100000Y-111250000D02*
X141100000Y-109100000D01*
X143250000Y-109100000D01*
X141100000Y-111250000D01*
G36*
X141100000Y-111250000D02*
G01*
X141100000Y-109100000D01*
X143250000Y-109100000D01*
X141100000Y-111250000D01*
G37*
X142150000Y-112300000D02*
X141100000Y-112300000D01*
X141100000Y-111250000D01*
X142150000Y-112300000D01*
G36*
X142150000Y-112300000D02*
G01*
X141100000Y-112300000D01*
X141100000Y-111250000D01*
X142150000Y-112300000D01*
G37*
X144300000Y-112300000D02*
X142150000Y-112300000D01*
X144300000Y-110150000D01*
X144300000Y-112300000D01*
G36*
X144300000Y-112300000D02*
G01*
X142150000Y-112300000D01*
X144300000Y-110150000D01*
X144300000Y-112300000D01*
G37*
X144300000Y-110150000D02*
X143250000Y-109100000D01*
X144300000Y-109100000D01*
X144300000Y-110150000D01*
G36*
X144300000Y-110150000D02*
G01*
X143250000Y-109100000D01*
X144300000Y-109100000D01*
X144300000Y-110150000D01*
G37*
%TO.C,D95*%
X125100000Y-105100000D02*
X128300000Y-105100000D01*
X128300000Y-108300000D01*
X125100000Y-108300000D01*
X125100000Y-105100000D01*
X125100000Y-107250000D02*
X125100000Y-105100000D01*
X127250000Y-105100000D01*
X125100000Y-107250000D01*
G36*
X125100000Y-107250000D02*
G01*
X125100000Y-105100000D01*
X127250000Y-105100000D01*
X125100000Y-107250000D01*
G37*
X126150000Y-108300000D02*
X125100000Y-108300000D01*
X125100000Y-107250000D01*
X126150000Y-108300000D01*
G36*
X126150000Y-108300000D02*
G01*
X125100000Y-108300000D01*
X125100000Y-107250000D01*
X126150000Y-108300000D01*
G37*
X128300000Y-108300000D02*
X126150000Y-108300000D01*
X128300000Y-106150000D01*
X128300000Y-108300000D01*
G36*
X128300000Y-108300000D02*
G01*
X126150000Y-108300000D01*
X128300000Y-106150000D01*
X128300000Y-108300000D01*
G37*
X128300000Y-106150000D02*
X127250000Y-105100000D01*
X128300000Y-105100000D01*
X128300000Y-106150000D01*
G36*
X128300000Y-106150000D02*
G01*
X127250000Y-105100000D01*
X128300000Y-105100000D01*
X128300000Y-106150000D01*
G37*
%TO.C,SW2*%
D14*
X157850000Y-135520000D02*
X157850000Y-138080000D01*
X158740000Y-134630000D02*
X157850000Y-135520000D01*
X158740000Y-138970000D02*
X157850000Y-138080000D01*
X162950000Y-135520000D02*
X162060000Y-134630000D01*
X162950000Y-135520000D02*
X162950000Y-138080000D01*
X162950000Y-138080000D02*
X162060000Y-138970000D01*
D15*
X162980000Y-133550000D02*
G75*
G02*
X162920000Y-133550000I-30000J0D01*
G01*
X162920000Y-133550000D02*
G75*
G02*
X162980000Y-133550000I30000J0D01*
G01*
%TO.C,D83*%
D12*
X133100000Y-109100000D02*
X136300000Y-109100000D01*
X136300000Y-112300000D01*
X133100000Y-112300000D01*
X133100000Y-109100000D01*
X133100000Y-111250000D02*
X133100000Y-109100000D01*
X135250000Y-109100000D01*
X133100000Y-111250000D01*
G36*
X133100000Y-111250000D02*
G01*
X133100000Y-109100000D01*
X135250000Y-109100000D01*
X133100000Y-111250000D01*
G37*
X134150000Y-112300000D02*
X133100000Y-112300000D01*
X133100000Y-111250000D01*
X134150000Y-112300000D01*
G36*
X134150000Y-112300000D02*
G01*
X133100000Y-112300000D01*
X133100000Y-111250000D01*
X134150000Y-112300000D01*
G37*
X136300000Y-112300000D02*
X134150000Y-112300000D01*
X136300000Y-110150000D01*
X136300000Y-112300000D01*
G36*
X136300000Y-112300000D02*
G01*
X134150000Y-112300000D01*
X136300000Y-110150000D01*
X136300000Y-112300000D01*
G37*
X136300000Y-110150000D02*
X135250000Y-109100000D01*
X136300000Y-109100000D01*
X136300000Y-110150000D01*
G36*
X136300000Y-110150000D02*
G01*
X135250000Y-109100000D01*
X136300000Y-109100000D01*
X136300000Y-110150000D01*
G37*
%TO.C,D93*%
X133100000Y-105100000D02*
X136300000Y-105100000D01*
X136300000Y-108300000D01*
X133100000Y-108300000D01*
X133100000Y-105100000D01*
X133100000Y-107250000D02*
X133100000Y-105100000D01*
X135250000Y-105100000D01*
X133100000Y-107250000D01*
G36*
X133100000Y-107250000D02*
G01*
X133100000Y-105100000D01*
X135250000Y-105100000D01*
X133100000Y-107250000D01*
G37*
X134150000Y-108300000D02*
X133100000Y-108300000D01*
X133100000Y-107250000D01*
X134150000Y-108300000D01*
G36*
X134150000Y-108300000D02*
G01*
X133100000Y-108300000D01*
X133100000Y-107250000D01*
X134150000Y-108300000D01*
G37*
X136300000Y-108300000D02*
X134150000Y-108300000D01*
X136300000Y-106150000D01*
X136300000Y-108300000D01*
G36*
X136300000Y-108300000D02*
G01*
X134150000Y-108300000D01*
X136300000Y-106150000D01*
X136300000Y-108300000D01*
G37*
X136300000Y-106150000D02*
X135250000Y-105100000D01*
X136300000Y-105100000D01*
X136300000Y-106150000D01*
G36*
X136300000Y-106150000D02*
G01*
X135250000Y-105100000D01*
X136300000Y-105100000D01*
X136300000Y-106150000D01*
G37*
%TO.C,R6*%
D11*
X156077500Y-132662258D02*
X156077500Y-132187742D01*
X157122500Y-132662258D02*
X157122500Y-132187742D01*
%TO.C,R17*%
X148227064Y-105965000D02*
X147772936Y-105965000D01*
X148227064Y-107435000D02*
X147772936Y-107435000D01*
%TO.C,D17*%
D12*
X117100000Y-137100000D02*
X120300000Y-137100000D01*
X120300000Y-140300000D01*
X117100000Y-140300000D01*
X117100000Y-137100000D01*
X117100000Y-139250000D02*
X117100000Y-137100000D01*
X119250000Y-137100000D01*
X117100000Y-139250000D01*
G36*
X117100000Y-139250000D02*
G01*
X117100000Y-137100000D01*
X119250000Y-137100000D01*
X117100000Y-139250000D01*
G37*
X118150000Y-140300000D02*
X117100000Y-140300000D01*
X117100000Y-139250000D01*
X118150000Y-140300000D01*
G36*
X118150000Y-140300000D02*
G01*
X117100000Y-140300000D01*
X117100000Y-139250000D01*
X118150000Y-140300000D01*
G37*
X120300000Y-140300000D02*
X118150000Y-140300000D01*
X120300000Y-138150000D01*
X120300000Y-140300000D01*
G36*
X120300000Y-140300000D02*
G01*
X118150000Y-140300000D01*
X120300000Y-138150000D01*
X120300000Y-140300000D01*
G37*
X120300000Y-138150000D02*
X119250000Y-137100000D01*
X120300000Y-137100000D01*
X120300000Y-138150000D01*
G36*
X120300000Y-138150000D02*
G01*
X119250000Y-137100000D01*
X120300000Y-137100000D01*
X120300000Y-138150000D01*
G37*
%TO.C,D13*%
X133100000Y-137100000D02*
X136300000Y-137100000D01*
X136300000Y-140300000D01*
X133100000Y-140300000D01*
X133100000Y-137100000D01*
X133100000Y-139250000D02*
X133100000Y-137100000D01*
X135250000Y-137100000D01*
X133100000Y-139250000D01*
G36*
X133100000Y-139250000D02*
G01*
X133100000Y-137100000D01*
X135250000Y-137100000D01*
X133100000Y-139250000D01*
G37*
X134150000Y-140300000D02*
X133100000Y-140300000D01*
X133100000Y-139250000D01*
X134150000Y-140300000D01*
G36*
X134150000Y-140300000D02*
G01*
X133100000Y-140300000D01*
X133100000Y-139250000D01*
X134150000Y-140300000D01*
G37*
X136300000Y-140300000D02*
X134150000Y-140300000D01*
X136300000Y-138150000D01*
X136300000Y-140300000D01*
G36*
X136300000Y-140300000D02*
G01*
X134150000Y-140300000D01*
X136300000Y-138150000D01*
X136300000Y-140300000D01*
G37*
X136300000Y-138150000D02*
X135250000Y-137100000D01*
X136300000Y-137100000D01*
X136300000Y-138150000D01*
G36*
X136300000Y-138150000D02*
G01*
X135250000Y-137100000D01*
X136300000Y-137100000D01*
X136300000Y-138150000D01*
G37*
%TO.C,D48*%
X113100000Y-125100000D02*
X116300000Y-125100000D01*
X116300000Y-128300000D01*
X113100000Y-128300000D01*
X113100000Y-125100000D01*
X113100000Y-127250000D02*
X113100000Y-125100000D01*
X115250000Y-125100000D01*
X113100000Y-127250000D01*
G36*
X113100000Y-127250000D02*
G01*
X113100000Y-125100000D01*
X115250000Y-125100000D01*
X113100000Y-127250000D01*
G37*
X114150000Y-128300000D02*
X113100000Y-128300000D01*
X113100000Y-127250000D01*
X114150000Y-128300000D01*
G36*
X114150000Y-128300000D02*
G01*
X113100000Y-128300000D01*
X113100000Y-127250000D01*
X114150000Y-128300000D01*
G37*
X116300000Y-128300000D02*
X114150000Y-128300000D01*
X116300000Y-126150000D01*
X116300000Y-128300000D01*
G36*
X116300000Y-128300000D02*
G01*
X114150000Y-128300000D01*
X116300000Y-126150000D01*
X116300000Y-128300000D01*
G37*
X116300000Y-126150000D02*
X115250000Y-125100000D01*
X116300000Y-125100000D01*
X116300000Y-126150000D01*
G36*
X116300000Y-126150000D02*
G01*
X115250000Y-125100000D01*
X116300000Y-125100000D01*
X116300000Y-126150000D01*
G37*
%TO.C,D79*%
X109100000Y-113100000D02*
X112300000Y-113100000D01*
X112300000Y-116300000D01*
X109100000Y-116300000D01*
X109100000Y-113100000D01*
X109100000Y-115250000D02*
X109100000Y-113100000D01*
X111250000Y-113100000D01*
X109100000Y-115250000D01*
G36*
X109100000Y-115250000D02*
G01*
X109100000Y-113100000D01*
X111250000Y-113100000D01*
X109100000Y-115250000D01*
G37*
X110150000Y-116300000D02*
X109100000Y-116300000D01*
X109100000Y-115250000D01*
X110150000Y-116300000D01*
G36*
X110150000Y-116300000D02*
G01*
X109100000Y-116300000D01*
X109100000Y-115250000D01*
X110150000Y-116300000D01*
G37*
X112300000Y-116300000D02*
X110150000Y-116300000D01*
X112300000Y-114150000D01*
X112300000Y-116300000D01*
G36*
X112300000Y-116300000D02*
G01*
X110150000Y-116300000D01*
X112300000Y-114150000D01*
X112300000Y-116300000D01*
G37*
X112300000Y-114150000D02*
X111250000Y-113100000D01*
X112300000Y-113100000D01*
X112300000Y-114150000D01*
G36*
X112300000Y-114150000D02*
G01*
X111250000Y-113100000D01*
X112300000Y-113100000D01*
X112300000Y-114150000D01*
G37*
%TO.C,R1*%
D11*
X163772936Y-120465000D02*
X164227064Y-120465000D01*
X163772936Y-121935000D02*
X164227064Y-121935000D01*
%TO.C,D5*%
D12*
X125100000Y-141100000D02*
X128300000Y-141100000D01*
X128300000Y-144300000D01*
X125100000Y-144300000D01*
X125100000Y-141100000D01*
X125100000Y-143250000D02*
X125100000Y-141100000D01*
X127250000Y-141100000D01*
X125100000Y-143250000D01*
G36*
X125100000Y-143250000D02*
G01*
X125100000Y-141100000D01*
X127250000Y-141100000D01*
X125100000Y-143250000D01*
G37*
X126150000Y-144300000D02*
X125100000Y-144300000D01*
X125100000Y-143250000D01*
X126150000Y-144300000D01*
G36*
X126150000Y-144300000D02*
G01*
X125100000Y-144300000D01*
X125100000Y-143250000D01*
X126150000Y-144300000D01*
G37*
X128300000Y-144300000D02*
X126150000Y-144300000D01*
X128300000Y-142150000D01*
X128300000Y-144300000D01*
G36*
X128300000Y-144300000D02*
G01*
X126150000Y-144300000D01*
X128300000Y-142150000D01*
X128300000Y-144300000D01*
G37*
X128300000Y-142150000D02*
X127250000Y-141100000D01*
X128300000Y-141100000D01*
X128300000Y-142150000D01*
G36*
X128300000Y-142150000D02*
G01*
X127250000Y-141100000D01*
X128300000Y-141100000D01*
X128300000Y-142150000D01*
G37*
%TO.C,D72*%
X137100000Y-113100000D02*
X140300000Y-113100000D01*
X140300000Y-116300000D01*
X137100000Y-116300000D01*
X137100000Y-113100000D01*
X137100000Y-115250000D02*
X137100000Y-113100000D01*
X139250000Y-113100000D01*
X137100000Y-115250000D01*
G36*
X137100000Y-115250000D02*
G01*
X137100000Y-113100000D01*
X139250000Y-113100000D01*
X137100000Y-115250000D01*
G37*
X138150000Y-116300000D02*
X137100000Y-116300000D01*
X137100000Y-115250000D01*
X138150000Y-116300000D01*
G36*
X138150000Y-116300000D02*
G01*
X137100000Y-116300000D01*
X137100000Y-115250000D01*
X138150000Y-116300000D01*
G37*
X140300000Y-116300000D02*
X138150000Y-116300000D01*
X140300000Y-114150000D01*
X140300000Y-116300000D01*
G36*
X140300000Y-116300000D02*
G01*
X138150000Y-116300000D01*
X140300000Y-114150000D01*
X140300000Y-116300000D01*
G37*
X140300000Y-114150000D02*
X139250000Y-113100000D01*
X140300000Y-113100000D01*
X140300000Y-114150000D01*
G36*
X140300000Y-114150000D02*
G01*
X139250000Y-113100000D01*
X140300000Y-113100000D01*
X140300000Y-114150000D01*
G37*
%TO.C,D57*%
X117100000Y-121100000D02*
X120300000Y-121100000D01*
X120300000Y-124300000D01*
X117100000Y-124300000D01*
X117100000Y-121100000D01*
X117100000Y-123250000D02*
X117100000Y-121100000D01*
X119250000Y-121100000D01*
X117100000Y-123250000D01*
G36*
X117100000Y-123250000D02*
G01*
X117100000Y-121100000D01*
X119250000Y-121100000D01*
X117100000Y-123250000D01*
G37*
X118150000Y-124300000D02*
X117100000Y-124300000D01*
X117100000Y-123250000D01*
X118150000Y-124300000D01*
G36*
X118150000Y-124300000D02*
G01*
X117100000Y-124300000D01*
X117100000Y-123250000D01*
X118150000Y-124300000D01*
G37*
X120300000Y-124300000D02*
X118150000Y-124300000D01*
X120300000Y-122150000D01*
X120300000Y-124300000D01*
G36*
X120300000Y-124300000D02*
G01*
X118150000Y-124300000D01*
X120300000Y-122150000D01*
X120300000Y-124300000D01*
G37*
X120300000Y-122150000D02*
X119250000Y-121100000D01*
X120300000Y-121100000D01*
X120300000Y-122150000D01*
G36*
X120300000Y-122150000D02*
G01*
X119250000Y-121100000D01*
X120300000Y-121100000D01*
X120300000Y-122150000D01*
G37*
%TO.C,D19*%
X109100000Y-137100000D02*
X112300000Y-137100000D01*
X112300000Y-140300000D01*
X109100000Y-140300000D01*
X109100000Y-137100000D01*
X109100000Y-139250000D02*
X109100000Y-137100000D01*
X111250000Y-137100000D01*
X109100000Y-139250000D01*
G36*
X109100000Y-139250000D02*
G01*
X109100000Y-137100000D01*
X111250000Y-137100000D01*
X109100000Y-139250000D01*
G37*
X110150000Y-140300000D02*
X109100000Y-140300000D01*
X109100000Y-139250000D01*
X110150000Y-140300000D01*
G36*
X110150000Y-140300000D02*
G01*
X109100000Y-140300000D01*
X109100000Y-139250000D01*
X110150000Y-140300000D01*
G37*
X112300000Y-140300000D02*
X110150000Y-140300000D01*
X112300000Y-138150000D01*
X112300000Y-140300000D01*
G36*
X112300000Y-140300000D02*
G01*
X110150000Y-140300000D01*
X112300000Y-138150000D01*
X112300000Y-140300000D01*
G37*
X112300000Y-138150000D02*
X111250000Y-137100000D01*
X112300000Y-137100000D01*
X112300000Y-138150000D01*
G36*
X112300000Y-138150000D02*
G01*
X111250000Y-137100000D01*
X112300000Y-137100000D01*
X112300000Y-138150000D01*
G37*
%TO.C,D86*%
X121100000Y-109100000D02*
X124300000Y-109100000D01*
X124300000Y-112300000D01*
X121100000Y-112300000D01*
X121100000Y-109100000D01*
X121100000Y-111250000D02*
X121100000Y-109100000D01*
X123250000Y-109100000D01*
X121100000Y-111250000D01*
G36*
X121100000Y-111250000D02*
G01*
X121100000Y-109100000D01*
X123250000Y-109100000D01*
X121100000Y-111250000D01*
G37*
X122150000Y-112300000D02*
X121100000Y-112300000D01*
X121100000Y-111250000D01*
X122150000Y-112300000D01*
G36*
X122150000Y-112300000D02*
G01*
X121100000Y-112300000D01*
X121100000Y-111250000D01*
X122150000Y-112300000D01*
G37*
X124300000Y-112300000D02*
X122150000Y-112300000D01*
X124300000Y-110150000D01*
X124300000Y-112300000D01*
G36*
X124300000Y-112300000D02*
G01*
X122150000Y-112300000D01*
X124300000Y-110150000D01*
X124300000Y-112300000D01*
G37*
X124300000Y-110150000D02*
X123250000Y-109100000D01*
X124300000Y-109100000D01*
X124300000Y-110150000D01*
G36*
X124300000Y-110150000D02*
G01*
X123250000Y-109100000D01*
X124300000Y-109100000D01*
X124300000Y-110150000D01*
G37*
D13*
%TO.C,kibuzzard-6A21B803*%
G36*
X159566626Y-110207774D02*
G01*
X159645988Y-110308643D01*
X159682338Y-110412170D01*
X159704146Y-110543430D01*
X159711416Y-110702423D01*
X159704146Y-110860070D01*
X159682337Y-110990522D01*
X159645988Y-111093780D01*
X159566626Y-111194649D01*
X159459397Y-111228271D01*
X159350653Y-111194649D01*
X159271593Y-111093780D01*
X159235918Y-110990522D01*
X159214513Y-110860070D01*
X159208474Y-110726656D01*
X159323694Y-110726656D01*
X159361255Y-110840549D01*
X159456974Y-110889015D01*
X159556327Y-110840549D01*
X159592676Y-110726656D01*
X159556327Y-110613974D01*
X159456974Y-110566721D01*
X159361255Y-110613974D01*
X159323694Y-110726656D01*
X159208474Y-110726656D01*
X159207377Y-110702423D01*
X159214513Y-110543430D01*
X159235918Y-110412170D01*
X159271594Y-110308643D01*
X159350653Y-110207774D01*
X159456973Y-110174901D01*
X159459397Y-110174152D01*
X159566626Y-110207774D01*
G37*
G36*
X162445128Y-110700000D02*
G01*
X161654066Y-111886592D01*
X161250188Y-111886591D01*
X156558751Y-111886591D01*
X156154873Y-111886591D01*
X156154873Y-110401939D01*
X156558751Y-110401939D01*
X156575175Y-110542488D01*
X156624448Y-110660420D01*
X156706570Y-110755736D01*
X156822079Y-110827894D01*
X156971513Y-110876360D01*
X157154873Y-110901131D01*
X157142757Y-111039257D01*
X157130641Y-111201617D01*
X156614486Y-111201616D01*
X156614486Y-111448788D01*
X157380237Y-111448789D01*
X157389324Y-111263713D01*
X157402046Y-111071971D01*
X157419009Y-110874778D01*
X157440819Y-110673344D01*
X157274219Y-110668195D01*
X157142757Y-110652746D01*
X156967072Y-110594588D01*
X156884680Y-110504927D01*
X156864949Y-110394669D01*
X157760689Y-110394669D01*
X157776744Y-110516438D01*
X157824906Y-110620032D01*
X157902147Y-110703029D01*
X158005439Y-110763005D01*
X157869736Y-110889015D01*
X157818848Y-111061066D01*
X157847927Y-111228271D01*
X157937588Y-111362763D01*
X158091465Y-111451212D01*
X158192939Y-111474838D01*
X158310770Y-111482714D01*
X158439506Y-111471506D01*
X158554308Y-111437884D01*
X158727571Y-111349434D01*
X158620948Y-111131341D01*
X158476764Y-111200404D01*
X158308346Y-111228271D01*
X158171432Y-111181018D01*
X158121756Y-111051373D01*
X158144777Y-110959289D01*
X158204146Y-110901131D01*
X158286537Y-110869629D01*
X158378621Y-110859935D01*
X158490092Y-110859936D01*
X158490092Y-110702423D01*
X158938395Y-110702423D01*
X158946725Y-110887273D01*
X158971715Y-111046830D01*
X159013365Y-111181094D01*
X159071675Y-111290065D01*
X159173990Y-111397092D01*
X159303231Y-111461309D01*
X159459397Y-111482714D01*
X159613139Y-111461174D01*
X159741572Y-111396555D01*
X159844696Y-111288853D01*
X159904066Y-111179503D01*
X159946473Y-111045315D01*
X159971918Y-110886288D01*
X159980398Y-110702423D01*
X159972069Y-110516439D01*
X159947079Y-110355896D01*
X159905429Y-110220799D01*
X159847120Y-110111147D01*
X159744803Y-110003446D01*
X159635487Y-109948788D01*
X160091869Y-109948788D01*
X160157297Y-110107512D01*
X160201824Y-110204443D01*
X160253016Y-110308643D01*
X160309659Y-110417993D01*
X160370544Y-110530372D01*
X160434155Y-110641842D01*
X160498977Y-110748465D01*
X160116101Y-111448789D01*
X160416586Y-111448789D01*
X160666183Y-110968982D01*
X160903662Y-111448788D01*
X161225956Y-111448789D01*
X160833387Y-110741195D01*
X160892757Y-110634875D01*
X160954550Y-110524313D01*
X161016041Y-110413146D01*
X161074502Y-110305008D01*
X161129025Y-110202019D01*
X161178702Y-110106300D01*
X161250188Y-109948788D01*
X160927894Y-109948788D01*
X160872159Y-110079947D01*
X160806731Y-110226252D01*
X160736457Y-110377403D01*
X160666182Y-110523102D01*
X160594999Y-110372859D01*
X160526844Y-110222617D01*
X160465354Y-110079039D01*
X160414163Y-109948788D01*
X160091869Y-109948788D01*
X159635487Y-109948788D01*
X159615563Y-109938826D01*
X159459397Y-109917286D01*
X159303231Y-109938826D01*
X159173990Y-110003445D01*
X159071675Y-110111147D01*
X159013365Y-110220800D01*
X158971715Y-110355897D01*
X158946725Y-110516438D01*
X158938395Y-110702423D01*
X158490092Y-110702423D01*
X158490092Y-110612764D01*
X158398008Y-110612763D01*
X158265334Y-110600949D01*
X158158104Y-110565509D01*
X158087224Y-110500384D01*
X158063597Y-110399515D01*
X158125390Y-110237157D01*
X158209902Y-110188086D01*
X158339849Y-110171729D01*
X158454651Y-110178393D01*
X158551885Y-110198384D01*
X158696069Y-110249273D01*
X158754227Y-109999677D01*
X158679106Y-109973021D01*
X158573695Y-109946365D01*
X158454954Y-109925767D01*
X158337426Y-109917286D01*
X158197482Y-109926070D01*
X158078137Y-109952423D01*
X157978783Y-109994830D01*
X157898815Y-110051778D01*
X157794615Y-110203231D01*
X157760689Y-110394669D01*
X156864949Y-110394669D01*
X156864082Y-110389822D01*
X156876198Y-110309855D01*
X156921029Y-110240791D01*
X157010689Y-110191115D01*
X157154873Y-110171729D01*
X157268161Y-110177181D01*
X157360851Y-110193538D01*
X157496554Y-110242003D01*
X157557135Y-109994830D01*
X157488072Y-109968173D01*
X157387507Y-109942730D01*
X157271190Y-109924556D01*
X157152450Y-109917286D01*
X157013718Y-109926374D01*
X156893161Y-109953635D01*
X156790779Y-109997254D01*
X156706571Y-110055412D01*
X156595100Y-110209289D01*
X156558751Y-110401939D01*
X156154873Y-110401939D01*
X156154873Y-109513409D01*
X156558751Y-109513409D01*
X157152450Y-109513409D01*
X158337426Y-109513409D01*
X159459397Y-109513409D01*
X160414163Y-109513409D01*
X161250188Y-109513409D01*
X161654066Y-109513408D01*
X162445128Y-110700000D01*
G37*
%TO.C,D29*%
D12*
X109100000Y-133100000D02*
X112300000Y-133100000D01*
X112300000Y-136300000D01*
X109100000Y-136300000D01*
X109100000Y-133100000D01*
X109100000Y-135250000D02*
X109100000Y-133100000D01*
X111250000Y-133100000D01*
X109100000Y-135250000D01*
G36*
X109100000Y-135250000D02*
G01*
X109100000Y-133100000D01*
X111250000Y-133100000D01*
X109100000Y-135250000D01*
G37*
X110150000Y-136300000D02*
X109100000Y-136300000D01*
X109100000Y-135250000D01*
X110150000Y-136300000D01*
G36*
X110150000Y-136300000D02*
G01*
X109100000Y-136300000D01*
X109100000Y-135250000D01*
X110150000Y-136300000D01*
G37*
X112300000Y-136300000D02*
X110150000Y-136300000D01*
X112300000Y-134150000D01*
X112300000Y-136300000D01*
G36*
X112300000Y-136300000D02*
G01*
X110150000Y-136300000D01*
X112300000Y-134150000D01*
X112300000Y-136300000D01*
G37*
X112300000Y-134150000D02*
X111250000Y-133100000D01*
X112300000Y-133100000D01*
X112300000Y-134150000D01*
G36*
X112300000Y-134150000D02*
G01*
X111250000Y-133100000D01*
X112300000Y-133100000D01*
X112300000Y-134150000D01*
G37*
%TO.C,SW1*%
D14*
X157850000Y-126520000D02*
X158740000Y-125630000D01*
X157850000Y-129080000D02*
X157850000Y-126520000D01*
X157850000Y-129080000D02*
X158740000Y-129970000D01*
X162060000Y-125630000D02*
X162950000Y-126520000D01*
X162060000Y-129970000D02*
X162950000Y-129080000D01*
X162950000Y-129080000D02*
X162950000Y-126520000D01*
D15*
X157880000Y-131050000D02*
G75*
G02*
X157820000Y-131050000I-30000J0D01*
G01*
X157820000Y-131050000D02*
G75*
G02*
X157880000Y-131050000I30000J0D01*
G01*
%TO.C,D77*%
D12*
X117100000Y-113100000D02*
X120300000Y-113100000D01*
X120300000Y-116300000D01*
X117100000Y-116300000D01*
X117100000Y-113100000D01*
X117100000Y-115250000D02*
X117100000Y-113100000D01*
X119250000Y-113100000D01*
X117100000Y-115250000D01*
G36*
X117100000Y-115250000D02*
G01*
X117100000Y-113100000D01*
X119250000Y-113100000D01*
X117100000Y-115250000D01*
G37*
X118150000Y-116300000D02*
X117100000Y-116300000D01*
X117100000Y-115250000D01*
X118150000Y-116300000D01*
G36*
X118150000Y-116300000D02*
G01*
X117100000Y-116300000D01*
X117100000Y-115250000D01*
X118150000Y-116300000D01*
G37*
X120300000Y-116300000D02*
X118150000Y-116300000D01*
X120300000Y-114150000D01*
X120300000Y-116300000D01*
G36*
X120300000Y-116300000D02*
G01*
X118150000Y-116300000D01*
X120300000Y-114150000D01*
X120300000Y-116300000D01*
G37*
X120300000Y-114150000D02*
X119250000Y-113100000D01*
X120300000Y-113100000D01*
X120300000Y-114150000D01*
G36*
X120300000Y-114150000D02*
G01*
X119250000Y-113100000D01*
X120300000Y-113100000D01*
X120300000Y-114150000D01*
G37*
%TO.C,D76*%
X121100000Y-113100000D02*
X124300000Y-113100000D01*
X124300000Y-116300000D01*
X121100000Y-116300000D01*
X121100000Y-113100000D01*
X121100000Y-115250000D02*
X121100000Y-113100000D01*
X123250000Y-113100000D01*
X121100000Y-115250000D01*
G36*
X121100000Y-115250000D02*
G01*
X121100000Y-113100000D01*
X123250000Y-113100000D01*
X121100000Y-115250000D01*
G37*
X122150000Y-116300000D02*
X121100000Y-116300000D01*
X121100000Y-115250000D01*
X122150000Y-116300000D01*
G36*
X122150000Y-116300000D02*
G01*
X121100000Y-116300000D01*
X121100000Y-115250000D01*
X122150000Y-116300000D01*
G37*
X124300000Y-116300000D02*
X122150000Y-116300000D01*
X124300000Y-114150000D01*
X124300000Y-116300000D01*
G36*
X124300000Y-116300000D02*
G01*
X122150000Y-116300000D01*
X124300000Y-114150000D01*
X124300000Y-116300000D01*
G37*
X124300000Y-114150000D02*
X123250000Y-113100000D01*
X124300000Y-113100000D01*
X124300000Y-114150000D01*
G36*
X124300000Y-114150000D02*
G01*
X123250000Y-113100000D01*
X124300000Y-113100000D01*
X124300000Y-114150000D01*
G37*
%TO.C,J1*%
D11*
X168690000Y-134910000D02*
X168690000Y-136160000D01*
X168690000Y-136160000D02*
X169940000Y-136160000D01*
X168790000Y-134100000D02*
X168790000Y-134400000D01*
X168790000Y-134400000D02*
X168990000Y-134400000D01*
X168890000Y-134100000D02*
X168890000Y-134400000D01*
X168990000Y-133300000D02*
X169600000Y-133300000D01*
X168990000Y-134100000D02*
X168790000Y-134100000D01*
X169600000Y-130350000D02*
X169600000Y-132300000D01*
X169600000Y-132300000D02*
X168990000Y-132300000D01*
X169600000Y-133300000D02*
X169600000Y-135250000D01*
X169600000Y-135250000D02*
X173100000Y-135250000D01*
X170300000Y-129740000D02*
X170300000Y-130350000D01*
X170300000Y-135860000D02*
X170300000Y-135250000D01*
X171600000Y-129740000D02*
X171600000Y-130350000D01*
X171600000Y-135860000D02*
X171600000Y-135250000D01*
X172600000Y-132700000D02*
X173100000Y-132700000D01*
X172600000Y-132900000D02*
X172600000Y-132700000D01*
X173100000Y-130350000D02*
X169600000Y-130350000D01*
X173100000Y-132800000D02*
X172600000Y-132800000D01*
X173100000Y-132900000D02*
X172600000Y-132900000D01*
X173100000Y-135250000D02*
X173100000Y-130350000D01*
X168990000Y-129740000D02*
X173710000Y-129740000D01*
X173710000Y-135860000D01*
X168990000Y-135860000D01*
X168990000Y-129740000D01*
%TO.C,R10*%
X148227064Y-133965000D02*
X147772936Y-133965000D01*
X148227064Y-135435000D02*
X147772936Y-135435000D01*
%TO.C,D70*%
D12*
X105100000Y-117100000D02*
X108300000Y-117100000D01*
X108300000Y-120300000D01*
X105100000Y-120300000D01*
X105100000Y-117100000D01*
X105100000Y-119250000D02*
X105100000Y-117100000D01*
X107250000Y-117100000D01*
X105100000Y-119250000D01*
G36*
X105100000Y-119250000D02*
G01*
X105100000Y-117100000D01*
X107250000Y-117100000D01*
X105100000Y-119250000D01*
G37*
X106150000Y-120300000D02*
X105100000Y-120300000D01*
X105100000Y-119250000D01*
X106150000Y-120300000D01*
G36*
X106150000Y-120300000D02*
G01*
X105100000Y-120300000D01*
X105100000Y-119250000D01*
X106150000Y-120300000D01*
G37*
X108300000Y-120300000D02*
X106150000Y-120300000D01*
X108300000Y-118150000D01*
X108300000Y-120300000D01*
G36*
X108300000Y-120300000D02*
G01*
X106150000Y-120300000D01*
X108300000Y-118150000D01*
X108300000Y-120300000D01*
G37*
X108300000Y-118150000D02*
X107250000Y-117100000D01*
X108300000Y-117100000D01*
X108300000Y-118150000D01*
G36*
X108300000Y-118150000D02*
G01*
X107250000Y-117100000D01*
X108300000Y-117100000D01*
X108300000Y-118150000D01*
G37*
%TO.C,D11*%
X141100000Y-137100000D02*
X144300000Y-137100000D01*
X144300000Y-140300000D01*
X141100000Y-140300000D01*
X141100000Y-137100000D01*
X141100000Y-139250000D02*
X141100000Y-137100000D01*
X143250000Y-137100000D01*
X141100000Y-139250000D01*
G36*
X141100000Y-139250000D02*
G01*
X141100000Y-137100000D01*
X143250000Y-137100000D01*
X141100000Y-139250000D01*
G37*
X142150000Y-140300000D02*
X141100000Y-140300000D01*
X141100000Y-139250000D01*
X142150000Y-140300000D01*
G36*
X142150000Y-140300000D02*
G01*
X141100000Y-140300000D01*
X141100000Y-139250000D01*
X142150000Y-140300000D01*
G37*
X144300000Y-140300000D02*
X142150000Y-140300000D01*
X144300000Y-138150000D01*
X144300000Y-140300000D01*
G36*
X144300000Y-140300000D02*
G01*
X142150000Y-140300000D01*
X144300000Y-138150000D01*
X144300000Y-140300000D01*
G37*
X144300000Y-138150000D02*
X143250000Y-137100000D01*
X144300000Y-137100000D01*
X144300000Y-138150000D01*
G36*
X144300000Y-138150000D02*
G01*
X143250000Y-137100000D01*
X144300000Y-137100000D01*
X144300000Y-138150000D01*
G37*
%TO.C,D71*%
X141100000Y-113100000D02*
X144300000Y-113100000D01*
X144300000Y-116300000D01*
X141100000Y-116300000D01*
X141100000Y-113100000D01*
X141100000Y-115250000D02*
X141100000Y-113100000D01*
X143250000Y-113100000D01*
X141100000Y-115250000D01*
G36*
X141100000Y-115250000D02*
G01*
X141100000Y-113100000D01*
X143250000Y-113100000D01*
X141100000Y-115250000D01*
G37*
X142150000Y-116300000D02*
X141100000Y-116300000D01*
X141100000Y-115250000D01*
X142150000Y-116300000D01*
G36*
X142150000Y-116300000D02*
G01*
X141100000Y-116300000D01*
X141100000Y-115250000D01*
X142150000Y-116300000D01*
G37*
X144300000Y-116300000D02*
X142150000Y-116300000D01*
X144300000Y-114150000D01*
X144300000Y-116300000D01*
G36*
X144300000Y-116300000D02*
G01*
X142150000Y-116300000D01*
X144300000Y-114150000D01*
X144300000Y-116300000D01*
G37*
X144300000Y-114150000D02*
X143250000Y-113100000D01*
X144300000Y-113100000D01*
X144300000Y-114150000D01*
G36*
X144300000Y-114150000D02*
G01*
X143250000Y-113100000D01*
X144300000Y-113100000D01*
X144300000Y-114150000D01*
G37*
%TO.C,D75*%
X125100000Y-113100000D02*
X128300000Y-113100000D01*
X128300000Y-116300000D01*
X125100000Y-116300000D01*
X125100000Y-113100000D01*
X125100000Y-115250000D02*
X125100000Y-113100000D01*
X127250000Y-113100000D01*
X125100000Y-115250000D01*
G36*
X125100000Y-115250000D02*
G01*
X125100000Y-113100000D01*
X127250000Y-113100000D01*
X125100000Y-115250000D01*
G37*
X126150000Y-116300000D02*
X125100000Y-116300000D01*
X125100000Y-115250000D01*
X126150000Y-116300000D01*
G36*
X126150000Y-116300000D02*
G01*
X125100000Y-116300000D01*
X125100000Y-115250000D01*
X126150000Y-116300000D01*
G37*
X128300000Y-116300000D02*
X126150000Y-116300000D01*
X128300000Y-114150000D01*
X128300000Y-116300000D01*
G36*
X128300000Y-116300000D02*
G01*
X126150000Y-116300000D01*
X128300000Y-114150000D01*
X128300000Y-116300000D01*
G37*
X128300000Y-114150000D02*
X127250000Y-113100000D01*
X128300000Y-113100000D01*
X128300000Y-114150000D01*
G36*
X128300000Y-114150000D02*
G01*
X127250000Y-113100000D01*
X128300000Y-113100000D01*
X128300000Y-114150000D01*
G37*
%TO.C,R18*%
D11*
X155627064Y-106065000D02*
X155172936Y-106065000D01*
X155627064Y-107535000D02*
X155172936Y-107535000D01*
%TO.C,D97*%
D12*
X117100000Y-105100000D02*
X120300000Y-105100000D01*
X120300000Y-108300000D01*
X117100000Y-108300000D01*
X117100000Y-105100000D01*
X117100000Y-107250000D02*
X117100000Y-105100000D01*
X119250000Y-105100000D01*
X117100000Y-107250000D01*
G36*
X117100000Y-107250000D02*
G01*
X117100000Y-105100000D01*
X119250000Y-105100000D01*
X117100000Y-107250000D01*
G37*
X118150000Y-108300000D02*
X117100000Y-108300000D01*
X117100000Y-107250000D01*
X118150000Y-108300000D01*
G36*
X118150000Y-108300000D02*
G01*
X117100000Y-108300000D01*
X117100000Y-107250000D01*
X118150000Y-108300000D01*
G37*
X120300000Y-108300000D02*
X118150000Y-108300000D01*
X120300000Y-106150000D01*
X120300000Y-108300000D01*
G36*
X120300000Y-108300000D02*
G01*
X118150000Y-108300000D01*
X120300000Y-106150000D01*
X120300000Y-108300000D01*
G37*
X120300000Y-106150000D02*
X119250000Y-105100000D01*
X120300000Y-105100000D01*
X120300000Y-106150000D01*
G36*
X120300000Y-106150000D02*
G01*
X119250000Y-105100000D01*
X120300000Y-105100000D01*
X120300000Y-106150000D01*
G37*
%TO.C,D8*%
X113100000Y-141100000D02*
X116300000Y-141100000D01*
X116300000Y-144300000D01*
X113100000Y-144300000D01*
X113100000Y-141100000D01*
X113100000Y-143250000D02*
X113100000Y-141100000D01*
X115250000Y-141100000D01*
X113100000Y-143250000D01*
G36*
X113100000Y-143250000D02*
G01*
X113100000Y-141100000D01*
X115250000Y-141100000D01*
X113100000Y-143250000D01*
G37*
X114150000Y-144300000D02*
X113100000Y-144300000D01*
X113100000Y-143250000D01*
X114150000Y-144300000D01*
G36*
X114150000Y-144300000D02*
G01*
X113100000Y-144300000D01*
X113100000Y-143250000D01*
X114150000Y-144300000D01*
G37*
X116300000Y-144300000D02*
X114150000Y-144300000D01*
X116300000Y-142150000D01*
X116300000Y-144300000D01*
G36*
X116300000Y-144300000D02*
G01*
X114150000Y-144300000D01*
X116300000Y-142150000D01*
X116300000Y-144300000D01*
G37*
X116300000Y-142150000D02*
X115250000Y-141100000D01*
X116300000Y-141100000D01*
X116300000Y-142150000D01*
G36*
X116300000Y-142150000D02*
G01*
X115250000Y-141100000D01*
X116300000Y-141100000D01*
X116300000Y-142150000D01*
G37*
%TO.C,D53*%
X133100000Y-121100000D02*
X136300000Y-121100000D01*
X136300000Y-124300000D01*
X133100000Y-124300000D01*
X133100000Y-121100000D01*
X133100000Y-123250000D02*
X133100000Y-121100000D01*
X135250000Y-121100000D01*
X133100000Y-123250000D01*
G36*
X133100000Y-123250000D02*
G01*
X133100000Y-121100000D01*
X135250000Y-121100000D01*
X133100000Y-123250000D01*
G37*
X134150000Y-124300000D02*
X133100000Y-124300000D01*
X133100000Y-123250000D01*
X134150000Y-124300000D01*
G36*
X134150000Y-124300000D02*
G01*
X133100000Y-124300000D01*
X133100000Y-123250000D01*
X134150000Y-124300000D01*
G37*
X136300000Y-124300000D02*
X134150000Y-124300000D01*
X136300000Y-122150000D01*
X136300000Y-124300000D01*
G36*
X136300000Y-124300000D02*
G01*
X134150000Y-124300000D01*
X136300000Y-122150000D01*
X136300000Y-124300000D01*
G37*
X136300000Y-122150000D02*
X135250000Y-121100000D01*
X136300000Y-121100000D01*
X136300000Y-122150000D01*
G36*
X136300000Y-122150000D02*
G01*
X135250000Y-121100000D01*
X136300000Y-121100000D01*
X136300000Y-122150000D01*
G37*
%TO.C,D87*%
X117100000Y-109100000D02*
X120300000Y-109100000D01*
X120300000Y-112300000D01*
X117100000Y-112300000D01*
X117100000Y-109100000D01*
X117100000Y-111250000D02*
X117100000Y-109100000D01*
X119250000Y-109100000D01*
X117100000Y-111250000D01*
G36*
X117100000Y-111250000D02*
G01*
X117100000Y-109100000D01*
X119250000Y-109100000D01*
X117100000Y-111250000D01*
G37*
X118150000Y-112300000D02*
X117100000Y-112300000D01*
X117100000Y-111250000D01*
X118150000Y-112300000D01*
G36*
X118150000Y-112300000D02*
G01*
X117100000Y-112300000D01*
X117100000Y-111250000D01*
X118150000Y-112300000D01*
G37*
X120300000Y-112300000D02*
X118150000Y-112300000D01*
X120300000Y-110150000D01*
X120300000Y-112300000D01*
G36*
X120300000Y-112300000D02*
G01*
X118150000Y-112300000D01*
X120300000Y-110150000D01*
X120300000Y-112300000D01*
G37*
X120300000Y-110150000D02*
X119250000Y-109100000D01*
X120300000Y-109100000D01*
X120300000Y-110150000D01*
G36*
X120300000Y-110150000D02*
G01*
X119250000Y-109100000D01*
X120300000Y-109100000D01*
X120300000Y-110150000D01*
G37*
%TO.C,R8*%
D11*
X148227064Y-141965000D02*
X147772936Y-141965000D01*
X148227064Y-143435000D02*
X147772936Y-143435000D01*
%TO.C,D20*%
D12*
X105100000Y-137100000D02*
X108300000Y-137100000D01*
X108300000Y-140300000D01*
X105100000Y-140300000D01*
X105100000Y-137100000D01*
X105100000Y-139250000D02*
X105100000Y-137100000D01*
X107250000Y-137100000D01*
X105100000Y-139250000D01*
G36*
X105100000Y-139250000D02*
G01*
X105100000Y-137100000D01*
X107250000Y-137100000D01*
X105100000Y-139250000D01*
G37*
X106150000Y-140300000D02*
X105100000Y-140300000D01*
X105100000Y-139250000D01*
X106150000Y-140300000D01*
G36*
X106150000Y-140300000D02*
G01*
X105100000Y-140300000D01*
X105100000Y-139250000D01*
X106150000Y-140300000D01*
G37*
X108300000Y-140300000D02*
X106150000Y-140300000D01*
X108300000Y-138150000D01*
X108300000Y-140300000D01*
G36*
X108300000Y-140300000D02*
G01*
X106150000Y-140300000D01*
X108300000Y-138150000D01*
X108300000Y-140300000D01*
G37*
X108300000Y-138150000D02*
X107250000Y-137100000D01*
X108300000Y-137100000D01*
X108300000Y-138150000D01*
G36*
X108300000Y-138150000D02*
G01*
X107250000Y-137100000D01*
X108300000Y-137100000D01*
X108300000Y-138150000D01*
G37*
%TO.C,D44*%
X129100000Y-125100000D02*
X132300000Y-125100000D01*
X132300000Y-128300000D01*
X129100000Y-128300000D01*
X129100000Y-125100000D01*
X129100000Y-127250000D02*
X129100000Y-125100000D01*
X131250000Y-125100000D01*
X129100000Y-127250000D01*
G36*
X129100000Y-127250000D02*
G01*
X129100000Y-125100000D01*
X131250000Y-125100000D01*
X129100000Y-127250000D01*
G37*
X130150000Y-128300000D02*
X129100000Y-128300000D01*
X129100000Y-127250000D01*
X130150000Y-128300000D01*
G36*
X130150000Y-128300000D02*
G01*
X129100000Y-128300000D01*
X129100000Y-127250000D01*
X130150000Y-128300000D01*
G37*
X132300000Y-128300000D02*
X130150000Y-128300000D01*
X132300000Y-126150000D01*
X132300000Y-128300000D01*
G36*
X132300000Y-128300000D02*
G01*
X130150000Y-128300000D01*
X132300000Y-126150000D01*
X132300000Y-128300000D01*
G37*
X132300000Y-126150000D02*
X131250000Y-125100000D01*
X132300000Y-125100000D01*
X132300000Y-126150000D01*
G36*
X132300000Y-126150000D02*
G01*
X131250000Y-125100000D01*
X132300000Y-125100000D01*
X132300000Y-126150000D01*
G37*
%TO.C,R11*%
D11*
X148227064Y-129965000D02*
X147772936Y-129965000D01*
X148227064Y-131435000D02*
X147772936Y-131435000D01*
%TO.C,D55*%
D12*
X125100000Y-121100000D02*
X128300000Y-121100000D01*
X128300000Y-124300000D01*
X125100000Y-124300000D01*
X125100000Y-121100000D01*
X125100000Y-123250000D02*
X125100000Y-121100000D01*
X127250000Y-121100000D01*
X125100000Y-123250000D01*
G36*
X125100000Y-123250000D02*
G01*
X125100000Y-121100000D01*
X127250000Y-121100000D01*
X125100000Y-123250000D01*
G37*
X126150000Y-124300000D02*
X125100000Y-124300000D01*
X125100000Y-123250000D01*
X126150000Y-124300000D01*
G36*
X126150000Y-124300000D02*
G01*
X125100000Y-124300000D01*
X125100000Y-123250000D01*
X126150000Y-124300000D01*
G37*
X128300000Y-124300000D02*
X126150000Y-124300000D01*
X128300000Y-122150000D01*
X128300000Y-124300000D01*
G36*
X128300000Y-124300000D02*
G01*
X126150000Y-124300000D01*
X128300000Y-122150000D01*
X128300000Y-124300000D01*
G37*
X128300000Y-122150000D02*
X127250000Y-121100000D01*
X128300000Y-121100000D01*
X128300000Y-122150000D01*
G36*
X128300000Y-122150000D02*
G01*
X127250000Y-121100000D01*
X128300000Y-121100000D01*
X128300000Y-122150000D01*
G37*
%TO.C,D47*%
X117100000Y-125100000D02*
X120300000Y-125100000D01*
X120300000Y-128300000D01*
X117100000Y-128300000D01*
X117100000Y-125100000D01*
X117100000Y-127250000D02*
X117100000Y-125100000D01*
X119250000Y-125100000D01*
X117100000Y-127250000D01*
G36*
X117100000Y-127250000D02*
G01*
X117100000Y-125100000D01*
X119250000Y-125100000D01*
X117100000Y-127250000D01*
G37*
X118150000Y-128300000D02*
X117100000Y-128300000D01*
X117100000Y-127250000D01*
X118150000Y-128300000D01*
G36*
X118150000Y-128300000D02*
G01*
X117100000Y-128300000D01*
X117100000Y-127250000D01*
X118150000Y-128300000D01*
G37*
X120300000Y-128300000D02*
X118150000Y-128300000D01*
X120300000Y-126150000D01*
X120300000Y-128300000D01*
G36*
X120300000Y-128300000D02*
G01*
X118150000Y-128300000D01*
X120300000Y-126150000D01*
X120300000Y-128300000D01*
G37*
X120300000Y-126150000D02*
X119250000Y-125100000D01*
X120300000Y-125100000D01*
X120300000Y-126150000D01*
G36*
X120300000Y-126150000D02*
G01*
X119250000Y-125100000D01*
X120300000Y-125100000D01*
X120300000Y-126150000D01*
G37*
%TO.C,D63*%
X133100000Y-117100000D02*
X136300000Y-117100000D01*
X136300000Y-120300000D01*
X133100000Y-120300000D01*
X133100000Y-117100000D01*
X133100000Y-119250000D02*
X133100000Y-117100000D01*
X135250000Y-117100000D01*
X133100000Y-119250000D01*
G36*
X133100000Y-119250000D02*
G01*
X133100000Y-117100000D01*
X135250000Y-117100000D01*
X133100000Y-119250000D01*
G37*
X134150000Y-120300000D02*
X133100000Y-120300000D01*
X133100000Y-119250000D01*
X134150000Y-120300000D01*
G36*
X134150000Y-120300000D02*
G01*
X133100000Y-120300000D01*
X133100000Y-119250000D01*
X134150000Y-120300000D01*
G37*
X136300000Y-120300000D02*
X134150000Y-120300000D01*
X136300000Y-118150000D01*
X136300000Y-120300000D01*
G36*
X136300000Y-120300000D02*
G01*
X134150000Y-120300000D01*
X136300000Y-118150000D01*
X136300000Y-120300000D01*
G37*
X136300000Y-118150000D02*
X135250000Y-117100000D01*
X136300000Y-117100000D01*
X136300000Y-118150000D01*
G36*
X136300000Y-118150000D02*
G01*
X135250000Y-117100000D01*
X136300000Y-117100000D01*
X136300000Y-118150000D01*
G37*
%TO.C,D98*%
X113100000Y-105100000D02*
X116300000Y-105100000D01*
X116300000Y-108300000D01*
X113100000Y-108300000D01*
X113100000Y-105100000D01*
X113100000Y-107250000D02*
X113100000Y-105100000D01*
X115250000Y-105100000D01*
X113100000Y-107250000D01*
G36*
X113100000Y-107250000D02*
G01*
X113100000Y-105100000D01*
X115250000Y-105100000D01*
X113100000Y-107250000D01*
G37*
X114150000Y-108300000D02*
X113100000Y-108300000D01*
X113100000Y-107250000D01*
X114150000Y-108300000D01*
G36*
X114150000Y-108300000D02*
G01*
X113100000Y-108300000D01*
X113100000Y-107250000D01*
X114150000Y-108300000D01*
G37*
X116300000Y-108300000D02*
X114150000Y-108300000D01*
X116300000Y-106150000D01*
X116300000Y-108300000D01*
G36*
X116300000Y-108300000D02*
G01*
X114150000Y-108300000D01*
X116300000Y-106150000D01*
X116300000Y-108300000D01*
G37*
X116300000Y-106150000D02*
X115250000Y-105100000D01*
X116300000Y-105100000D01*
X116300000Y-106150000D01*
G36*
X116300000Y-106150000D02*
G01*
X115250000Y-105100000D01*
X116300000Y-105100000D01*
X116300000Y-106150000D01*
G37*
%TO.C,D99*%
X109100000Y-105100000D02*
X112300000Y-105100000D01*
X112300000Y-108300000D01*
X109100000Y-108300000D01*
X109100000Y-105100000D01*
X109100000Y-107250000D02*
X109100000Y-105100000D01*
X111250000Y-105100000D01*
X109100000Y-107250000D01*
G36*
X109100000Y-107250000D02*
G01*
X109100000Y-105100000D01*
X111250000Y-105100000D01*
X109100000Y-107250000D01*
G37*
X110150000Y-108300000D02*
X109100000Y-108300000D01*
X109100000Y-107250000D01*
X110150000Y-108300000D01*
G36*
X110150000Y-108300000D02*
G01*
X109100000Y-108300000D01*
X109100000Y-107250000D01*
X110150000Y-108300000D01*
G37*
X112300000Y-108300000D02*
X110150000Y-108300000D01*
X112300000Y-106150000D01*
X112300000Y-108300000D01*
G36*
X112300000Y-108300000D02*
G01*
X110150000Y-108300000D01*
X112300000Y-106150000D01*
X112300000Y-108300000D01*
G37*
X112300000Y-106150000D02*
X111250000Y-105100000D01*
X112300000Y-105100000D01*
X112300000Y-106150000D01*
G36*
X112300000Y-106150000D02*
G01*
X111250000Y-105100000D01*
X112300000Y-105100000D01*
X112300000Y-106150000D01*
G37*
%TO.C,D38*%
X113100000Y-129100000D02*
X116300000Y-129100000D01*
X116300000Y-132300000D01*
X113100000Y-132300000D01*
X113100000Y-129100000D01*
X113100000Y-131250000D02*
X113100000Y-129100000D01*
X115250000Y-129100000D01*
X113100000Y-131250000D01*
G36*
X113100000Y-131250000D02*
G01*
X113100000Y-129100000D01*
X115250000Y-129100000D01*
X113100000Y-131250000D01*
G37*
X114150000Y-132300000D02*
X113100000Y-132300000D01*
X113100000Y-131250000D01*
X114150000Y-132300000D01*
G36*
X114150000Y-132300000D02*
G01*
X113100000Y-132300000D01*
X113100000Y-131250000D01*
X114150000Y-132300000D01*
G37*
X116300000Y-132300000D02*
X114150000Y-132300000D01*
X116300000Y-130150000D01*
X116300000Y-132300000D01*
G36*
X116300000Y-132300000D02*
G01*
X114150000Y-132300000D01*
X116300000Y-130150000D01*
X116300000Y-132300000D01*
G37*
X116300000Y-130150000D02*
X115250000Y-129100000D01*
X116300000Y-129100000D01*
X116300000Y-130150000D01*
G36*
X116300000Y-130150000D02*
G01*
X115250000Y-129100000D01*
X116300000Y-129100000D01*
X116300000Y-130150000D01*
G37*
%TO.C,D73*%
X133100000Y-113100000D02*
X136300000Y-113100000D01*
X136300000Y-116300000D01*
X133100000Y-116300000D01*
X133100000Y-113100000D01*
X133100000Y-115250000D02*
X133100000Y-113100000D01*
X135250000Y-113100000D01*
X133100000Y-115250000D01*
G36*
X133100000Y-115250000D02*
G01*
X133100000Y-113100000D01*
X135250000Y-113100000D01*
X133100000Y-115250000D01*
G37*
X134150000Y-116300000D02*
X133100000Y-116300000D01*
X133100000Y-115250000D01*
X134150000Y-116300000D01*
G36*
X134150000Y-116300000D02*
G01*
X133100000Y-116300000D01*
X133100000Y-115250000D01*
X134150000Y-116300000D01*
G37*
X136300000Y-116300000D02*
X134150000Y-116300000D01*
X136300000Y-114150000D01*
X136300000Y-116300000D01*
G36*
X136300000Y-116300000D02*
G01*
X134150000Y-116300000D01*
X136300000Y-114150000D01*
X136300000Y-116300000D01*
G37*
X136300000Y-114150000D02*
X135250000Y-113100000D01*
X136300000Y-113100000D01*
X136300000Y-114150000D01*
G36*
X136300000Y-114150000D02*
G01*
X135250000Y-113100000D01*
X136300000Y-113100000D01*
X136300000Y-114150000D01*
G37*
%TO.C,D90*%
X105100000Y-109100000D02*
X108300000Y-109100000D01*
X108300000Y-112300000D01*
X105100000Y-112300000D01*
X105100000Y-109100000D01*
X105100000Y-111250000D02*
X105100000Y-109100000D01*
X107250000Y-109100000D01*
X105100000Y-111250000D01*
G36*
X105100000Y-111250000D02*
G01*
X105100000Y-109100000D01*
X107250000Y-109100000D01*
X105100000Y-111250000D01*
G37*
X106150000Y-112300000D02*
X105100000Y-112300000D01*
X105100000Y-111250000D01*
X106150000Y-112300000D01*
G36*
X106150000Y-112300000D02*
G01*
X105100000Y-112300000D01*
X105100000Y-111250000D01*
X106150000Y-112300000D01*
G37*
X108300000Y-112300000D02*
X106150000Y-112300000D01*
X108300000Y-110150000D01*
X108300000Y-112300000D01*
G36*
X108300000Y-112300000D02*
G01*
X106150000Y-112300000D01*
X108300000Y-110150000D01*
X108300000Y-112300000D01*
G37*
X108300000Y-110150000D02*
X107250000Y-109100000D01*
X108300000Y-109100000D01*
X108300000Y-110150000D01*
G36*
X108300000Y-110150000D02*
G01*
X107250000Y-109100000D01*
X108300000Y-109100000D01*
X108300000Y-110150000D01*
G37*
%TO.C,D42*%
X137100000Y-125100000D02*
X140300000Y-125100000D01*
X140300000Y-128300000D01*
X137100000Y-128300000D01*
X137100000Y-125100000D01*
X137100000Y-127250000D02*
X137100000Y-125100000D01*
X139250000Y-125100000D01*
X137100000Y-127250000D01*
G36*
X137100000Y-127250000D02*
G01*
X137100000Y-125100000D01*
X139250000Y-125100000D01*
X137100000Y-127250000D01*
G37*
X138150000Y-128300000D02*
X137100000Y-128300000D01*
X137100000Y-127250000D01*
X138150000Y-128300000D01*
G36*
X138150000Y-128300000D02*
G01*
X137100000Y-128300000D01*
X137100000Y-127250000D01*
X138150000Y-128300000D01*
G37*
X140300000Y-128300000D02*
X138150000Y-128300000D01*
X140300000Y-126150000D01*
X140300000Y-128300000D01*
G36*
X140300000Y-128300000D02*
G01*
X138150000Y-128300000D01*
X140300000Y-126150000D01*
X140300000Y-128300000D01*
G37*
X140300000Y-126150000D02*
X139250000Y-125100000D01*
X140300000Y-125100000D01*
X140300000Y-126150000D01*
G36*
X140300000Y-126150000D02*
G01*
X139250000Y-125100000D01*
X140300000Y-125100000D01*
X140300000Y-126150000D01*
G37*
%TD*%
M02*
