M48
; DRILL file KiCad 10.0.1-1.fc44 date 2026-06-04T14:14:03
; FORMAT={-:-/ absolute / metric / decimal}
; #@! TF.CreationDate,2026-06-04T14:14:03-04:00
; #@! TF.GenerationSoftware,Kicad,Pcbnew,10.0.1-1.fc44
; #@! TF.FileFunction,Plated,1,2,PTH
FMAT,2
METRIC
; #@! TA.AperFunction,Plated,PTH,ViaDrill
T1C0.300
; #@! TA.AperFunction,Plated,PTH,ComponentDrill
T2C0.750
; #@! TA.AperFunction,Plated,PTH,ComponentDrill
T3C3.200
%
G90
G05
T1
X108.7Y-108.7
X108.7Y-112.7
X108.7Y-116.7
X108.7Y-120.7
X108.7Y-124.7
X108.7Y-128.7
X108.7Y-132.7
X108.7Y-136.7
X108.7Y-140.7
X108.7Y-144.2
X112.7Y-108.7
X112.7Y-112.7
X112.7Y-116.7
X112.7Y-120.7
X112.7Y-124.7
X112.7Y-128.7
X112.7Y-132.7
X112.7Y-136.7
X112.7Y-140.7
X112.7Y-144.2
X115.257Y-110.143
X116.7Y-108.7
X116.7Y-112.7
X116.7Y-116.7
X116.7Y-120.7
X116.7Y-124.7
X116.7Y-128.7
X116.7Y-132.7
X116.7Y-136.7
X116.7Y-140.7
X116.7Y-144.2
X119.257Y-114.143
X120.7Y-108.7
X120.7Y-112.7
X120.7Y-116.7
X120.7Y-120.7
X120.7Y-124.7
X120.7Y-128.7
X120.7Y-132.7
X120.7Y-136.7
X120.7Y-140.7
X120.7Y-144.2
X123.257Y-118.143
X124.7Y-108.7
X124.7Y-112.7
X124.7Y-116.7
X124.7Y-120.7
X124.7Y-124.7
X124.7Y-128.7
X124.7Y-132.7
X124.7Y-136.7
X124.7Y-140.7
X124.7Y-144.2
X127.257Y-122.143
X128.7Y-108.7
X128.7Y-112.7
X128.7Y-116.7
X128.7Y-120.7
X128.7Y-124.7
X128.7Y-128.7
X128.7Y-132.7
X128.7Y-136.7
X128.7Y-140.7
X128.7Y-144.2
X131.257Y-126.143
X132.7Y-108.7
X132.7Y-112.7
X132.7Y-116.7
X132.7Y-120.7
X132.7Y-124.7
X132.7Y-128.7
X132.7Y-132.7
X132.7Y-136.7
X132.7Y-140.7
X132.7Y-144.2
X135.257Y-130.143
X136.7Y-108.7
X136.7Y-112.7
X136.7Y-116.7
X136.7Y-120.7
X136.7Y-124.7
X136.7Y-128.7
X136.7Y-132.7
X136.7Y-136.7
X136.7Y-140.7
X136.7Y-144.2
X139.257Y-134.143
X140.7Y-108.7
X140.7Y-112.7
X140.7Y-116.7
X140.7Y-120.7
X140.7Y-124.7
X140.7Y-128.7
X140.7Y-132.7
X140.7Y-136.7
X140.7Y-140.7
X140.7Y-144.2
X143.257Y-138.143
X154.7Y-117.5
X155.025Y-116.225
X155.21Y-114.79
X155.351Y-119.6
X155.724Y-110.724
X156.5Y-117.7
X156.6Y-131.0
X156.6Y-138.0
X157.2Y-118.4
X157.6Y-109.6
X157.6Y-111.75
X157.6Y-113.25
X157.9Y-106.651
X158.2Y-112.5
X158.74Y-119.0
X159.2Y-107.6
X159.34Y-119.8
X159.94Y-119.0
X160.424Y-107.4
X160.8Y-117.6
X161.624Y-108.224
X162.151Y-109.0
X162.2Y-107.4
X162.357Y-114.357
X162.5Y-132.8
X163.156Y-114.39
X163.385Y-116.282
X163.8Y-126.6
X163.876Y-113.8
X164.224Y-115.424
X164.8Y-118.6
X164.95Y-110.99
X165.649Y-115.4
X165.734Y-113.444
X165.8Y-117.8
X166.0Y-136.9
X166.724Y-114.876
X166.8Y-108.8
X167.244Y-109.466
X167.424Y-117.224
X167.8Y-121.819
X167.844Y-110.0
X167.876Y-112.676
X167.966Y-109.121
X168.2Y-115.2
X168.8Y-117.6
X168.8Y-118.4
X169.0Y-126.0
X169.176Y-108.624
X169.6Y-110.8
X169.6Y-124.6
X169.8Y-120.2
X170.2Y-105.6
X170.2Y-122.4
X170.4Y-107.351
X170.477Y-120.789
X171.175Y-118.0
X171.4Y-113.4
X171.6Y-109.8
X171.6Y-110.915
X172.2Y-127.8
X172.3Y-119.1
X173.198Y-114.805
X173.6Y-121.4
X173.824Y-126.576
T2
X170.8Y-131.8
X170.8Y-133.8
T3
X171.4Y-140.2
M30
